<?xml version="1.0" standalone="no"?>
<!DOCTYPE svg PUBLIC "-//W3C//DTD SVG 1.1//EN" "http://www.w3.org/Graphics/SVG/1.1/DTD/svg11.dtd" >
<svg xmlns="http://www.w3.org/2000/svg" xmlns:xlink="http://www.w3.org/1999/xlink" version="1.1">
<metadata>
Created by FontForge 20170731 at Thu Sep 20 11:57:41 2018
 By Aleksey,,,
Copyright (c) 2018 by atipo. All rights reserved.
</metadata>
<defs>
<font id="BasierCircle-MediumItalic" horiz-adv-x="250" >
  <font-face 
    font-family="Basier Circle Medium"
    font-weight="500"
    font-style="italic"
    font-stretch="normal"
    units-per-em="1000"
    panose-1="0 0 6 0 0 0 0 0 0 0"
    ascent="800"
    descent="-200"
    x-height="516"
    cap-height="700"
    bbox="-222 -245 1197 977"
    underline-thickness="50"
    underline-position="-200"
    unicode-range="U+000D-2265"
  />
<missing-glyph horiz-adv-x="940" 
 />
    <glyph glyph-name=".notdef" horiz-adv-x="940" 
 />
    <glyph glyph-name=".null" horiz-adv-x="0" 
 />
    <glyph glyph-name="nonmarkingreturn" horiz-adv-x="333" 
 />
    <glyph glyph-name="NULL" horiz-adv-x="0" 
 />
    <glyph glyph-name="NULL" horiz-adv-x="0" 
 />
    <glyph glyph-name="CR" unicode="&#xd;" 
 />
    <glyph glyph-name="space" unicode=" " horiz-adv-x="291" 
 />
    <glyph glyph-name="exclam" unicode="!" horiz-adv-x="266" 
d="M138 222l57 382l19 96h124l-19 -96l-104 -382h-77zM131 -9q-29 0 -44 15t-15 41q0 40 23.5 65t65.5 25q29 0 44 -15.5t15 -41.5q0 -39 -24 -64t-65 -25z" />
    <glyph glyph-name="quotedbl" unicode="&#x22;" horiz-adv-x="425" 
d="M168 431l10 152l24 117h116l-24 -117l-50 -152h-76zM357 431l10 152l24 117h116l-24 -117l-51 -152h-75z" />
    <glyph glyph-name="numbersign" unicode="#" horiz-adv-x="694" 
d="M728 416h-126l-51 -137h99l-20 -100h-116l-67 -179h-102l67 179h-122l-67 -179h-102l67 179h-102l21 100h118l51 137h-92l21 100h108l69 184h102l-69 -184h122l69 184h102l-69 -184h109zM449 279l51 137h-122l-51 -137h122z" />
    <glyph glyph-name="dollar" unicode="$" horiz-adv-x="632" 
d="M678 492h-119q6 41 -13.5 69.5t-65.5 37.5l-38 -190l19 -4q174 -37 174 -170q0 -102 -69.5 -168t-208.5 -75l-17 -82h-81l17 83q-109 10 -159 71t-34 159h119q-15 -108 95 -124l44 214l-18 4q-164 36 -164 165q0 97 69 158t193 68l17 82h81l-17 -84q95 -12 143.5 -70
t32.5 -144zM284 500q0 -53 80 -74l36 175q-56 -7 -86 -33t-30 -68zM421 295l-3 1l-40 -198q65 8 99 38t34 77q0 62 -90 82z" />
    <glyph glyph-name="percent" unicode="%" horiz-adv-x="850" 
d="M291 348q-62 0 -97 37.5t-35 99.5q0 95 50 161t142 66q62 0 96.5 -38t34.5 -99q0 -95 -49.5 -161t-141.5 -66zM136 0l2 10l614 690h99l-2 -10l-612 -690h-101zM300 427q50 0 73 41t23 97q0 68 -54 68q-50 0 -73.5 -41t-23.5 -97q0 -68 55 -68zM642 -9q-62 0 -96.5 38
t-34.5 99q0 95 49.5 161t141.5 66q62 0 97 -38t35 -99q0 -95 -50 -161t-142 -66zM651 70q50 0 73.5 41t23.5 97q0 68 -55 68q-50 0 -73.5 -41t-23.5 -97q0 -68 55 -68z" />
    <glyph glyph-name="ampersand" unicode="&#x26;" horiz-adv-x="731" 
d="M771 398l-2 -10q-89 -159 -176 -251l92 -127l-2 -10h-141l-41 58q-98 -67 -214 -67q-83 0 -140 46t-57 121q0 77 44.5 128t134.5 97q-46 64 -46 124q0 86 60.5 143.5t165.5 58.5h2q75 0 118 -39.5t43 -101.5q0 -63 -43 -113t-136 -99l99 -136q64 70 122 178h117zM428 611
q-39 -1 -65 -26.5t-26 -61.5q0 -38 37 -86l3 -4q67 33 93 59t26 61q0 26 -17.5 42t-48.5 16h-2zM304 95q68 0 137 46l-116 163q-67 -35 -90.5 -63.5t-23.5 -67.5q0 -34 26.5 -56t66.5 -22z" />
    <glyph glyph-name="quotesingle" unicode="'" horiz-adv-x="236" 
d="M168 431l10 152l24 117h116l-24 -117l-50 -152h-76z" />
    <glyph glyph-name="parenleft" unicode="(" horiz-adv-x="365" 
d="M449 749q-191 -199 -243 -453q-14 -72 -15 -140.5t10 -125.5t26.5 -102.5t37.5 -84.5l-2 -10h-86q-36 55 -58.5 120.5t-31.5 156t12 186.5q56 270 264 463h88z" />
    <glyph glyph-name="parenright" unicode=")" horiz-adv-x="365" 
d="M308 759q36 -55 58.5 -119.5t32 -155.5t-12.5 -188q-29 -140 -101 -259.5t-162 -203.5h-89l2 10q191 199 243 453q50 251 -58 453l2 10h85z" />
    <glyph glyph-name="asterisk" unicode="*" horiz-adv-x="486" 
d="M273 365l41 125l-4 3l-116 -73l-26 83l128 37l1 4l-113 38l60 83l86 -73l4 4l11 124h93l-40 -124l4 -4l115 73l26 -83l-128 -38l-1 -4l113 -37l-59 -83l-88 73l-4 -3l-10 -125h-93z" />
    <glyph glyph-name="plus" unicode="+" horiz-adv-x="485" 
d="M205 66l40 198h-187l21 98h186l40 198h106l-40 -198h182l-20 -98h-182l-41 -198h-105z" />
    <glyph glyph-name="comma" unicode="," horiz-adv-x="238" 
d="M1 -138l2 10l79 235h129l-2 -10l-118 -235h-90z" />
    <glyph glyph-name="hyphen" unicode="-" horiz-adv-x="466" 
d="M129 241l22 104h306l-22 -104h-306z" />
    <glyph glyph-name="period" unicode="." horiz-adv-x="243" 
d="M120 -9q-60 0 -60 56q0 40 24 65t66 25q29 0 44 -15.5t15 -41.5q0 -39 -24.5 -64t-64.5 -25z" />
    <glyph glyph-name="slash" unicode="/" horiz-adv-x="418" 
d="M-12 -133l2 10l456 860h107l-2 -10l-457 -860h-106z" />
    <glyph glyph-name="zero" unicode="0" horiz-adv-x="628" 
d="M311 -9q-197 0 -199 224q0 129 38.5 239.5t119 183t188.5 72.5q102 0 150.5 -59.5t48.5 -164.5q0 -96 -23 -183.5t-65 -157.5t-109 -112t-149 -42zM332 93q51 0 92 36t66 93t37.5 123.5t12.5 133.5q0 130 -103 130q-67 0 -116 -62.5t-70 -147.5t-22 -177q0 -129 103 -129
z" />
    <glyph glyph-name="one" unicode="1" horiz-adv-x="425" 
d="M221 0l118 579h-4l-189 -123h-10l24 115l200 129h118l-142 -700h-115z" />
    <glyph glyph-name="two" unicode="2" horiz-adv-x="569" 
d="M54 0l19 92l286 247q79 70 108 110t29 82q0 36 -24.5 57.5t-67.5 21.5q-54 0 -91 -30.5t-48 -88.5h-113q18 103 87.5 162t179.5 59q89 0 142.5 -48t53.5 -121q0 -63 -37 -119t-133 -138l-210 -178l-1 -4h304l-21 -104h-463z" />
    <glyph glyph-name="three" unicode="3" horiz-adv-x="603" 
d="M307 -9q-112 0 -172.5 57.5t-40.5 156.5h114q-8 -48 18 -80.5t93 -32.5q73 0 113 37t40 95q0 42 -30 66t-88 24h-61l21 101h59q63 0 101.5 33t38.5 85q0 34 -23.5 56t-69.5 22q-57 0 -92.5 -29.5t-47.5 -79.5h-115q20 99 92 154.5t184 55.5q85 0 139.5 -44t54.5 -115
q0 -65 -36.5 -112.5t-97.5 -67.5l-1 -4q43 -15 67.5 -51t24.5 -83q0 -101 -73.5 -172.5t-211.5 -71.5z" />
    <glyph glyph-name="four" unicode="4" horiz-adv-x="588" 
d="M349 0l29 139h-319l23 114l370 447h154l-92 -459h90l-22 -102h-89l-29 -139h-115zM196 241h203l66 329h-4l-264 -325z" />
    <glyph glyph-name="five" unicode="5" horiz-adv-x="594" 
d="M301 -9q-109 0 -167 61t-40 150h115q-7 -46 20 -77.5t86 -31.5q80 0 121 50.5t41 116.5q0 46 -26.5 75.5t-79.5 29.5q-78 0 -130 -61h-115l107 396h409l-20 -103h-313l-52 -184h4q62 48 147 48q89 0 138 -50.5t49 -132.5q0 -120 -77 -203.5t-217 -83.5z" />
    <glyph glyph-name="six" unicode="6" horiz-adv-x="618" 
d="M321 -9q-102 0 -155.5 66t-53.5 178q0 87 22 169.5t64 152.5t112.5 112.5t158.5 42.5q97 0 147.5 -53.5t44.5 -136.5h-113q2 40 -24.5 63.5t-75.5 23.5q-79 0 -137 -67t-72 -166h4q67 81 178 81q86 0 139 -51.5t52 -127.5q-2 -122 -81.5 -204.5t-209.5 -82.5zM334 93
q70 0 115.5 48.5t46.5 113.5q0 48 -27.5 77t-80.5 29q-72 0 -117 -47t-45 -114q0 -48 28 -77.5t80 -29.5z" />
    <glyph glyph-name="seven" unicode="7" horiz-adv-x="541" 
d="M101 0l2 10q118 285 408 581l1 4h-359l21 105h477l-22 -110q-284 -294 -403 -590h-125z" />
    <glyph glyph-name="eight" unicode="8" horiz-adv-x="602" 
d="M510 370q85 -36 85 -136q0 -110 -80.5 -176t-211.5 -67q-99 1 -157.5 45.5t-58.5 123.5q0 75 40 129.5t115 82.5l1 4q-67 35 -67 119q0 96 76 156t194 61q90 -1 142 -42t52 -111q0 -62 -33 -110.5t-96 -74.5zM386 418q60 0 97 33t37 84q0 36 -24.5 56.5t-69.5 20.5
q-61 0 -97.5 -31.5t-36.5 -82.5q0 -37 25 -58.5t69 -21.5zM319 91q75 1 116.5 38.5t41.5 97.5q0 41 -28 65.5t-84 25.5q-75 -1 -116 -39t-41 -96q0 -43 28 -67t83 -25z" />
    <glyph glyph-name="nine" unicode="9" horiz-adv-x="618" 
d="M291 -9q-97 0 -147 53.5t-44 136.5h113q-3 -39 23.5 -63t75.5 -24q79 0 137.5 67t71.5 166h-4q-67 -81 -178 -81q-88 0 -139.5 53t-50.5 130q0 121 80 202t211 81q102 0 155.5 -66t53.5 -178q0 -87 -22 -169.5t-64 -152.5t-112.5 -112.5t-159.5 -42.5zM372 342
q72 0 117.5 47t45.5 114q0 48 -28.5 77.5t-79.5 29.5q-70 0 -115.5 -48.5t-46.5 -113.5q-1 -48 26.5 -77t80.5 -29z" />
    <glyph glyph-name="colon" unicode=":" horiz-adv-x="238" 
d="M189 331q-59 0 -59 57q0 39 23 64t65 25q29 0 44.5 -15.5t15.5 -41.5q0 -39 -24 -64t-65 -25zM120 -9q-60 0 -60 56q0 40 24 65t66 25q29 0 44 -15.5t15 -41.5q0 -39 -24.5 -64t-64.5 -25z" />
    <glyph glyph-name="semicolon" unicode=";" horiz-adv-x="238" 
d="M189 331q-59 0 -59 57q0 39 23 64t65 25q29 0 44.5 -15.5t15.5 -41.5q0 -39 -24 -64t-65 -25zM1 -138l2 10l79 235h129l-2 -10l-118 -235h-90z" />
    <glyph glyph-name="less" unicode="&#x3c;" horiz-adv-x="520" 
d="M477 -12l-388 247l21 98l486 247l-24 -120l-358 -180l-1 -4l286 -179z" />
    <glyph glyph-name="equal" unicode="=" horiz-adv-x="485" 
d="M554 364l-20 -98l-3 -14h-474l3 14h-1l20 98h475z" />
    <glyph glyph-name="greater" unicode="&#x3e;" horiz-adv-x="520" 
d="M39 -12l25 120l357 180l1 4l-285 176l22 112l388 -244l-21 -102z" />
    <glyph glyph-name="question" unicode="?" horiz-adv-x="543" 
d="M248 222l3 17q10 60 37.5 92.5t85.5 72.5l36 25q40 27 57.5 50t17.5 56q0 32 -22 53t-66 21q-56 0 -90.5 -29t-44.5 -81h-114q13 92 82 151.5t186 59.5q88 0 139.5 -44t51.5 -114q0 -106 -111 -182l-49 -33q-43 -29 -61 -48t-24 -51l-3 -16h-111zM259 -9q-29 0 -44 15
t-15 41q0 40 23.5 65t65.5 25q29 0 44 -15.5t15 -41.5q0 -39 -24 -64t-65 -25z" />
    <glyph glyph-name="at" unicode="@" horiz-adv-x="903" 
d="M543 -100q-182 0 -296 107t-114 297q0 178 119.5 291.5t299.5 113.5q165 0 272 -96t107 -255q0 -122 -50 -193t-141 -71q-40 0 -69 18.5t-36 49.5h-4q-40 -65 -124 -65q-75 0 -119 54.5t-44 142.5t46.5 145t124.5 57q33 0 63.5 -16.5t44.5 -43.5h4l7 49h81l-9 -256
q-2 -54 47 -54q44 0 68.5 50.5t24.5 132.5q0 122 -81 196.5t-216 74.5q-145 0 -236 -95t-91 -236q0 -147 88.5 -232t233.5 -85q123 0 205 35v-79q-82 -37 -206 -37zM523 180q49 0 73.5 34t24.5 90q0 52 -25.5 81.5t-66.5 29.5q-43 0 -67.5 -33.5t-24.5 -88.5
q0 -52 22.5 -82.5t63.5 -30.5z" />
    <glyph glyph-name="A" unicode="A" horiz-adv-x="691" 
d="M560 700l111 -690l-2 -10h-125l-22 162h-283l-87 -162h-131l2 10l390 690h147zM295 265h214l-42 312h-4z" />
    <glyph glyph-name="B" unicode="B" horiz-adv-x="666" 
d="M87 0l142 700h304q81 0 128 -39.5t47 -108.5q0 -123 -114 -177l-1 -4q77 -37 77 -130q0 -110 -74 -175.5t-195 -65.5h-314zM287 413h166q62 0 97 30t35 83q0 70 -88 70h-172zM224 105h181q67 0 105.5 34t38.5 90q0 39 -25.5 60.5t-76.5 21.5h-180z" />
    <glyph glyph-name="C" unicode="C" horiz-adv-x="709" 
d="M369 -9q-125 0 -193.5 75.5t-68.5 199.5q0 122 46 221.5t138.5 160.5t215.5 61q128 0 194 -71.5t53 -184.5h-120q6 67 -29 107.5t-114 40.5q-66 0 -117.5 -28t-82 -74.5t-46.5 -102t-16 -115.5q0 -85 39.5 -134t120.5 -49q77 0 129 38.5t73 103.5h119
q-33 -114 -120.5 -181.5t-220.5 -67.5z" />
    <glyph glyph-name="D" unicode="D" horiz-adv-x="704" 
d="M87 0l142 700h231q128 0 203 -76.5t75 -202.5q0 -115 -46 -209t-141.5 -153t-225.5 -59h-238zM221 105h115q130 0 205 89t75 215q0 86 -46 135.5t-135 49.5h-114z" />
    <glyph glyph-name="E" unicode="E" horiz-adv-x="610" 
d="M87 0l142 700h472l-22 -106h-354l-36 -180h323l-22 -106h-323l-42 -203h355l-21 -105h-472z" />
    <glyph glyph-name="F" unicode="F" horiz-adv-x="604" 
d="M87 0l142 700h465l-21 -106h-348l-40 -198h315l-21 -106h-316l-59 -290h-117z" />
    <glyph glyph-name="G" unicode="G" horiz-adv-x="718" 
d="M372 -9q-128 0 -196.5 75t-68.5 199q0 122 45 221.5t136.5 161t214.5 61.5q128 0 196.5 -68t57.5 -174h-120q4 60 -32 97t-115 37q-86 0 -147 -49.5t-87.5 -120.5t-26.5 -152q0 -83 39 -132t119 -49q88 0 143 47t75 123h-163l21 104h284l-14 -67q-30 -147 -122.5 -230.5
t-238.5 -83.5z" />
    <glyph glyph-name="H" unicode="H" horiz-adv-x="735" 
d="M673 700h117l-142 -700h-117l62 308h-327l-62 -308h-117l142 700h117l-58 -285h327z" />
    <glyph glyph-name="I" unicode="I" horiz-adv-x="292" 
d="M87 0l142 700h118l-142 -700h-118z" />
    <glyph glyph-name="J" unicode="J" horiz-adv-x="538" 
d="M240 -9q-102 0 -149 59.5t-28 153.5h112q-10 -48 12 -76t73 -28q52 0 84 29.5t42 80.5l100 490h118l-100 -490q-20 -101 -86.5 -160t-177.5 -59z" />
    <glyph glyph-name="K" unicode="K" horiz-adv-x="650" 
d="M771 700l-2 -10l-379 -330l252 -350l-2 -10h-132l-236 334l-68 -334h-117l142 700h117l-61 -301l346 301h140z" />
    <glyph glyph-name="L" unicode="L" horiz-adv-x="552" 
d="M87 0l142 700h117l-121 -594h330l-21 -106h-447z" />
    <glyph glyph-name="M" unicode="M" horiz-adv-x="880" 
d="M87 0l142 700h128l142 -382h4l296 382h136l-142 -700h-113l105 514h-4l-312 -396h-10l-150 399h-4l-105 -517h-113z" />
    <glyph glyph-name="N" unicode="N" horiz-adv-x="743" 
d="M87 0l142 700h125l219 -514h4l105 514h116l-142 -700h-126l-220 511h-4l-104 -511h-115z" />
    <glyph glyph-name="O" unicode="O" horiz-adv-x="740" 
d="M372 -9q-130 0 -197.5 76.5t-67.5 198.5q0 84 25 161.5t73.5 141.5t127 102t177.5 38q129 0 197 -76t68 -199q0 -83 -26 -161.5t-75 -141.5t-127.5 -101.5t-174.5 -38.5zM390 99q67 0 119 29t82.5 76.5t46 102t15.5 111.5q0 84 -39.5 133.5t-121.5 49.5
q-68 0 -120.5 -29.5t-82.5 -77t-45 -102t-15 -110.5q0 -84 39.5 -133.5t121.5 -49.5z" />
    <glyph glyph-name="P" unicode="P" horiz-adv-x="649" 
d="M87 0l142 700h278q91 0 144 -50.5t53 -131.5q0 -116 -79 -194.5t-204 -78.5h-167l-50 -245h-117zM276 351h147q75 0 117 40t42 109q0 45 -29 70t-81 25h-147z" />
    <glyph glyph-name="Q" unicode="Q" horiz-adv-x="740" 
d="M775 434q0 -109 -43.5 -208t-125.5 -160l65 -129l-2 -10h-119l-43 86q-64 -22 -135 -22q-130 0 -197.5 76.5t-67.5 198.5q0 84 25 161.5t73.5 141.5t127 102t177.5 38q129 0 197 -76t68 -199zM390 99q38 0 69 9l-63 125l2 10h119l40 -79q48 45 72 113.5t24 140.5
q0 84 -39.5 133.5t-121.5 49.5q-68 0 -120.5 -29.5t-82.5 -77t-45 -102t-15 -110.5q0 -84 39.5 -133.5t121.5 -49.5z" />
    <glyph glyph-name="R" unicode="R" horiz-adv-x="670" 
d="M716 524q0 -92 -52.5 -158.5t-139.5 -90.5l124 -265l-2 -10h-130l-117 264h-141l-54 -264h-117l142 700h296q91 0 141 -49.5t50 -126.5zM325 594l-45 -224h166q68 0 107 39t39 98q0 40 -24 63.5t-71 23.5h-172z" />
    <glyph glyph-name="S" unicode="S" horiz-adv-x="632" 
d="M317 -9q-130 0 -191 62.5t-43 169.5h119q-9 -61 25.5 -94t106.5 -33q85 0 131 31t46 86q0 62 -90 82l-98 22q-164 36 -164 165q0 103 78 165t217 62q117 0 180 -60.5t44 -156.5h-119q7 51 -22.5 81t-99.5 30q-74 0 -113.5 -27.5t-39.5 -75.5q0 -56 86 -75l91 -20
q174 -37 174 -170q0 -109 -79.5 -176.5t-238.5 -67.5z" />
    <glyph glyph-name="T" unicode="T" horiz-adv-x="592" 
d="M237 0l121 594h-211l21 106h540l-22 -106h-210l-121 -594h-118z" />
    <glyph glyph-name="U" unicode="U" horiz-adv-x="714" 
d="M362 -9q-126 0 -192 71t-40 198l89 440h118l-90 -438q-15 -76 15 -120.5t113 -44.5q162 0 197 165l89 438h118l-90 -440q-26 -131 -109.5 -200t-217.5 -69z" />
    <glyph glyph-name="V" unicode="V" horiz-adv-x="682" 
d="M275 0l-114 690l2 10h125l77 -553h4l299 553h135l-2 -10l-394 -690h-132z" />
    <glyph glyph-name="W" unicode="W" horiz-adv-x="924" 
d="M186 0l-25 690l2 10h124l5 -529h4l241 529h130l29 -529h4l218 529h127l-2 -10l-305 -690h-141l-27 518h-4l-240 -518h-140z" />
    <glyph glyph-name="X" unicode="X" horiz-adv-x="661" 
d="M18 0l2 10l299 343l1 4l-154 333l2 10h129l116 -267h4l222 267h142l-2 -10l-287 -339l-1 -4l154 -337l-2 -10h-131l-118 267h-4l-226 -267h-146z" />
    <glyph glyph-name="Y" unicode="Y" horiz-adv-x="670" 
d="M277 0l58 286l-174 404l2 10h129l117 -298h4l238 298h140l-2 -10l-336 -403l-58 -287h-118z" />
    <glyph glyph-name="Z" unicode="Z" horiz-adv-x="597" 
d="M36 0l21 103l468 486l1 4h-360l21 107h510l-21 -105l-467 -485l-1 -4h374l-21 -106h-525z" />
    <glyph glyph-name="bracketleft" unicode="[" horiz-adv-x="342" 
d="M8 -167l188 926h224l-19 -88h-125l-153 -750h128l-18 -88h-225z" />
    <glyph glyph-name="backslash" unicode="\" horiz-adv-x="418" 
d="M273 -133l-107 860l2 10h104l106 -860l-2 -10h-103z" />
    <glyph glyph-name="bracketright" unicode="]" horiz-adv-x="342" 
d="M41 -167l18 88h128l152 750h-126l18 88h224l-189 -926h-225z" />
    <glyph glyph-name="asciicircum" unicode="^" horiz-adv-x="588" 
d="M107 310l2 10l274 380h106l120 -380l-2 -10h-104l-82 280h-4l-196 -280h-114z" />
    <glyph glyph-name="underscore" unicode="_" horiz-adv-x="574" 
d="M23 -119l19 92h480l-20 -92h-479z" />
    <glyph glyph-name="grave" unicode="`" horiz-adv-x="272" 
d="M268 583l-88 140l2 10h134l44 -140l-2 -10h-90z" />
    <glyph glyph-name="a" unicode="a" horiz-adv-x="582" 
d="M253 -9q-83 0 -126.5 57.5t-43.5 148.5q0 136 75.5 232t196.5 96q54 0 89.5 -20t49.5 -51h4l26 62h101l-105 -516h-101l1 62h-4q-59 -71 -163 -71zM301 92q76 0 121.5 67.5t45.5 148.5q0 53 -25 84.5t-75 31.5q-59 0 -98.5 -35t-54 -81t-14.5 -97q0 -53 24.5 -86
t75.5 -33z" />
    <glyph glyph-name="b" unicode="b" horiz-adv-x="593" 
d="M341 -9q-103 0 -138 71h-4l-25 -62h-101l151 740h114l-59 -286h4q58 71 157 71q85 0 129.5 -56t44.5 -147q0 -133 -75 -232t-198 -99zM329 92q57 0 97 34.5t55.5 80.5t15.5 98q0 54 -24 86.5t-76 32.5q-82 0 -125 -64.5t-43 -146.5q0 -53 25 -87t75 -34z" />
    <glyph glyph-name="c" unicode="c" horiz-adv-x="546" 
d="M283 -9q-97 0 -148 55t-51 150q0 142 79 235.5t218 93.5q105 0 153.5 -54t37.5 -143h-114q5 44 -18.5 70t-70.5 26q-82 0 -125 -62t-43 -153q0 -118 100 -118q48 0 82 25.5t48 70.5h114q-23 -90 -89 -143t-173 -53z" />
    <glyph glyph-name="d" unicode="d" horiz-adv-x="583" 
d="M252 -9q-79 0 -124 56.5t-45 145.5q0 136 75 234t198 98q105 0 138 -71h4l59 286h114l-151 -740h-101l-1 62h-4q-62 -71 -162 -71zM301 92q80 0 124 65t44 150q0 53 -25 85t-77 32q-59 0 -98 -34.5t-53.5 -80.5t-14.5 -99q0 -54 24.5 -86t75.5 -32z" />
    <glyph glyph-name="e" unicode="e" horiz-adv-x="554" 
d="M285 -9q-97 0 -149 58t-52 151q0 133 78.5 229t218.5 96q113 0 162.5 -70.5t26.5 -180.5l-10 -48h-359q-9 -64 15.5 -101.5t84.5 -37.5q93 0 126 70h112q-26 -74 -91.5 -120t-162.5 -46zM218 307h242q10 54 -12.5 87.5t-78.5 33.5q-60 0 -98.5 -33.5t-52.5 -87.5z" />
    <glyph glyph-name="f" unicode="f" horiz-adv-x="395" 
d="M70 -229l133 649h-91l19 96h92l12 63q16 81 69.5 126t143.5 45q34 0 64 -7l-20 -96q-25 5 -49 5q-79 0 -94 -73l-12 -63h123l-19 -96h-124l-133 -649h-114z" />
    <glyph glyph-name="g" unicode="g" horiz-adv-x="583" 
d="M235 -238q-101 0 -153.5 50.5t-38.5 131.5h111q-4 -35 21 -59.5t77 -24.5q61 0 99.5 31.5t48.5 82.5l18 88h-4q-62 -71 -162 -71q-79 0 -124 56.5t-45 145.5q0 136 75 234t198 98q105 0 138 -71h4l26 62h101l-111 -544q-20 -98 -89 -154t-190 -56zM301 92q56 0 95 34
t55.5 81t16.5 99q0 54 -24.5 86t-76.5 32q-84 0 -125 -64t-41 -150q0 -118 100 -118z" />
    <glyph glyph-name="h" unicode="h" horiz-adv-x="591" 
d="M73 0l151 740h114l-60 -291h4q64 76 166 76q86 0 126.5 -50.5t22.5 -137.5l-69 -337h-114l63 309q22 113 -83 113q-54 0 -95 -37t-54 -101l-58 -284h-114z" />
    <glyph glyph-name="i" unicode="i" 
d="M251 595q-60 0 -60 56q0 39 23.5 63t66.5 24q60 0 60 -55q0 -39 -24 -63.5t-66 -24.5zM73 0l105 516h114l-105 -516h-114z" />
    <glyph glyph-name="j" unicode="j" horiz-adv-x="259" 
d="M261 595q-60 0 -60 56q0 39 23.5 63t66.5 24q60 0 60 -55q0 -39 -24 -63.5t-66 -24.5zM-13 -238q-31 0 -55 7l20 100q19 -3 38 -3q64 0 80 73l117 577h115l-121 -593q-16 -80 -66 -120.5t-128 -40.5z" />
    <glyph glyph-name="k" unicode="k" horiz-adv-x="535" 
d="M616 516l-2 -10l-262 -232l169 -264l-2 -10h-122l-162 255l-52 -255h-110l151 740h110l-88 -433l229 209h141z" />
    <glyph glyph-name="l" unicode="l" 
d="M73 0l151 740h114l-151 -740h-114z" />
    <glyph glyph-name="m" unicode="m" horiz-adv-x="902" 
d="M762 525q85 0 124 -50.5t22 -137.5l-69 -337h-114l63 309q23 113 -77 113q-51 0 -87.5 -35t-49.5 -98l-59 -289h-113l62 309q24 113 -76 113q-52 0 -91 -36.5t-52 -100.5l-58 -285h-114l105 516h101l-5 -67h4q64 76 164 76q109 0 139 -81h4q64 81 177 81z" />
    <glyph glyph-name="n" unicode="n" horiz-adv-x="587" 
d="M73 0l105 516h101l-5 -67h4q64 76 167 76q86 0 126 -50t22 -138l-69 -337h-114l63 309q22 113 -82 113q-54 0 -93.5 -36.5t-52.5 -100.5l-58 -285h-114z" />
    <glyph glyph-name="o" unicode="o" horiz-adv-x="566" 
d="M289 -9q-98 0 -152 56.5t-54 148.5q0 139 76.5 234t222.5 95q99 0 152 -57t53 -150q0 -66 -18 -123.5t-53 -103.5t-93.5 -73t-133.5 -27zM302 92q82 0 125 61t43 154q0 117 -100 117q-82 0 -125.5 -61t-43.5 -153q0 -118 101 -118z" />
    <glyph glyph-name="p" unicode="p" horiz-adv-x="593" 
d="M26 -229l152 745h101v-62h4q58 71 158 71q78 0 126 -57t48 -145q0 -135 -75 -233.5t-198 -98.5q-106 0 -139 71h-4l-59 -291h-114zM331 92q45 0 78.5 19.5t51.5 51.5t26.5 68t8.5 75q0 54 -24 86t-75 32q-80 0 -124 -65t-44 -149q0 -53 25.5 -85.5t76.5 -32.5z" />
    <glyph glyph-name="q" unicode="q" horiz-adv-x="583" 
d="M359 -229l59 291h-4q-58 -71 -156 -71q-85 0 -130 56t-45 147q0 133 75.5 232t197.5 99q105 0 138 -71h4l26 62h101l-152 -745h-114zM301 92q82 0 124.5 64.5t42.5 146.5q0 54 -24.5 87.5t-74.5 33.5q-44 0 -77.5 -19.5t-52.5 -51.5t-28.5 -68t-9.5 -74q0 -54 24 -86.5
t76 -32.5z" />
    <glyph glyph-name="r" unicode="r" horiz-adv-x="390" 
d="M73 0l105 516h96l-7 -82h4q25 41 65 65t87 24h47l-26 -106h-44q-65 0 -108 -43t-59 -122l-50 -252h-110z" />
    <glyph glyph-name="s" unicode="s" horiz-adv-x="511" 
d="M256 -9q-102 0 -149.5 49t-32.5 132h114q-8 -38 15.5 -60.5t72.5 -22.5q53 0 82.5 18t29.5 49q0 41 -56 52l-85 17q-54 11 -86.5 42.5t-32.5 81.5q0 79 58 127.5t171 48.5q93 0 141.5 -47t33.5 -122h-112q6 36 -15 56.5t-65 20.5t-71 -18t-27 -49q0 -38 57 -49l84 -16
q60 -13 91 -41.5t31 -81.5q0 -90 -66 -138.5t-183 -48.5z" />
    <glyph glyph-name="t" unicode="t" horiz-adv-x="402" 
d="M267 -9q-77 0 -106.5 40t-15.5 110l57 278h-85l19 97h89l23 109l105 28h10l-28 -137h125l-19 -97h-125l-53 -258q-7 -37 5.5 -53.5t47.5 -16.5q26 0 51 7h10l-19 -96q-37 -11 -91 -11z" />
    <glyph glyph-name="u" unicode="u" horiz-adv-x="578" 
d="M502 516h115l-66 -320q-19 -93 -82.5 -148.5t-176.5 -55.5q-107 0 -155 57t-30 147l65 320h113l-61 -302q-23 -117 85 -117t131 117z" />
    <glyph glyph-name="v" unicode="v" horiz-adv-x="552" 
d="M210 0l-91 506l2 10h115l61 -398h4l214 398h126l-2 -10l-295 -506h-134z" />
    <glyph glyph-name="w" unicode="w" horiz-adv-x="786" 
d="M149 0l-30 506l2 10h115l11 -380h4l176 380h137l22 -380h4l165 380h120l-2 -10l-236 -506h-141l-22 380h-4l-180 -380h-141z" />
    <glyph glyph-name="x" unicode="x" horiz-adv-x="525" 
d="M12 0l2 10l223 252l-116 244l2 10h121l79 -183h4l154 183h135l-2 -10l-213 -246l112 -250l-2 -10h-120l-82 188h-4l-159 -188h-134z" />
    <glyph glyph-name="y" unicode="y" horiz-adv-x="559" 
d="M100 -229l2 10l127 221l-12 3l-84 501l2 10h116l54 -388h4l215 388h124l-2 -10l-424 -735h-122z" />
    <glyph glyph-name="z" unicode="z" horiz-adv-x="502" 
d="M46 0l20 95l327 320l1 4h-261l19 97h406l-19 -96l-326 -319l-1 -4h263l-19 -97h-410z" />
    <glyph glyph-name="braceleft" unicode="{" horiz-adv-x="430" 
d="M455 759h55l-19 -89h-36q-46 0 -70.5 -22t-34.5 -70l-36 -172q-18 -95 -107 -108l-1 -2v-2q83 -12 64 -108l-36 -172q-10 -48 6 -70t63 -22h36l-18 -89h-55q-81 0 -114.5 42t-17.5 121l33 161q18 87 -75 90l9 49l10 49q94 3 112 90l33 161q33 163 199 163z" />
    <glyph glyph-name="bar" unicode="|" horiz-adv-x="274" 
d="M59 -138l183 898h100l-183 -898h-100z" />
    <glyph glyph-name="braceright" unicode="}" horiz-adv-x="430" 
d="M384 435q-18 -87 74 -90l-9 -49l-10 -49q-93 -3 -111 -90l-33 -161q-33 -163 -199 -163h-55l18 89h36q47 0 71.5 22t34.5 70l35 172q18 96 108 108v2l1 2q-83 12 -65 108l36 172q10 48 -6 70t-63 22h-36l19 89h55q81 0 114.5 -42t17.5 -121z" />
    <glyph glyph-name="asciitilde" unicode="~" horiz-adv-x="556" 
d="M419 208q-47 0 -92 27l-40 25q-25 15 -51 15q-54 0 -94 -57l-56 46q65 108 168 108q46 0 89 -26l42 -25q25 -16 53 -16q54 0 94 57l56 -46q-65 -108 -169 -108z" />
    <glyph glyph-name="exclamdown" unicode="&#xa1;" horiz-adv-x="266" 
d="M210 379q-59 0 -59 57q0 39 23.5 64t65.5 25q59 0 59 -57q0 -39 -24 -64t-65 -25zM34 -189l19 96l99 382h77l-52 -382l-19 -96h-124z" />
    <glyph glyph-name="cent" unicode="&#xa2;" horiz-adv-x="546" 
d="M591 418h-114q8 71 -52 91l-65 -323q68 19 90 91h114q-21 -82 -78 -133.5t-147 -60.5l-17 -83h-81l17 84q-76 13 -115.5 66t-39.5 136q0 133 69.5 224t192.5 103l18 87h81l-18 -88q81 -12 117.5 -64t27.5 -130zM220 299q0 -89 59 -111l65 321q-61 -16 -92.5 -74.5
t-31.5 -135.5z" />
    <glyph glyph-name="sterling" unicode="&#xa3;" horiz-adv-x="605" 
d="M37 0l20 102q75 2 92 80l23 113h-77l20 99h77l22 112q18 90 84.5 148t178.5 58q103 0 152 -62t32 -147h-108q9 46 -14.5 79.5t-79.5 33.5q-53 0 -89 -31t-46 -79l-23 -112h215l-21 -99h-214l-24 -117q-11 -57 -48 -75l-1 -4h386l-20 -99h-537z" />
    <glyph glyph-name="currency" unicode="&#xa4;" horiz-adv-x="579" 
d="M103 -14l-55 67l86 74q-14 34 -14 81q0 79 63 154l-57 75l83 68l57 -76q60 33 120 33q58 0 104 -30l85 73l55 -68l-83 -71q18 -36 18 -88q0 -82 -66 -155l53 -70l-82 -67l-54 70q-57 -31 -119 -31q-61 0 -108 34zM317 118q60 0 104.5 43t44.5 105q0 45 -27.5 73t-71.5 28
q-60 0 -105.5 -42.5t-45.5 -104.5q0 -45 28 -73.5t73 -28.5z" />
    <glyph glyph-name="yen" unicode="&#xa5;" horiz-adv-x="670" 
d="M791 700l-2 -10l-249 -300h111l-20 -94h-169l-7 -9l-14 -71h174l-19 -94h-174l-25 -122h-118l25 122h-180l18 94h181l14 70l-4 10h-174l19 94h114l-131 300l2 10h134l115 -298h4l235 298h140z" />
    <glyph glyph-name="brokenbar" unicode="&#xa6;" horiz-adv-x="274" 
d="M169 402l73 358h100l-73 -358h-100zM59 -138l73 358h100l-73 -358h-100z" />
    <glyph glyph-name="section" unicode="&#xa7;" horiz-adv-x="583" 
d="M240 -245q-89 0 -134 52t-29 133h100q-8 -43 13 -67.5t64 -24.5q50 0 78.5 25.5t28.5 64.5q0 36 -30 64l-160 145q-57 51 -57 117q0 110 121 170q-22 35 -22 81q0 83 61.5 138.5t162.5 55.5q88 0 133 -52t31 -133h-101q8 43 -12.5 67.5t-64.5 24.5q-48 0 -77.5 -25.5
t-29.5 -65.5q0 -35 31 -63l149 -135q66 -57 66 -130q0 -104 -120 -167q23 -34 23 -81q0 -84 -60.5 -139t-164.5 -55zM390 90q68 30 68 88q0 40 -30 67l-140 129q-69 -30 -69 -90q0 -37 26 -60z" />
    <glyph glyph-name="dieresis" unicode="&#xa8;" horiz-adv-x="413" 
d="M235 602q-53 0 -53 50q0 35 21.5 57.5t58.5 22.5q26 0 40 -13.5t14 -37.5q0 -35 -22 -57t-59 -22zM422 602q-53 0 -53 50q0 36 21 58t59 22q26 0 40 -13.5t14 -37.5q0 -35 -22 -57t-59 -22z" />
    <glyph glyph-name="copyright" unicode="&#xa9;" horiz-adv-x="820" 
d="M548 709q155 0 234.5 -102t48.5 -257q-32 -166 -141.5 -262.5t-275.5 -96.5q-154 0 -233.5 102t-49.5 257q33 165 144 262t273 97zM429 68q127 0 211.5 73.5t110.5 208.5q26 128 -33 205t-185 77q-127 0 -211 -73.5t-111 -208.5q-25 -128 34 -205t184 -77zM523 548
q72 0 107.5 -42t26.5 -103h-76q5 37 -14.5 56t-57.5 19q-66 0 -99.5 -48.5t-33.5 -121.5q0 -92 80 -92t105 74h76q-19 -64 -69.5 -103.5t-124.5 -39.5q-71 0 -108 40t-37 111q0 108 61 179t164 71z" />
    <glyph glyph-name="ordfeminine" unicode="&#xaa;" horiz-adv-x="428" 
d="M243 296q-54 0 -83.5 38t-29.5 98q0 90 51.5 154t130.5 64q70 0 92 -47h2l18 41h69l-70 -342h-69v41h-2q-38 -47 -109 -47zM278 367q48 0 76.5 43t28.5 94q0 33 -16 52.5t-48 20.5q-53 1 -79 -40.5t-26 -93.5q0 -34 15.5 -55t48.5 -21z" />
    <glyph glyph-name="guillemotleft" unicode="&#xab;" horiz-adv-x="593" 
d="M210 66l-122 212l2 10l207 212h108l-2 -10l-182 -210l97 -204l-2 -10h-106zM453 66l-122 212l2 10l207 212h108l-2 -10l-182 -210l97 -204l-2 -10h-106z" />
    <glyph glyph-name="registered" unicode="&#xae;" horiz-adv-x="491" 
d="M304 285q-81 0 -129.5 50t-48.5 129q0 107 77 183t190 76q81 0 129.5 -50t48.5 -129q0 -107 -77.5 -183t-189.5 -76zM316 343q84 0 138.5 54t54.5 143q0 59 -34 92t-94 33q-85 0 -139.5 -54t-54.5 -143q0 -59 34 -92t95 -33zM246 397l42 208h96q29 0 46.5 -15.5
t17.5 -40.5q0 -24 -14 -45.5t-38 -31.5l32 -69l-1 -6h-54l-28 67h-34l-13 -67h-52zM321 510h39q33 0 33 30q0 20 -24 20h-39z" />
    <glyph glyph-name="macron" unicode="&#xaf;" horiz-adv-x="347" 
d="M158 613l19 94h281l-19 -94h-281z" />
    <glyph glyph-name="degree" unicode="&#xb0;" horiz-adv-x="443" 
d="M298 367q-65 0 -105.5 40t-40.5 102q0 85 62 144.5t151 59.5q65 0 105.5 -40t40.5 -102q0 -85 -62 -144.5t-151 -59.5zM312 446q49 0 80.5 33.5t31.5 79.5q0 33 -19.5 54t-54.5 21q-48 0 -79.5 -33.5t-31.5 -79.5q0 -33 19 -54t54 -21z" />
    <glyph glyph-name="plusminus" unicode="&#xb1;" horiz-adv-x="485" 
d="M233 201l31 155h-186l19 97h186l32 154h105l-31 -154h182l-19 -97h-182l-32 -155h-105zM13 41l20 98h475l-20 -98h-475z" />
    <glyph glyph-name="uni00B2" unicode="&#xb2;" horiz-adv-x="406" 
d="M95 251l15 73l186 145q48 37 68 62.5t20 53.5q0 21 -14 34.5t-40 13.5q-33 0 -55 -19t-28 -47h-88q11 64 60.5 104.5t122.5 40.5q62 0 98 -32.5t36 -79.5q0 -44 -23.5 -82t-85.5 -85l-128 -99v-3h192l-18 -80h-318z" />
    <glyph glyph-name="uni00B3" unicode="&#xb3;" horiz-adv-x="424" 
d="M268 242q-77 0 -118 40t-27 107h86q-6 -28 11.5 -48t57.5 -20q44 0 68 21t24 54q0 50 -72 50h-47l16 78h46q41 0 62.5 18t21.5 47q0 20 -15.5 32.5t-43.5 12.5q-71 0 -86 -67h-86q15 67 63.5 106t124.5 39q59 0 97 -30t38 -78q0 -41 -23 -70t-55 -43l-1 -3q51 -21 51 -83
q0 -69 -51 -116t-142 -47z" />
    <glyph glyph-name="acute" unicode="&#xb4;" horiz-adv-x="272" 
d="M152 583l2 10l99 140h135l-2 -10l-144 -140h-90z" />
    <glyph glyph-name="paragraph" unicode="&#xb6;" horiz-adv-x="627" 
d="M198 -104l93 457q-67 0 -110.5 45.5t-43.5 112.5q0 88 70 153.5t161 65.5h346l-18 -86h-65l-151 -748h-97l152 748h-89l-151 -748h-97z" />
    <glyph glyph-name="periodcentered" unicode="&#xb7;" horiz-adv-x="238" 
d="M168 227q-60 0 -60 57q0 39 24 64t66 25q29 0 44 -15.5t15 -41.5q0 -39 -24.5 -64t-64.5 -25z" />
    <glyph glyph-name="cedilla" unicode="&#xb8;" horiz-adv-x="317" 
d="M110 -222q-53 0 -82.5 25t-20.5 70h73q-3 -14 8 -23t33 -9q23 0 38.5 9.5t15.5 27.5q0 26 -39 26h-32l-18 31l56 79h84l-47 -56q37 -1 59 -20.5t22 -51.5q0 -45 -40 -76.5t-110 -31.5z" />
    <glyph glyph-name="uni00B9" unicode="&#xb9;" horiz-adv-x="291" 
d="M210 248l72 356h-4l-119 -79h-9l19 88l132 87h88l-92 -452h-87z" />
    <glyph glyph-name="ordmasculine" unicode="&#xba;" horiz-adv-x="404" 
d="M265 296q-65 0 -100 38t-35 99q0 90 54.5 153t146.5 63q65 0 100 -38t35 -100q0 -89 -53.5 -152t-147.5 -63zM276 368q51 0 78.5 37.5t27.5 99.5q0 72 -63 72q-52 0 -78 -38.5t-26 -98.5q0 -72 61 -72z" />
    <glyph glyph-name="guillemotright" unicode="&#xbb;" horiz-adv-x="593" 
d="M190 500l122 -212l-2 -10l-207 -212h-108l2 10l182 210l-97 204l2 10h106zM433 500l122 -212l-2 -10l-207 -212h-108l2 10l182 210l-97 204l2 10h106z" />
    <glyph glyph-name="onequarter" unicode="&#xbc;" horiz-adv-x="901" 
d="M210 248l72 356h-4l-119 -79h-9l19 88l132 87h88l-92 -452h-87zM172 0l2 10l574 690h94l-2 -10l-572 -690h-96zM713 0l18 89h-209l18 87l235 276h117l-57 -283h57l-17 -80h-57l-18 -89h-87zM628 169h119l37 183h-4l-151 -179z" />
    <glyph glyph-name="onehalf" unicode="&#xbd;" horiz-adv-x="936" 
d="M210 248l72 356h-4l-119 -79h-9l19 88l132 87h88l-92 -452h-87zM172 0l2 10l574 690h94l-2 -10l-572 -690h-96zM574 0l15 73l186 146q48 38 68 62.5t20 52.5q0 21 -14 34.5t-40 13.5q-33 0 -55 -18.5t-28 -47.5h-88q12 64 61 104.5t122 40.5q62 0 98 -32.5t36 -79.5
q0 -44 -23.5 -82t-84.5 -85l-129 -99v-3h192l-17 -80h-319z" />
    <glyph glyph-name="threequarters" unicode="&#xbe;" horiz-adv-x="991" 
d="M268 242q-77 0 -118 40t-27 107h86q-6 -28 11.5 -48t57.5 -20q44 0 68 21t24 54q0 50 -72 50h-47l16 78h46q41 0 62.5 18t21.5 47q0 20 -15.5 32.5t-43.5 12.5q-71 0 -86 -67h-86q15 67 63.5 106t124.5 39q59 0 97 -30t38 -78q0 -41 -23 -70t-55 -43l-1 -3q51 -21 51 -83
q0 -69 -51 -116t-142 -47zM262 0l2 10l574 690h94l-2 -10l-572 -690h-96zM803 0l18 89h-209l18 87l235 276h117l-57 -283h57l-17 -80h-57l-18 -89h-87zM718 169h119l37 183h-4l-151 -179z" />
    <glyph glyph-name="questiondown" unicode="&#xbf;" horiz-adv-x="543" 
d="M358 380q-29 0 -44.5 15.5t-15.5 41.5q0 38 25 63.5t65 25.5q59 0 59 -57q0 -39 -23.5 -64t-65.5 -25zM231 -193q-88 0 -139.5 44t-51.5 114q0 108 111 181l49 33q43 29 61 48t24 52l3 16h111l-3 -17q-11 -61 -37.5 -93t-85.5 -73l-36 -25q-40 -27 -58 -50.5t-18 -55.5
t22.5 -52.5t66.5 -20.5q55 0 90 29t44 81h114q-13 -92 -81.5 -151.5t-185.5 -59.5z" />
    <glyph glyph-name="Agrave" unicode="&#xc0;" horiz-adv-x="691" 
d="M569 767h-90l-88 140l2 10h134l44 -140zM560 700l111 -690l-2 -10h-125l-22 162h-283l-87 -162h-131l2 10l390 690h147zM295 265h214l-42 312h-4z" />
    <glyph glyph-name="Aacute" unicode="&#xc1;" horiz-adv-x="691" 
d="M542 917h135l-2 -10l-144 -140h-90l2 10zM413 700h147l111 -690l-2 -10h-125l-22 162h-283l-87 -162h-131l2 10zM295 265h214l-42 312h-4z" />
    <glyph glyph-name="Acircumflex" unicode="&#xc2;" horiz-adv-x="691" 
d="M518 838l-79 -69h-101l2 10l126 136h133l71 -136l-2 -10h-95l-51 69h-4zM560 700l111 -690l-2 -10h-125l-22 162h-283l-87 -162h-131l2 10l390 690h147zM295 265h214l-42 312h-4z" />
    <glyph glyph-name="Atilde" unicode="&#xc3;" horiz-adv-x="691" 
d="M606 902h73l-3 -15q-11 -54 -43.5 -82.5t-80.5 -28.5q-32 0 -63 20l-13 9q-19 14 -36 14q-14 0 -25.5 -11t-15.5 -30h-74l3 15q11 53 45 82t80 29q33 0 64 -20l13 -9q22 -13 36 -13q32 0 40 40zM413 700h147l111 -690l-2 -10h-125l-22 162h-283l-87 -162h-131l2 10z
M295 265h214l-42 312h-4z" />
    <glyph glyph-name="Adieresis" unicode="&#xc4;" horiz-adv-x="691" 
d="M413 786q-53 0 -53 50q0 35 21.5 57.5t58.5 22.5q26 0 40 -13.5t14 -37.5q0 -35 -22 -57t-59 -22zM600 786q-53 0 -53 50q0 36 21 58t59 22q26 0 40 -13.5t14 -37.5q0 -35 -22 -57t-59 -22zM413 700h147l111 -690l-2 -10h-125l-22 162h-283l-87 -162h-131l2 10zM295 265
h214l-42 312h-4z" />
    <glyph glyph-name="Aring" unicode="&#xc5;" horiz-adv-x="691" 
d="M499 754q-42 0 -69 27t-27 67q0 56 39 92.5t98 36.5q43 0 69.5 -26.5t26.5 -67.5q0 -56 -38.5 -92.5t-98.5 -36.5zM528 911q-25 0 -40.5 -16t-15.5 -39q0 -16 9.5 -26t27.5 -10q25 0 41.5 15.5t16.5 38.5q0 16 -10.5 26.5t-28.5 10.5zM560 700l111 -690l-2 -10h-125
l-22 162h-283l-87 -162h-131l2 10l390 690h147zM295 265h214l-42 312h-4z" />
    <glyph glyph-name="AE" unicode="&#xc6;" horiz-adv-x="913" 
d="M21 0l2 10l390 690h590l-21 -106h-405l30 -180h308l-22 -106h-270l33 -203h226l-21 -105h-320l-22 162h-286l-88 -162h-124zM288 265h218l-44 312h-4z" />
    <glyph glyph-name="Ccedilla" unicode="&#xc7;" horiz-adv-x="709" 
d="M754 453h-120q6 67 -29 107.5t-114 40.5q-66 0 -117.5 -28t-82 -74.5t-46.5 -102t-16 -115.5q0 -85 39.5 -134t120.5 -49q77 0 129 38.5t73 103.5h119q-31 -107 -111 -174t-201 -74l-28 -34q37 -1 59 -20.5t22 -51.5q0 -45 -40 -76.5t-110 -31.5q-53 0 -82.5 25t-20.5 70
h73q-3 -14 8 -23t33 -9q23 0 38.5 9.5t15.5 27.5q0 26 -39 26h-32l-18 31l42 60q-102 15 -157 87.5t-55 183.5q0 122 46 221.5t138.5 160.5t215.5 61q128 0 194 -71.5t53 -184.5z" />
    <glyph glyph-name="Egrave" unicode="&#xc8;" horiz-adv-x="610" 
d="M467 767l-88 140l2 10h134l44 -140l-2 -10h-90zM87 0l142 700h472l-22 -106h-354l-36 -180h323l-22 -106h-323l-42 -203h355l-21 -105h-472z" />
    <glyph glyph-name="Eacute" unicode="&#xc9;" horiz-adv-x="610" 
d="M429 767l2 10l99 140h135l-2 -10l-144 -140h-90zM87 0l142 700h472l-22 -106h-354l-36 -180h323l-22 -106h-323l-42 -203h355l-21 -105h-472z" />
    <glyph glyph-name="Ecircumflex" unicode="&#xca;" horiz-adv-x="610" 
d="M326 769l2 10l126 136h133l71 -136l-2 -10h-95l-51 69h-4l-79 -69h-101zM87 0l142 700h472l-22 -106h-354l-36 -180h323l-22 -106h-323l-42 -203h355l-21 -105h-472z" />
    <glyph glyph-name="Edieresis" unicode="&#xcb;" horiz-adv-x="610" 
d="M401 786q-53 0 -53 50q0 35 21.5 57.5t58.5 22.5q26 0 40 -13.5t14 -37.5q0 -35 -22 -57t-59 -22zM588 786q-53 0 -53 50q0 36 21 58t59 22q26 0 40 -13.5t14 -37.5q0 -35 -22 -57t-59 -22zM87 0l142 700h472l-22 -106h-354l-36 -180h323l-22 -106h-323l-42 -203h355
l-21 -105h-472z" />
    <glyph glyph-name="Igrave" unicode="&#xcc;" horiz-adv-x="292" 
d="M282 767l-88 140l2 10h134l44 -140l-2 -10h-90zM87 0l142 700h118l-142 -700h-118z" />
    <glyph glyph-name="Iacute" unicode="&#xcd;" horiz-adv-x="292" 
d="M244 767l2 10l99 140h135l-2 -10l-144 -140h-90zM87 0l142 700h118l-142 -700h-118z" />
    <glyph glyph-name="Icircumflex" unicode="&#xce;" horiz-adv-x="292" 
d="M141 769l2 10l126 136h133l71 -136l-2 -10h-95l-51 69h-4l-79 -69h-101zM87 0l142 700h118l-142 -700h-118z" />
    <glyph glyph-name="Idieresis" unicode="&#xcf;" horiz-adv-x="292" 
d="M216 786q-53 0 -53 50q0 35 21.5 57.5t58.5 22.5q26 0 40 -13.5t14 -37.5q0 -35 -22 -57t-59 -22zM403 786q-53 0 -53 50q0 36 21 58t59 22q26 0 40 -13.5t14 -37.5q0 -35 -22 -57t-59 -22zM87 0l142 700h118l-142 -700h-118z" />
    <glyph glyph-name="Eth" unicode="&#xd0;" horiz-adv-x="751" 
d="M507 700q128 0 203 -76.5t75 -202.5q0 -115 -46 -209t-141.5 -153t-225.5 -59h-238l63 311h-71l21 102h71l58 287h231zM383 105q130 0 205 89t75 215q0 86 -46 135.5t-135 49.5h-114l-37 -181h173l-21 -102h-173l-42 -206h115z" />
    <glyph glyph-name="Ntilde" unicode="&#xd1;" horiz-adv-x="743" 
d="M598 776q-32 0 -63 20l-13 9q-19 14 -36 14q-14 0 -25.5 -11t-15.5 -30h-74l3 15q11 53 45 82t80 29q33 0 64 -20l13 -9q22 -13 36 -13q32 0 40 40h73l-3 -15q-11 -54 -43.5 -82.5t-80.5 -28.5zM87 0l142 700h125l219 -514h4l105 514h116l-142 -700h-126l-220 511h-4
l-104 -511h-115z" />
    <glyph glyph-name="Ograve" unicode="&#xd2;" horiz-adv-x="740" 
d="M508 767l-88 140l2 10h134l44 -140l-2 -10h-90zM372 -9q-130 0 -197.5 76.5t-67.5 198.5q0 84 25 161.5t73.5 141.5t127 102t177.5 38q129 0 197 -76t68 -199q0 -83 -26 -161.5t-75 -141.5t-127.5 -101.5t-174.5 -38.5zM390 99q67 0 119 29t82.5 76.5t46 102t15.5 111.5
q0 84 -39.5 133.5t-121.5 49.5q-68 0 -120.5 -29.5t-82.5 -77t-45 -102t-15 -110.5q0 -84 39.5 -133.5t121.5 -49.5z" />
    <glyph glyph-name="Oacute" unicode="&#xd3;" horiz-adv-x="740" 
d="M470 767l2 10l99 140h135l-2 -10l-144 -140h-90zM372 -9q-130 0 -197.5 76.5t-67.5 198.5q0 84 25 161.5t73.5 141.5t127 102t177.5 38q129 0 197 -76t68 -199q0 -83 -26 -161.5t-75 -141.5t-127.5 -101.5t-174.5 -38.5zM390 99q67 0 119 29t82.5 76.5t46 102t15.5 111.5
q0 84 -39.5 133.5t-121.5 49.5q-68 0 -120.5 -29.5t-82.5 -77t-45 -102t-15 -110.5q0 -84 39.5 -133.5t121.5 -49.5z" />
    <glyph glyph-name="Ocircumflex" unicode="&#xd4;" horiz-adv-x="740" 
d="M367 769l2 10l126 136h133l71 -136l-2 -10h-95l-51 69h-4l-79 -69h-101zM372 -9q-130 0 -197.5 76.5t-67.5 198.5q0 84 25 161.5t73.5 141.5t127 102t177.5 38q129 0 197 -76t68 -199q0 -83 -26 -161.5t-75 -141.5t-127.5 -101.5t-174.5 -38.5zM390 99q67 0 119 29
t82.5 76.5t46 102t15.5 111.5q0 84 -39.5 133.5t-121.5 49.5q-68 0 -120.5 -29.5t-82.5 -77t-45 -102t-15 -110.5q0 -84 39.5 -133.5t121.5 -49.5z" />
    <glyph glyph-name="Otilde" unicode="&#xd5;" horiz-adv-x="740" 
d="M581 776q-32 0 -63 20l-13 9q-19 14 -36 14q-14 0 -25.5 -11t-15.5 -30h-74l3 15q11 53 45 82t80 29q33 0 64 -20l13 -9q22 -13 36 -13q32 0 40 40h73l-3 -15q-11 -54 -43.5 -82.5t-80.5 -28.5zM372 -9q-130 0 -197.5 76.5t-67.5 198.5q0 84 25 161.5t73.5 141.5t127 102
t177.5 38q129 0 197 -76t68 -199q0 -83 -26 -161.5t-75 -141.5t-127.5 -101.5t-174.5 -38.5zM390 99q67 0 119 29t82.5 76.5t46 102t15.5 111.5q0 84 -39.5 133.5t-121.5 49.5q-68 0 -120.5 -29.5t-82.5 -77t-45 -102t-15 -110.5q0 -84 39.5 -133.5t121.5 -49.5z" />
    <glyph glyph-name="Odieresis" unicode="&#xd6;" horiz-adv-x="740" 
d="M442 786q-53 0 -53 50q0 35 21.5 57.5t58.5 22.5q26 0 40 -13.5t14 -37.5q0 -35 -22 -57t-59 -22zM629 786q-53 0 -53 50q0 36 21 58t59 22q26 0 40 -13.5t14 -37.5q0 -35 -22 -57t-59 -22zM372 -9q-130 0 -197.5 76.5t-67.5 198.5q0 84 25 161.5t73.5 141.5t127 102
t177.5 38q129 0 197 -76t68 -199q0 -83 -26 -161.5t-75 -141.5t-127.5 -101.5t-174.5 -38.5zM390 99q67 0 119 29t82.5 76.5t46 102t15.5 111.5q0 84 -39.5 133.5t-121.5 49.5q-68 0 -120.5 -29.5t-82.5 -77t-45 -102t-15 -110.5q0 -84 39.5 -133.5t121.5 -49.5z" />
    <glyph glyph-name="multiply" unicode="&#xd7;" horiz-adv-x="435" 
d="M99 105l-63 74l177 145l-113 136l82 69l113 -138l171 140l63 -73l-174 -142l117 -144l-82 -67l-116 144z" />
    <glyph glyph-name="Oslash" unicode="&#xd8;" horiz-adv-x="740" 
d="M854 738l-2 -10l-120 -128q43 -67 43 -166q0 -83 -26 -161.5t-75 -141.5t-127.5 -101.5t-174.5 -38.5q-99 0 -165 47l-75 -80h-105l2 10l122 130q-44 67 -44 168q0 84 25 161.5t73.5 141.5t127 102t177.5 38q102 0 165 -48l72 77h107zM229 282q0 -49 13 -85l350 375
q-40 29 -100 29q-68 0 -120.5 -29.5t-82.5 -77t-45 -102t-15 -110.5zM653 418q0 46 -12 84l-350 -374q38 -29 99 -29q67 0 119 29t82.5 76.5t46 102t15.5 111.5z" />
    <glyph glyph-name="Ugrave" unicode="&#xd9;" horiz-adv-x="714" 
d="M489 767l-88 140l2 10h134l44 -140l-2 -10h-90zM362 -9q-126 0 -192 71t-40 198l89 440h118l-90 -438q-15 -76 15 -120.5t113 -44.5q162 0 197 165l89 438h118l-90 -440q-26 -131 -109.5 -200t-217.5 -69z" />
    <glyph glyph-name="Uacute" unicode="&#xda;" horiz-adv-x="714" 
d="M451 767l2 10l99 140h135l-2 -10l-144 -140h-90zM362 -9q-126 0 -192 71t-40 198l89 440h118l-90 -438q-15 -76 15 -120.5t113 -44.5q162 0 197 165l89 438h118l-90 -440q-26 -131 -109.5 -200t-217.5 -69z" />
    <glyph glyph-name="Ucircumflex" unicode="&#xdb;" horiz-adv-x="714" 
d="M348 769l2 10l126 136h133l71 -136l-2 -10h-95l-51 69h-4l-79 -69h-101zM362 -9q-126 0 -192 71t-40 198l89 440h118l-90 -438q-15 -76 15 -120.5t113 -44.5q162 0 197 165l89 438h118l-90 -440q-26 -131 -109.5 -200t-217.5 -69z" />
    <glyph glyph-name="Udieresis" unicode="&#xdc;" horiz-adv-x="714" 
d="M423 786q-53 0 -53 50q0 35 21.5 57.5t58.5 22.5q26 0 40 -13.5t14 -37.5q0 -35 -22 -57t-59 -22zM610 786q-53 0 -53 50q0 36 21 58t59 22q26 0 40 -13.5t14 -37.5q0 -35 -22 -57t-59 -22zM362 -9q-126 0 -192 71t-40 198l89 440h118l-90 -438q-15 -76 15 -120.5
t113 -44.5q162 0 197 165l89 438h118l-90 -440q-26 -131 -109.5 -200t-217.5 -69z" />
    <glyph glyph-name="Yacute" unicode="&#xdd;" horiz-adv-x="670" 
d="M434 767l2 10l99 140h135l-2 -10l-144 -140h-90zM277 0l58 286l-174 404l2 10h129l117 -298h4l238 298h140l-2 -10l-336 -403l-58 -287h-118z" />
    <glyph glyph-name="Thorn" unicode="&#xde;" horiz-adv-x="621" 
d="M87 0l142 700h118l-19 -96h166q90 0 140.5 -50t50.5 -132q0 -115 -81 -193.5t-203 -78.5h-166l-30 -150h-118zM257 255h147q75 0 116.5 40t41.5 110q0 45 -28.5 70t-80.5 25h-146z" />
    <glyph glyph-name="germandbls" unicode="&#xdf;" horiz-adv-x="656" 
d="M427 -9q-92 0 -135 48.5t-29 133.5h110q-8 -40 10 -63t64 -23q40 0 65 18.5t25 48.5q0 36 -55 55l-60 22q-52 18 -79 44.5t-27 68.5q0 50 23 83t56 48.5t66 27.5t56 31.5t23 49.5q0 31 -26 49t-74 18q-121 0 -146 -124l-154 -756h-114l155 762q20 96 96 156.5t184 60.5
q93 0 142.5 -42.5t49.5 -107.5q0 -56 -23.5 -93t-56.5 -53t-66.5 -27t-57 -25.5t-23.5 -38.5q0 -18 13.5 -27.5t43.5 -21.5l61 -21q106 -40 106 -122q0 -80 -65 -130t-158 -50z" />
    <glyph glyph-name="agrave" unicode="&#xe0;" horiz-adv-x="582" 
d="M374 583l-88 140l2 10h134l44 -140l-2 -10h-90zM253 -9q-83 0 -126.5 57.5t-43.5 148.5q0 136 75.5 232t196.5 96q54 0 89.5 -20t49.5 -51h4l26 62h101l-105 -516h-101l1 62h-4q-59 -71 -163 -71zM301 92q76 0 121.5 67.5t45.5 148.5q0 53 -25 84.5t-75 31.5
q-59 0 -98.5 -35t-54 -81t-14.5 -97q0 -53 24.5 -86t75.5 -33z" />
    <glyph glyph-name="aacute" unicode="&#xe1;" horiz-adv-x="582" 
d="M336 583l2 10l99 140h135l-2 -10l-144 -140h-90zM253 -9q-83 0 -126.5 57.5t-43.5 148.5q0 136 75.5 232t196.5 96q54 0 89.5 -20t49.5 -51h4l26 62h101l-105 -516h-101l1 62h-4q-59 -71 -163 -71zM301 92q76 0 121.5 67.5t45.5 148.5q0 53 -25 84.5t-75 31.5
q-59 0 -98.5 -35t-54 -81t-14.5 -97q0 -53 24.5 -86t75.5 -33z" />
    <glyph glyph-name="acircumflex" unicode="&#xe2;" horiz-adv-x="582" 
d="M233 585l2 10l126 136h133l71 -136l-2 -10h-95l-51 69h-4l-79 -69h-101zM253 -9q-83 0 -126.5 57.5t-43.5 148.5q0 136 75.5 232t196.5 96q54 0 89.5 -20t49.5 -51h4l26 62h101l-105 -516h-101l1 62h-4q-59 -71 -163 -71zM301 92q76 0 121.5 67.5t45.5 148.5
q0 53 -25 84.5t-75 31.5q-59 0 -98.5 -35t-54 -81t-14.5 -97q0 -53 24.5 -86t75.5 -33z" />
    <glyph glyph-name="atilde" unicode="&#xe3;" horiz-adv-x="582" 
d="M447 592q-32 0 -63 20l-13 9q-19 14 -36 14q-14 0 -25.5 -11t-15.5 -30h-74l3 15q11 53 45 82t80 29q33 0 64 -20l13 -9q22 -13 36 -13q32 0 40 40h73l-3 -15q-11 -54 -43.5 -82.5t-80.5 -28.5zM253 -9q-83 0 -126.5 57.5t-43.5 148.5q0 136 75.5 232t196.5 96
q54 0 89.5 -20t49.5 -51h4l26 62h101l-105 -516h-101l1 62h-4q-59 -71 -163 -71zM301 92q76 0 121.5 67.5t45.5 148.5q0 53 -25 84.5t-75 31.5q-59 0 -98.5 -35t-54 -81t-14.5 -97q0 -53 24.5 -86t75.5 -33z" />
    <glyph glyph-name="adieresis" unicode="&#xe4;" horiz-adv-x="582" 
d="M308 602q-53 0 -53 50q0 35 21.5 57.5t58.5 22.5q26 0 40 -13.5t14 -37.5q0 -35 -22 -57t-59 -22zM495 602q-53 0 -53 50q0 36 21 58t59 22q26 0 40 -13.5t14 -37.5q0 -35 -22 -57t-59 -22zM253 -9q-83 0 -126.5 57.5t-43.5 148.5q0 136 75.5 232t196.5 96q54 0 89.5 -20
t49.5 -51h4l26 62h101l-105 -516h-101l1 62h-4q-59 -71 -163 -71zM301 92q76 0 121.5 67.5t45.5 148.5q0 53 -25 84.5t-75 31.5q-59 0 -98.5 -35t-54 -81t-14.5 -97q0 -53 24.5 -86t75.5 -33z" />
    <glyph glyph-name="aring" unicode="&#xe5;" horiz-adv-x="582" 
d="M394 570q-42 0 -69 27t-27 67q0 56 39 92.5t98 36.5q43 0 69.5 -26.5t26.5 -67.5q0 -56 -38.5 -92.5t-98.5 -36.5zM404 636q25 0 41.5 15.5t16.5 38.5q0 16 -10.5 26.5t-28.5 10.5q-25 0 -40.5 -16t-15.5 -39q0 -16 9.5 -26t27.5 -10zM253 -9q-83 0 -126.5 57.5
t-43.5 148.5q0 136 75.5 232t196.5 96q54 0 89.5 -20t49.5 -51h4l26 62h101l-105 -516h-101l1 62h-4q-59 -71 -163 -71zM301 92q76 0 121.5 67.5t45.5 148.5q0 53 -25 84.5t-75 31.5q-59 0 -98.5 -35t-54 -81t-14.5 -97q0 -53 24.5 -86t75.5 -33z" />
    <glyph glyph-name="ae" unicode="&#xe6;" horiz-adv-x="879" 
d="M220 -9q-73 0 -113 37t-40 96q0 81 62.5 134.5t183.5 53.5q62 0 117 -17l10 48q7 39 -13 63.5t-71 24.5q-46 0 -76 -22t-37 -55h-108q15 75 80.5 123t161.5 48q109 0 154 -69h4q74 69 179 69q109 0 156.5 -70.5t25.5 -180.5l-10 -48h-357q-13 -64 11.5 -101.5t85.5 -37.5
q94 0 127 70h112q-25 -72 -96 -119t-162 -47q-128 0 -170 97h-4q-75 -97 -213 -97zM546 307h239q11 54 -12 87.5t-79 33.5q-59 0 -96.5 -33.5t-51.5 -87.5zM261 82q56 0 98 33t50 80l4 17q-48 18 -109 18q-58 0 -89.5 -24t-31.5 -64q0 -27 20 -43.5t58 -16.5z" />
    <glyph glyph-name="ccedilla" unicode="&#xe7;" horiz-adv-x="546" 
d="M572 328h-114q5 44 -18.5 70t-70.5 26q-82 0 -125 -62t-43 -153q0 -118 100 -118q48 0 82 25.5t48 70.5h114q-21 -84 -80 -136t-154 -59l-29 -34q37 -1 59 -20.5t22 -51.5q0 -45 -40 -76.5t-110 -31.5q-53 0 -82.5 25t-20.5 70h73q-3 -14 8 -23t33 -9q23 0 38.5 9.5
t15.5 27.5q0 26 -39 26h-32l-18 31l43 61q-72 13 -110 66t-38 134q0 142 79 235.5t218 93.5q105 0 153.5 -54t37.5 -143z" />
    <glyph glyph-name="egrave" unicode="&#xe8;" horiz-adv-x="554" 
d="M379 583l-88 140l2 10h134l44 -140l-2 -10h-90zM285 -9q-97 0 -149 58t-52 151q0 133 78.5 229t218.5 96q113 0 162.5 -70.5t26.5 -180.5l-10 -48h-359q-9 -64 15.5 -101.5t84.5 -37.5q93 0 126 70h112q-26 -74 -91.5 -120t-162.5 -46zM218 307h242q10 54 -12.5 87.5
t-78.5 33.5q-60 0 -98.5 -33.5t-52.5 -87.5z" />
    <glyph glyph-name="eacute" unicode="&#xe9;" horiz-adv-x="554" 
d="M341 583l2 10l99 140h135l-2 -10l-144 -140h-90zM285 -9q-97 0 -149 58t-52 151q0 133 78.5 229t218.5 96q113 0 162.5 -70.5t26.5 -180.5l-10 -48h-359q-9 -64 15.5 -101.5t84.5 -37.5q93 0 126 70h112q-26 -74 -91.5 -120t-162.5 -46zM218 307h242q10 54 -12.5 87.5
t-78.5 33.5q-60 0 -98.5 -33.5t-52.5 -87.5z" />
    <glyph glyph-name="ecircumflex" unicode="&#xea;" horiz-adv-x="554" 
d="M238 585l2 10l126 136h133l71 -136l-2 -10h-95l-51 69h-4l-79 -69h-101zM285 -9q-97 0 -149 58t-52 151q0 133 78.5 229t218.5 96q113 0 162.5 -70.5t26.5 -180.5l-10 -48h-359q-9 -64 15.5 -101.5t84.5 -37.5q93 0 126 70h112q-26 -74 -91.5 -120t-162.5 -46zM218 307
h242q10 54 -12.5 87.5t-78.5 33.5q-60 0 -98.5 -33.5t-52.5 -87.5z" />
    <glyph glyph-name="edieresis" unicode="&#xeb;" horiz-adv-x="554" 
d="M313 602q-53 0 -53 50q0 35 21.5 57.5t58.5 22.5q26 0 40 -13.5t14 -37.5q0 -35 -22 -57t-59 -22zM500 602q-53 0 -53 50q0 36 21 58t59 22q26 0 40 -13.5t14 -37.5q0 -35 -22 -57t-59 -22zM285 -9q-97 0 -149 58t-52 151q0 133 78.5 229t218.5 96q113 0 162.5 -70.5
t26.5 -180.5l-10 -48h-359q-9 -64 15.5 -101.5t84.5 -37.5q93 0 126 70h112q-26 -74 -91.5 -120t-162.5 -46zM218 307h242q10 54 -12.5 87.5t-78.5 33.5q-60 0 -98.5 -33.5t-52.5 -87.5z" />
    <glyph glyph-name="igrave" unicode="&#xec;" 
d="M228 583l-88 140l2 10h134l44 -140l-2 -10h-90zM73 0l105 516h114l-105 -516h-114z" />
    <glyph glyph-name="iacute" unicode="&#xed;" 
d="M190 583l2 10l99 140h135l-2 -10l-144 -140h-90zM73 0l105 516h114l-105 -516h-114z" />
    <glyph glyph-name="icircumflex" unicode="&#xee;" 
d="M87 585l2 10l126 136h133l71 -136l-2 -10h-95l-51 69h-4l-79 -69h-101zM73 0l105 516h114l-105 -516h-114z" />
    <glyph glyph-name="idieresis" unicode="&#xef;" 
d="M162 602q-53 0 -53 50q0 35 21.5 57.5t58.5 22.5q26 0 40 -13.5t14 -37.5q0 -35 -22 -57t-59 -22zM349 602q-53 0 -53 50q0 36 21 58t59 22q26 0 40 -13.5t14 -37.5q0 -35 -22 -57t-59 -22zM73 0l105 516h114l-105 -516h-114z" />
    <glyph glyph-name="eth" unicode="&#xf0;" horiz-adv-x="566" 
d="M468 636q128 -144 119 -316v-2q0 -87 -34 -160t-105 -120t-167 -47q-98 0 -148 56t-50 149q0 137 83 233t224 96q22 0 40 -3q-23 39 -53 73l-125 -56l-20 63l97 44q-49 46 -109 84l2 10h124q40 -27 71 -54l114 52l20 -65zM302 92q82 0 125 61t43 154q0 117 -100 117
q-82 0 -125.5 -61t-43.5 -153q0 -118 101 -118z" />
    <glyph glyph-name="ntilde" unicode="&#xf1;" horiz-adv-x="587" 
d="M496 592q-32 0 -63 20l-13 9q-19 14 -36 14q-14 0 -25.5 -11t-15.5 -30h-74l3 15q11 53 45 82t80 29q33 0 64 -20l13 -9q22 -13 36 -13q32 0 40 40h73l-3 -15q-11 -54 -43.5 -82.5t-80.5 -28.5zM73 0l105 516h101l-5 -67h4q64 76 167 76q86 0 126 -50t22 -138l-69 -337
h-114l63 309q22 113 -82 113q-54 0 -93.5 -36.5t-52.5 -100.5l-58 -285h-114z" />
    <glyph glyph-name="ograve" unicode="&#xf2;" horiz-adv-x="566" 
d="M381 583l-88 140l2 10h134l44 -140l-2 -10h-90zM289 -9q-98 0 -152 56.5t-54 148.5q0 139 76.5 234t222.5 95q99 0 152 -57t53 -150q0 -66 -18 -123.5t-53 -103.5t-93.5 -73t-133.5 -27zM302 92q82 0 125 61t43 154q0 117 -100 117q-82 0 -125.5 -61t-43.5 -153
q0 -118 101 -118z" />
    <glyph glyph-name="oacute" unicode="&#xf3;" horiz-adv-x="566" 
d="M343 583l2 10l99 140h135l-2 -10l-144 -140h-90zM289 -9q-98 0 -152 56.5t-54 148.5q0 139 76.5 234t222.5 95q99 0 152 -57t53 -150q0 -66 -18 -123.5t-53 -103.5t-93.5 -73t-133.5 -27zM302 92q82 0 125 61t43 154q0 117 -100 117q-82 0 -125.5 -61t-43.5 -153
q0 -118 101 -118z" />
    <glyph glyph-name="ocircumflex" unicode="&#xf4;" horiz-adv-x="566" 
d="M240 585l2 10l126 136h133l71 -136l-2 -10h-95l-51 69h-4l-79 -69h-101zM289 -9q-98 0 -152 56.5t-54 148.5q0 139 76.5 234t222.5 95q99 0 152 -57t53 -150q0 -66 -18 -123.5t-53 -103.5t-93.5 -73t-133.5 -27zM302 92q82 0 125 61t43 154q0 117 -100 117
q-82 0 -125.5 -61t-43.5 -153q0 -118 101 -118z" />
    <glyph glyph-name="otilde" unicode="&#xf5;" horiz-adv-x="566" 
d="M454 592q-32 0 -63 20l-13 9q-19 14 -36 14q-14 0 -25.5 -11t-15.5 -30h-74l3 15q11 53 45 82t80 29q33 0 64 -20l13 -9q22 -13 36 -13q32 0 40 40h73l-3 -15q-11 -54 -43.5 -82.5t-80.5 -28.5zM289 -9q-98 0 -152 56.5t-54 148.5q0 139 76.5 234t222.5 95q99 0 152 -57
t53 -150q0 -66 -18 -123.5t-53 -103.5t-93.5 -73t-133.5 -27zM302 92q82 0 125 61t43 154q0 117 -100 117q-82 0 -125.5 -61t-43.5 -153q0 -118 101 -118z" />
    <glyph glyph-name="odieresis" unicode="&#xf6;" horiz-adv-x="566" 
d="M315 602q-53 0 -53 50q0 35 21.5 57.5t58.5 22.5q26 0 40 -13.5t14 -37.5q0 -35 -22 -57t-59 -22zM502 602q-53 0 -53 50q0 36 21 58t59 22q26 0 40 -13.5t14 -37.5q0 -35 -22 -57t-59 -22zM289 -9q-98 0 -152 56.5t-54 148.5q0 139 76.5 234t222.5 95q99 0 152 -57
t53 -150q0 -66 -18 -123.5t-53 -103.5t-93.5 -73t-133.5 -27zM302 92q82 0 125 61t43 154q0 117 -100 117q-82 0 -125.5 -61t-43.5 -153q0 -118 101 -118z" />
    <glyph glyph-name="divide" unicode="&#xf7;" horiz-adv-x="485" 
d="M328 420q-28 0 -42 14.5t-14 38.5q0 36 22 59t61 23q27 0 41.5 -14t14.5 -38q0 -36 -22.5 -59.5t-60.5 -23.5zM59 265l19 96h475l-20 -96h-474zM256 71q-54 0 -54 52q0 36 22 59.5t60 23.5q27 0 41.5 -14.5t14.5 -38.5q0 -35 -23 -58.5t-61 -23.5z" />
    <glyph glyph-name="oslash" unicode="&#xf8;" horiz-adv-x="566" 
d="M639 558l-2 -10l-85 -99q35 -51 35 -131q0 -87 -34 -160t-105 -120t-167 -47q-59 0 -103 22l-52 -60h-94l2 10l86 101q-37 52 -37 132q0 137 83 233t224 96q61 0 104 -23l48 56h97zM201 210q0 -23 5 -45l213 249q-20 10 -49 10q-82 0 -125.5 -61t-43.5 -153zM470 307
q0 25 -4 42l-212 -247q19 -10 48 -10q82 0 125 61t43 154z" />
    <glyph glyph-name="ugrave" unicode="&#xf9;" horiz-adv-x="578" 
d="M480 583h-90l-88 140l2 10h134l44 -140zM502 516h115l-66 -320q-19 -93 -82.5 -148.5t-176.5 -55.5q-107 0 -155 57t-30 147l65 320h113l-61 -302q-23 -117 85 -117t131 117z" />
    <glyph glyph-name="uacute" unicode="&#xfa;" horiz-adv-x="578" 
d="M586 723l-144 -140h-90l2 10l99 140h135zM502 516h115l-66 -320q-19 -93 -82.5 -148.5t-176.5 -55.5q-107 0 -155 57t-30 147l65 320h113l-61 -302q-23 -117 85 -117t131 117z" />
    <glyph glyph-name="ucircumflex" unicode="&#xfb;" horiz-adv-x="578" 
d="M429 654l-79 -69h-101l2 10l126 136h133l71 -136l-2 -10h-95l-51 69h-4zM502 516h115l-66 -320q-19 -93 -82.5 -148.5t-176.5 -55.5q-107 0 -155 57t-30 147l65 320h113l-61 -302q-23 -117 85 -117t131 117z" />
    <glyph glyph-name="udieresis" unicode="&#xfc;" horiz-adv-x="578" 
d="M324 602q-53 0 -53 50q0 35 21.5 57.5t58.5 22.5q26 0 40 -13.5t14 -37.5q0 -35 -22 -57t-59 -22zM511 602q-53 0 -53 50q0 36 21 58t59 22q26 0 40 -13.5t14 -37.5q0 -35 -22 -57t-59 -22zM502 516h115l-66 -320q-19 -93 -82.5 -148.5t-176.5 -55.5q-107 0 -155 57
t-30 147l65 320h113l-61 -302q-23 -117 85 -117t131 117z" />
    <glyph glyph-name="yacute" unicode="&#xfd;" horiz-adv-x="559" 
d="M352 583l2 10l99 140h135l-2 -10l-144 -140h-90zM100 -229l2 10l127 221l-12 3l-84 501l2 10h116l54 -388h4l215 388h124l-2 -10l-424 -735h-122z" />
    <glyph glyph-name="thorn" unicode="&#xfe;" horiz-adv-x="600" 
d="M445 525q91 0 135 -64.5t30 -174.5q-15 -127 -89.5 -211t-184.5 -84q-98 0 -133 71h-4l-59 -291h-114l152 745l46 224h114l-59 -286h4q62 71 162 71zM329 92q59 0 98.5 35t54 81t14.5 97q0 54 -24 86.5t-75 32.5q-55 0 -94.5 -33.5t-56.5 -80t-17 -98.5q0 -53 24.5 -86.5
t75.5 -33.5z" />
    <glyph glyph-name="ydieresis" unicode="&#xff;" horiz-adv-x="559" 
d="M324 602q-53 0 -53 50q0 35 21.5 57.5t58.5 22.5q26 0 40 -13.5t14 -37.5q0 -35 -22 -57t-59 -22zM511 602q-53 0 -53 50q0 36 21 58t59 22q26 0 40 -13.5t14 -37.5q0 -35 -22 -57t-59 -22zM100 -229l2 10l127 221l-12 3l-84 501l2 10h116l54 -388h4l215 388h124l-2 -10
l-424 -735h-122z" />
    <glyph glyph-name="Amacron" unicode="&#x100;" horiz-adv-x="691" 
d="M668 891l-19 -94h-281l19 94h281zM560 700l111 -690l-2 -10h-125l-22 162h-283l-87 -162h-131l2 10l390 690h147zM295 265h214l-42 312h-4z" />
    <glyph glyph-name="amacron" unicode="&#x101;" horiz-adv-x="582" 
d="M263 613l19 94h281l-19 -94h-281zM253 -9q-83 0 -126.5 57.5t-43.5 148.5q0 136 75.5 232t196.5 96q54 0 89.5 -20t49.5 -51h4l26 62h101l-105 -516h-101l1 62h-4q-59 -71 -163 -71zM301 92q76 0 121.5 67.5t45.5 148.5q0 53 -25 84.5t-75 31.5q-59 0 -98.5 -35t-54 -81
t-14.5 -97q0 -53 24.5 -86t75.5 -33z" />
    <glyph glyph-name="Abreve" unicode="&#x102;" horiz-adv-x="691" 
d="M505 769q-72 0 -106.5 39.5t-21.5 105.5h88q-8 -59 53 -59q63 0 76 59h88q-20 -145 -177 -145zM413 700h147l111 -690l-2 -10h-125l-22 162h-283l-87 -162h-131l2 10zM295 265h214l-42 312h-4z" />
    <glyph glyph-name="abreve" unicode="&#x103;" horiz-adv-x="582" 
d="M400 585q-72 0 -106.5 39.5t-21.5 105.5h88q-8 -59 53 -59q63 0 76 59h88q-20 -145 -177 -145zM253 -9q-83 0 -126.5 57.5t-43.5 148.5q0 136 75.5 232t196.5 96q54 0 89.5 -20t49.5 -51h4l26 62h101l-105 -516h-101l1 62h-4q-59 -71 -163 -71zM301 92q76 0 121.5 67.5
t45.5 148.5q0 53 -25 84.5t-75 31.5q-59 0 -98.5 -35t-54 -81t-14.5 -97q0 -53 24.5 -86t75.5 -33z" />
    <glyph glyph-name="Aogonek" unicode="&#x104;" horiz-adv-x="691" 
d="M669 0q-44 -18 -75 -44.5t-31 -60.5q0 -36 44 -36q18 0 34 4l-15 -76q-26 -8 -60 -8q-45 0 -75.5 22.5t-30.5 63.5q0 83 98 135h-14l-22 162h-283l-87 -162h-131l2 10l390 690h147l111 -690zM295 265h214l-42 312h-4z" />
    <glyph glyph-name="aogonek" unicode="&#x105;" horiz-adv-x="582" 
d="M520 0q-44 -18 -75 -44.5t-31 -60.5q0 -36 44 -36q18 0 34 4l-15 -76q-26 -8 -60 -8q-45 0 -75.5 22.5t-30.5 63.5q0 87 108 140l1 57h-4q-59 -71 -163 -71q-83 0 -126.5 57.5t-43.5 148.5q0 136 75.5 232t196.5 96q54 0 89.5 -20t49.5 -51h4l26 62h101zM301 92
q76 0 121.5 67.5t45.5 148.5q0 53 -25 84.5t-75 31.5q-59 0 -98.5 -35t-54 -81t-14.5 -97q0 -53 24.5 -86t75.5 -33z" />
    <glyph glyph-name="Cacute" unicode="&#x106;" horiz-adv-x="709" 
d="M466 767l2 10l99 140h135l-2 -10l-144 -140h-90zM369 -9q-125 0 -193.5 75.5t-68.5 199.5q0 122 46 221.5t138.5 160.5t215.5 61q128 0 194 -71.5t53 -184.5h-120q6 67 -29 107.5t-114 40.5q-66 0 -117.5 -28t-82 -74.5t-46.5 -102t-16 -115.5q0 -85 39.5 -134t120.5 -49
q77 0 129 38.5t73 103.5h119q-33 -114 -120.5 -181.5t-220.5 -67.5z" />
    <glyph glyph-name="cacute" unicode="&#x107;" horiz-adv-x="546" 
d="M346 583l2 10l99 140h135l-2 -10l-144 -140h-90zM283 -9q-97 0 -148 55t-51 150q0 142 79 235.5t218 93.5q105 0 153.5 -54t37.5 -143h-114q5 44 -18.5 70t-70.5 26q-82 0 -125 -62t-43 -153q0 -118 100 -118q48 0 82 25.5t48 70.5h114q-23 -90 -89 -143t-173 -53z" />
    <glyph glyph-name="Ccircumflex" unicode="&#x108;" horiz-adv-x="709" 
d="M363 769l2 10l126 136h133l71 -136l-2 -10h-95l-51 69h-4l-79 -69h-101zM369 -9q-125 0 -193.5 75.5t-68.5 199.5q0 122 46 221.5t138.5 160.5t215.5 61q128 0 194 -71.5t53 -184.5h-120q6 67 -29 107.5t-114 40.5q-66 0 -117.5 -28t-82 -74.5t-46.5 -102t-16 -115.5
q0 -85 39.5 -134t120.5 -49q77 0 129 38.5t73 103.5h119q-33 -114 -120.5 -181.5t-220.5 -67.5z" />
    <glyph glyph-name="ccircumflex" unicode="&#x109;" horiz-adv-x="546" 
d="M243 585l2 10l126 136h133l71 -136l-2 -10h-95l-51 69h-4l-79 -69h-101zM283 -9q-97 0 -148 55t-51 150q0 142 79 235.5t218 93.5q105 0 153.5 -54t37.5 -143h-114q5 44 -18.5 70t-70.5 26q-82 0 -125 -62t-43 -153q0 -118 100 -118q48 0 82 25.5t48 70.5h114
q-23 -90 -89 -143t-173 -53z" />
    <glyph glyph-name="Cdotaccent" unicode="&#x10a;" horiz-adv-x="709" 
d="M527 779q-60 0 -60 56q0 39 23.5 63t66.5 24q29 0 44.5 -14.5t15.5 -40.5q0 -39 -24.5 -63.5t-65.5 -24.5zM369 -9q-125 0 -193.5 75.5t-68.5 199.5q0 122 46 221.5t138.5 160.5t215.5 61q128 0 194 -71.5t53 -184.5h-120q6 67 -29 107.5t-114 40.5q-66 0 -117.5 -28
t-82 -74.5t-46.5 -102t-16 -115.5q0 -85 39.5 -134t120.5 -49q77 0 129 38.5t73 103.5h119q-33 -114 -120.5 -181.5t-220.5 -67.5z" />
    <glyph glyph-name="cdotaccent" unicode="&#x10b;" horiz-adv-x="546" 
d="M407 595q-60 0 -60 56q0 39 23.5 63t66.5 24q29 0 44.5 -14.5t15.5 -40.5q0 -39 -24.5 -63.5t-65.5 -24.5zM283 -9q-97 0 -148 55t-51 150q0 142 79 235.5t218 93.5q105 0 153.5 -54t37.5 -143h-114q5 44 -18.5 70t-70.5 26q-82 0 -125 -62t-43 -153q0 -118 100 -118
q48 0 82 25.5t48 70.5h114q-23 -90 -89 -143t-173 -53z" />
    <glyph glyph-name="Ccaron" unicode="&#x10c;" horiz-adv-x="709" 
d="M460 769l-70 136l2 10h93l51 -69h4l79 69h103l-2 -10l-126 -136h-134zM369 -9q-125 0 -193.5 75.5t-68.5 199.5q0 122 46 221.5t138.5 160.5t215.5 61q128 0 194 -71.5t53 -184.5h-120q6 67 -29 107.5t-114 40.5q-66 0 -117.5 -28t-82 -74.5t-46.5 -102t-16 -115.5
q0 -85 39.5 -134t120.5 -49q77 0 129 38.5t73 103.5h119q-33 -114 -120.5 -181.5t-220.5 -67.5z" />
    <glyph glyph-name="ccaron" unicode="&#x10d;" horiz-adv-x="546" 
d="M340 585l-70 136l2 10h93l51 -69h4l79 69h103l-2 -10l-126 -136h-134zM283 -9q-97 0 -148 55t-51 150q0 142 79 235.5t218 93.5q105 0 153.5 -54t37.5 -143h-114q5 44 -18.5 70t-70.5 26q-82 0 -125 -62t-43 -153q0 -118 100 -118q48 0 82 25.5t48 70.5h114
q-23 -90 -89 -143t-173 -53z" />
    <glyph glyph-name="Dcaron" unicode="&#x10e;" horiz-adv-x="704" 
d="M407 769l-70 136l2 10h93l51 -69h4l79 69h103l-2 -10l-126 -136h-134zM87 0l142 700h231q128 0 203 -76.5t75 -202.5q0 -115 -46 -209t-141.5 -153t-225.5 -59h-238zM221 105h115q130 0 205 89t75 215q0 86 -46 135.5t-135 49.5h-114z" />
    <glyph glyph-name="dcaron" unicode="&#x10f;" horiz-adv-x="583" 
d="M252 -9q-79 0 -124 56.5t-45 145.5q0 136 75 234t198 98q105 0 138 -71h4l59 286h114l-151 -740h-101l-1 62h-4q-62 -71 -162 -71zM685 570l35 170h118l-2 -10l-75 -160h-76zM301 92q80 0 124 65t44 150q0 53 -25 85t-77 32q-59 0 -98 -34.5t-53.5 -80.5t-14.5 -99
q0 -54 24.5 -86t75.5 -32z" />
    <glyph glyph-name="Dcroat" unicode="&#x110;" horiz-adv-x="751" 
d="M507 700q128 0 203 -76.5t75 -202.5q0 -115 -46 -209t-141.5 -153t-225.5 -59h-238l63 311h-71l21 102h71l58 287h231zM383 105q130 0 205 89t75 215q0 86 -46 135.5t-135 49.5h-114l-37 -181h173l-21 -102h-173l-42 -206h115z" />
    <glyph glyph-name="dcroat" unicode="&#x111;" horiz-adv-x="583" 
d="M718 671l-16 -80h-61l-121 -591h-101l-1 62h-4q-62 -71 -162 -71q-79 0 -124 56.5t-45 145.5q0 136 75 234t198 98q105 0 138 -71h4l28 137h-113l16 80h114l14 69h114l-14 -69h61zM301 92q80 0 124 65t44 150q0 53 -25 85t-77 32q-59 0 -98 -34.5t-53.5 -80.5t-14.5 -99
q0 -54 24.5 -86t75.5 -32z" />
    <glyph glyph-name="Emacron" unicode="&#x112;" horiz-adv-x="610" 
d="M356 797l19 94h281l-19 -94h-281zM87 0l142 700h472l-22 -106h-354l-36 -180h323l-22 -106h-323l-42 -203h355l-21 -105h-472z" />
    <glyph glyph-name="emacron" unicode="&#x113;" horiz-adv-x="554" 
d="M268 613l19 94h281l-19 -94h-281zM285 -9q-97 0 -149 58t-52 151q0 133 78.5 229t218.5 96q113 0 162.5 -70.5t26.5 -180.5l-10 -48h-359q-9 -64 15.5 -101.5t84.5 -37.5q93 0 126 70h112q-26 -74 -91.5 -120t-162.5 -46zM218 307h242q10 54 -12.5 87.5t-78.5 33.5
q-60 0 -98.5 -33.5t-52.5 -87.5z" />
    <glyph glyph-name="Ebreve" unicode="&#x114;" horiz-adv-x="610" 
d="M493 769q-72 0 -106.5 39.5t-21.5 105.5h88q-8 -59 53 -59q63 0 76 59h88q-20 -145 -177 -145zM87 0l142 700h472l-22 -106h-354l-36 -180h323l-22 -106h-323l-42 -203h355l-21 -105h-472z" />
    <glyph glyph-name="ebreve" unicode="&#x115;" horiz-adv-x="554" 
d="M405 585q-72 0 -106.5 39.5t-21.5 105.5h88q-8 -59 53 -59q63 0 76 59h88q-20 -145 -177 -145zM285 -9q-97 0 -149 58t-52 151q0 133 78.5 229t218.5 96q113 0 162.5 -70.5t26.5 -180.5l-10 -48h-359q-9 -64 15.5 -101.5t84.5 -37.5q93 0 126 70h112q-26 -74 -91.5 -120
t-162.5 -46zM218 307h242q10 54 -12.5 87.5t-78.5 33.5q-60 0 -98.5 -33.5t-52.5 -87.5z" />
    <glyph glyph-name="Edotaccent" unicode="&#x116;" horiz-adv-x="610" 
d="M490 779q-60 0 -60 56q0 39 23.5 63t66.5 24q29 0 44.5 -14.5t15.5 -40.5q0 -39 -24.5 -63.5t-65.5 -24.5zM87 0l142 700h472l-22 -106h-354l-36 -180h323l-22 -106h-323l-42 -203h355l-21 -105h-472z" />
    <glyph glyph-name="edotaccent" unicode="&#x117;" horiz-adv-x="554" 
d="M402 595q-60 0 -60 56q0 39 23.5 63t66.5 24q29 0 44.5 -14.5t15.5 -40.5q0 -39 -24.5 -63.5t-65.5 -24.5zM285 -9q-97 0 -149 58t-52 151q0 133 78.5 229t218.5 96q113 0 162.5 -70.5t26.5 -180.5l-10 -48h-359q-9 -64 15.5 -101.5t84.5 -37.5q93 0 126 70h112
q-26 -74 -91.5 -120t-162.5 -46zM218 307h242q10 54 -12.5 87.5t-78.5 33.5q-60 0 -98.5 -33.5t-52.5 -87.5z" />
    <glyph glyph-name="Eogonek" unicode="&#x118;" horiz-adv-x="610" 
d="M679 594h-354l-36 -180h323l-22 -106h-323l-42 -203h355l-21 -105h-3q-44 -18 -75 -44.5t-31 -60.5q0 -36 44 -36q18 0 34 4l-15 -76q-26 -8 -60 -8q-45 0 -75.5 22.5t-30.5 63.5q0 83 98 135h-358l142 700h472z" />
    <glyph glyph-name="eogonek" unicode="&#x119;" horiz-adv-x="554" 
d="M381 525q113 0 162.5 -70.5t26.5 -180.5l-10 -48h-359q-9 -64 15.5 -101.5t84.5 -37.5q93 0 126 70h112q-21 -60 -69 -103t-118 -57q-100 -41 -100 -102q0 -36 44 -36q18 0 34 4l-15 -76q-26 -8 -60 -8q-45 0 -75.5 22.5t-30.5 63.5q0 79 89 130q-75 14 -114.5 69.5
t-39.5 135.5q0 133 78.5 229t218.5 96zM460 307q10 54 -12.5 87.5t-78.5 33.5q-60 0 -98.5 -33.5t-52.5 -87.5h242z" />
    <glyph glyph-name="Ecaron" unicode="&#x11a;" horiz-adv-x="610" 
d="M423 769l-70 136l2 10h93l51 -69h4l79 69h103l-2 -10l-126 -136h-134zM87 0l142 700h472l-22 -106h-354l-36 -180h323l-22 -106h-323l-42 -203h355l-21 -105h-472z" />
    <glyph glyph-name="ecaron" unicode="&#x11b;" horiz-adv-x="554" 
d="M335 585l-70 136l2 10h93l51 -69h4l79 69h103l-2 -10l-126 -136h-134zM285 -9q-97 0 -149 58t-52 151q0 133 78.5 229t218.5 96q113 0 162.5 -70.5t26.5 -180.5l-10 -48h-359q-9 -64 15.5 -101.5t84.5 -37.5q93 0 126 70h112q-26 -74 -91.5 -120t-162.5 -46zM218 307h242
q10 54 -12.5 87.5t-78.5 33.5q-60 0 -98.5 -33.5t-52.5 -87.5z" />
    <glyph glyph-name="Gcircumflex" unicode="&#x11c;" horiz-adv-x="718" 
d="M362 769l2 10l126 136h133l71 -136l-2 -10h-95l-51 69h-4l-79 -69h-101zM372 -9q-128 0 -196.5 75t-68.5 199q0 122 45 221.5t136.5 161t214.5 61.5q128 0 196.5 -68t57.5 -174h-120q4 60 -32 97t-115 37q-86 0 -147 -49.5t-87.5 -120.5t-26.5 -152q0 -83 39 -132
t119 -49q88 0 143 47t75 123h-163l21 104h284l-14 -67q-30 -147 -122.5 -230.5t-238.5 -83.5z" />
    <glyph glyph-name="gcircumflex" unicode="&#x11d;" horiz-adv-x="583" 
d="M235 585l2 10l126 136h133l71 -136l-2 -10h-95l-51 69h-4l-79 -69h-101zM235 -238q-101 0 -153.5 50.5t-38.5 131.5h111q-4 -35 21 -59.5t77 -24.5q61 0 99.5 31.5t48.5 82.5l18 88h-4q-62 -71 -162 -71q-79 0 -124 56.5t-45 145.5q0 136 75 234t198 98q105 0 138 -71h4
l26 62h101l-111 -544q-20 -98 -89 -154t-190 -56zM301 92q56 0 95 34t55.5 81t16.5 99q0 54 -24.5 86t-76.5 32q-84 0 -125 -64t-41 -150q0 -118 100 -118z" />
    <glyph glyph-name="Gbreve" unicode="&#x11e;" horiz-adv-x="718" 
d="M529 769q-72 0 -106.5 39.5t-21.5 105.5h88q-8 -59 53 -59q63 0 76 59h88q-20 -145 -177 -145zM372 -9q-128 0 -196.5 75t-68.5 199q0 122 45 221.5t136.5 161t214.5 61.5q128 0 196.5 -68t57.5 -174h-120q4 60 -32 97t-115 37q-86 0 -147 -49.5t-87.5 -120.5t-26.5 -152
q0 -83 39 -132t119 -49q88 0 143 47t75 123h-163l21 104h284l-14 -67q-30 -147 -122.5 -230.5t-238.5 -83.5z" />
    <glyph glyph-name="gbreve" unicode="&#x11f;" horiz-adv-x="583" 
d="M402 585q-72 0 -106.5 39.5t-21.5 105.5h88q-8 -59 53 -59q63 0 76 59h88q-20 -145 -177 -145zM235 -238q-101 0 -153.5 50.5t-38.5 131.5h111q-4 -35 21 -59.5t77 -24.5q61 0 99.5 31.5t48.5 82.5l18 88h-4q-62 -71 -162 -71q-79 0 -124 56.5t-45 145.5q0 136 75 234
t198 98q105 0 138 -71h4l26 62h101l-111 -544q-20 -98 -89 -154t-190 -56zM301 92q56 0 95 34t55.5 81t16.5 99q0 54 -24.5 86t-76.5 32q-84 0 -125 -64t-41 -150q0 -118 100 -118z" />
    <glyph glyph-name="Gdotaccent" unicode="&#x120;" horiz-adv-x="718" 
d="M526 779q-60 0 -60 56q0 39 23.5 63t66.5 24q29 0 44.5 -14.5t15.5 -40.5q0 -39 -24.5 -63.5t-65.5 -24.5zM372 -9q-128 0 -196.5 75t-68.5 199q0 122 45 221.5t136.5 161t214.5 61.5q128 0 196.5 -68t57.5 -174h-120q4 60 -32 97t-115 37q-86 0 -147 -49.5t-87.5 -120.5
t-26.5 -152q0 -83 39 -132t119 -49q88 0 143 47t75 123h-163l21 104h284l-14 -67q-30 -147 -122.5 -230.5t-238.5 -83.5z" />
    <glyph glyph-name="gdotaccent" unicode="&#x121;" horiz-adv-x="583" 
d="M399 595q-60 0 -60 56q0 39 23.5 63t66.5 24q29 0 44.5 -14.5t15.5 -40.5q0 -39 -24.5 -63.5t-65.5 -24.5zM235 -238q-101 0 -153.5 50.5t-38.5 131.5h111q-4 -35 21 -59.5t77 -24.5q61 0 99.5 31.5t48.5 82.5l18 88h-4q-62 -71 -162 -71q-79 0 -124 56.5t-45 145.5
q0 136 75 234t198 98q105 0 138 -71h4l26 62h101l-111 -544q-20 -98 -89 -154t-190 -56zM301 92q56 0 95 34t55.5 81t16.5 99q0 54 -24.5 86t-76.5 32q-84 0 -125 -64t-41 -150q0 -118 100 -118z" />
    <glyph glyph-name="Gcommaaccent" unicode="&#x122;" horiz-adv-x="718" 
d="M372 -9q-128 0 -196.5 75t-68.5 199q0 122 45 221.5t136.5 161t214.5 61.5q128 0 196.5 -68t57.5 -174h-120q4 60 -32 97t-115 37q-86 0 -147 -49.5t-87.5 -120.5t-26.5 -152q0 -83 39 -132t119 -49q88 0 143 47t75 123h-163l21 104h284l-14 -67q-30 -147 -122.5 -230.5
t-238.5 -83.5zM253 -214l2 10l51 153h118l-2 -10l-90 -153h-79z" />
    <glyph glyph-name="gcommaaccent" unicode="&#x123;" horiz-adv-x="583" 
d="M496 740l-2 -10l-51 -153h-118l2 10l90 153h79zM235 -238q-101 0 -153.5 50.5t-38.5 131.5h111q-4 -35 21 -59.5t77 -24.5q61 0 99.5 31.5t48.5 82.5l18 88h-4q-62 -71 -162 -71q-79 0 -124 56.5t-45 145.5q0 136 75 234t198 98q105 0 138 -71h4l26 62h101l-111 -544
q-20 -98 -89 -154t-190 -56zM301 92q56 0 95 34t55.5 81t16.5 99q0 54 -24.5 86t-76.5 32q-84 0 -125 -64t-41 -150q0 -118 100 -118z" />
    <glyph glyph-name="Hcircumflex" unicode="&#x124;" horiz-adv-x="735" 
d="M539 838l-79 -69h-101l2 10l126 136h133l71 -136l-2 -10h-95l-51 69h-4zM673 700h117l-142 -700h-117l62 308h-327l-62 -308h-117l142 700h117l-58 -285h327z" />
    <glyph glyph-name="hcircumflex" unicode="&#x125;" horiz-adv-x="591" 
d="M130 792l2 10l126 136h133l71 -136l-2 -10h-95l-51 69h-4l-79 -69h-101zM73 0l151 740h114l-60 -291h4q64 76 166 76q86 0 126.5 -50.5t22.5 -137.5l-69 -337h-114l63 309q22 113 -83 113q-54 0 -95 -37t-54 -101l-58 -284h-114z" />
    <glyph glyph-name="Hbar" unicode="&#x126;" horiz-adv-x="778" 
d="M849 615l-19 -97h-55l-105 -518h-117l62 308h-327l-62 -308h-117l105 518h-56l19 97h57l17 85h117l-17 -85h327l17 85h117l-17 -85h54zM637 415l21 103h-327l-21 -103h327z" />
    <glyph glyph-name="hbar" unicode="&#x127;" horiz-adv-x="591" 
d="M448 525q86 0 126.5 -50.5t22.5 -137.5l-69 -337h-114l63 309q22 113 -83 113q-54 0 -95 -37t-54 -101l-58 -284h-114l121 591h-63l16 80h63l14 69h114l-14 -69h113l-16 -80h-114l-29 -142h4q64 76 166 76z" />
    <glyph glyph-name="Itilde" unicode="&#x128;" horiz-adv-x="292" 
d="M355 776q-32 0 -63 20l-13 9q-19 14 -36 14q-14 0 -25.5 -11t-15.5 -30h-74l3 15q11 53 45 82t80 29q33 0 64 -20l13 -9q22 -13 36 -13q32 0 40 40h73l-3 -15q-11 -54 -43.5 -82.5t-80.5 -28.5zM87 0l142 700h118l-142 -700h-118z" />
    <glyph glyph-name="itilde" unicode="&#x129;" 
d="M301 592q-32 0 -63 20l-13 9q-19 14 -36 14q-14 0 -25.5 -11t-15.5 -30h-74l3 15q11 53 45 82t80 29q33 0 64 -20l13 -9q22 -13 36 -13q32 0 40 40h73l-3 -15q-11 -54 -43.5 -82.5t-80.5 -28.5zM73 0l105 516h114l-105 -516h-114z" />
    <glyph glyph-name="Imacron" unicode="&#x12a;" horiz-adv-x="292" 
d="M171 797l19 94h281l-19 -94h-281zM87 0l142 700h118l-142 -700h-118z" />
    <glyph glyph-name="imacron" unicode="&#x12b;" 
d="M117 613l19 94h281l-19 -94h-281zM73 0l105 516h114l-105 -516h-114z" />
    <glyph glyph-name="Ibreve" unicode="&#x12c;" horiz-adv-x="292" 
d="M308 769q-72 0 -106.5 39.5t-21.5 105.5h88q-8 -59 53 -59q63 0 76 59h88q-20 -145 -177 -145zM87 0l142 700h118l-142 -700h-118z" />
    <glyph glyph-name="ibreve" unicode="&#x12d;" 
d="M254 585q-72 0 -106.5 39.5t-21.5 105.5h88q-8 -59 53 -59q63 0 76 59h88q-20 -145 -177 -145zM73 0l105 516h114l-105 -516h-114z" />
    <glyph glyph-name="Iogonek" unicode="&#x12e;" horiz-adv-x="292" 
d="M205 0q-44 -18 -75 -44.5t-31 -60.5q0 -36 44 -36q18 0 34 4l-15 -76q-26 -8 -60 -8q-45 0 -75.5 22.5t-30.5 63.5q0 83 98 135h-7l142 700h118z" />
    <glyph glyph-name="iogonek" unicode="&#x12f;" 
d="M281 738q29 0 44.5 -14.5t15.5 -40.5q0 -39 -24.5 -63.5t-65.5 -24.5q-60 0 -60 56q0 39 23.5 63t66.5 24zM73 0l105 516h114l-105 -516q-44 -18 -75 -44.5t-31 -60.5q0 -36 44 -36q18 0 34 4l-15 -76q-26 -8 -60 -8q-45 0 -75.5 22.5t-30.5 63.5q0 83 98 135h-3z" />
    <glyph glyph-name="Idotaccent" unicode="&#x130;" horiz-adv-x="292" 
d="M305 779q-60 0 -60 56q0 39 23.5 63t66.5 24q29 0 44.5 -14.5t15.5 -40.5q0 -39 -24.5 -63.5t-65.5 -24.5zM87 0l142 700h118l-142 -700h-118z" />
    <glyph glyph-name="dotlessi" unicode="&#x131;" 
d="M73 0l105 516h114l-105 -516h-114z" />
    <glyph glyph-name="IJ" unicode="&#x132;" horiz-adv-x="830" 
d="M87 0l142 700h118l-142 -700h-118zM532 -9q-102 0 -149 59.5t-28 153.5h112q-10 -48 12 -76t73 -28q52 0 84 29.5t42 80.5l100 490h118l-100 -490q-20 -101 -86.5 -160t-177.5 -59z" />
    <glyph glyph-name="ij" unicode="&#x133;" horiz-adv-x="509" 
d="M251 595q-60 0 -60 56q0 39 23.5 63t66.5 24q60 0 60 -55q0 -39 -24 -63.5t-66 -24.5zM511 595q-60 0 -60 56q0 39 23.5 63t66.5 24q60 0 60 -55q0 -39 -24 -63.5t-66 -24.5zM73 0l105 516h114l-105 -516h-114zM237 -238q-31 0 -55 7l20 100q20 -3 38 -3q64 0 80 73
l117 577h115l-121 -593q-16 -80 -66 -120.5t-128 -40.5z" />
    <glyph glyph-name="Jcircumflex" unicode="&#x134;" horiz-adv-x="538" 
d="M392 769l2 10l126 136h133l71 -136l-2 -10h-95l-51 69h-4l-79 -69h-101zM240 -9q-102 0 -149 59.5t-28 153.5h112q-10 -48 12 -76t73 -28q52 0 84 29.5t42 80.5l100 490h118l-100 -490q-20 -101 -86.5 -160t-177.5 -59z" />
    <glyph glyph-name="jcircumflex" unicode="&#x135;" horiz-adv-x="259" 
d="M94 585l2 10l126 136h133l71 -136l-2 -10h-95l-51 69h-4l-79 -69h-101zM-17 -238q-27 0 -51 7l20 100q19 -3 38 -3q64 0 80 73l117 577h115l-121 -593q-16 -79 -68 -120t-130 -41z" />
    <glyph glyph-name="Kcommaaccent" unicode="&#x136;" horiz-adv-x="650" 
d="M771 700l-2 -10l-379 -330l252 -350l-2 -10h-132l-236 334l-68 -334h-117l142 700h117l-61 -301l346 301h140zM235 -204l51 153h118l-2 -10l-90 -153h-79z" />
    <glyph glyph-name="kcommaaccent" unicode="&#x137;" horiz-adv-x="535" 
d="M616 516l-2 -10l-262 -232l169 -264l-2 -10h-122l-162 255l-52 -255h-110l151 740h110l-88 -433l229 209h141zM165 -204l51 153h118l-2 -10l-90 -153h-79z" />
    <glyph glyph-name="kgreenlandic" unicode="&#x138;" horiz-adv-x="535" 
d="M616 516l-2 -10l-256 -229l163 -267l-2 -10h-135l-151 250l-50 -250h-110l105 516h109l-43 -215l238 215h134z" />
    <glyph glyph-name="Lacute" unicode="&#x139;" horiz-adv-x="552" 
d="M242 767l2 10l99 140h135l-2 -10l-144 -140h-90zM87 0l142 700h117l-121 -594h330l-21 -106h-447z" />
    <glyph glyph-name="lacute" unicode="&#x13a;" 
d="M231 790l2 10l99 140h135l-2 -10l-144 -140h-90zM73 0l151 740h114l-151 -740h-114z" />
    <glyph glyph-name="Lcommaaccent" unicode="&#x13b;" horiz-adv-x="552" 
d="M87 0l142 700h117l-121 -594h330l-21 -106h-447zM190 -214l2 10l51 153h118l-2 -10l-90 -153h-79z" />
    <glyph glyph-name="lcommaaccent" unicode="&#x13c;" 
d="M73 0l151 740h114l-151 -740h-114zM7 -214l2 10l51 153h118l-2 -10l-90 -153h-79z" />
    <glyph glyph-name="Lcaron" unicode="&#x13d;" horiz-adv-x="552" 
d="M87 0l142 700h117l-121 -594h330l-21 -106h-447zM432 530l34 170h118l-2 -10l-73 -160h-77z" />
    <glyph glyph-name="lcaron" unicode="&#x13e;" horiz-adv-x="291" 
d="M73 0l151 740h114l-151 -740h-114zM352 570l35 170h118l-2 -10l-74 -160h-77z" />
    <glyph glyph-name="Ldot" unicode="&#x13f;" horiz-adv-x="600" 
d="M87 0l142 700h117l-121 -594h330l-21 -106h-447zM440 296q-60 0 -60 57q0 39 24 64t66 25q29 0 44 -15.5t15 -41.5q0 -39 -24.5 -64t-64.5 -25z" />
    <glyph glyph-name="ldot" unicode="&#x140;" horiz-adv-x="403" 
d="M73 0l151 740h114l-151 -740h-114zM357 296q-60 0 -60 57q0 39 24 64t66 25q29 0 44 -15.5t15 -41.5q0 -39 -24.5 -64t-64.5 -25z" />
    <glyph glyph-name="Lslash" unicode="&#x141;" horiz-adv-x="622" 
d="M295 106h330l-21 -106h-447l51 253l-64 -23h-10l20 99l75 27l70 344h117l-61 -298l191 69h10l-21 -100l-201 -72z" />
    <glyph glyph-name="lslash" unicode="&#x142;" horiz-adv-x="357" 
d="M419 463l-19 -97l-98 -43l-66 -323h-114l55 268l-78 -34h-10l19 95l89 40l76 371h114l-64 -315l86 38h10z" />
    <glyph glyph-name="Nacute" unicode="&#x143;" horiz-adv-x="743" 
d="M487 767l2 10l99 140h135l-2 -10l-144 -140h-90zM87 0l142 700h125l219 -514h4l105 514h116l-142 -700h-126l-220 511h-4l-104 -511h-115z" />
    <glyph glyph-name="nacute" unicode="&#x144;" horiz-adv-x="587" 
d="M385 583l2 10l99 140h135l-2 -10l-144 -140h-90zM73 0l105 516h101l-5 -67h4q64 76 167 76q86 0 126 -50t22 -138l-69 -337h-114l63 309q22 113 -82 113q-54 0 -93.5 -36.5t-52.5 -100.5l-58 -285h-114z" />
    <glyph glyph-name="Ncommaaccent" unicode="&#x145;" horiz-adv-x="743" 
d="M87 0l142 700h125l219 -514h4l105 514h116l-142 -700h-126l-220 511h-4l-104 -511h-115zM246 -214l2 10l51 153h118l-2 -10l-90 -153h-79z" />
    <glyph glyph-name="ncommaaccent" unicode="&#x146;" horiz-adv-x="587" 
d="M73 0l105 516h101l-5 -67h4q64 76 167 76q86 0 126 -50t22 -138l-69 -337h-114l63 309q22 113 -82 113q-54 0 -93.5 -36.5t-52.5 -100.5l-58 -285h-114zM184 -214l2 10l51 153h118l-2 -10l-90 -153h-79z" />
    <glyph glyph-name="Ncaron" unicode="&#x147;" horiz-adv-x="743" 
d="M481 769l-70 136l2 10h93l51 -69h4l79 69h103l-2 -10l-126 -136h-134zM87 0l142 700h125l219 -514h4l105 514h116l-142 -700h-126l-220 511h-4l-104 -511h-115z" />
    <glyph glyph-name="ncaron" unicode="&#x148;" horiz-adv-x="587" 
d="M379 585l-70 136l2 10h93l51 -69h4l79 69h103l-2 -10l-126 -136h-134zM73 0l105 516h101l-5 -67h4q64 76 167 76q86 0 126 -50t22 -138l-69 -337h-114l63 309q22 113 -82 113q-54 0 -93.5 -36.5t-52.5 -100.5l-58 -285h-114z" />
    <glyph glyph-name="napostrophe" unicode="&#x149;" horiz-adv-x="600" 
d="M14 463l2 10l79 235h129l-2 -10l-118 -235h-90zM73 0l105 516h101l-5 -67h4q64 76 167 76q86 0 126 -50t22 -138l-69 -337h-114l63 309q22 113 -82 113q-54 0 -93.5 -36.5t-52.5 -100.5l-58 -285h-114z" />
    <glyph glyph-name="Eng" unicode="&#x14a;" horiz-adv-x="743" 
d="M798 700l-47 -230h1l-100 -490q-20 -98 -91.5 -158.5t-175.5 -60.5l22 109q52 0 85.5 30t43.5 80l4 20h-19l-211 511h-4l-104 -511h-115l142 700h134l210 -514h4l105 514h116z" />
    <glyph glyph-name="eng" unicode="&#x14b;" horiz-adv-x="587" 
d="M445 525q86 0 126 -50t22 -138l-36 -178l-32 -155l-1 -4l-16 -77q-16 -79 -67 -120t-130 -41q-26 0 -52 7l20 100q20 -3 38 -3q66 0 80 73l45 220l31 150q22 113 -82 113q-54 0 -93.5 -36.5t-52.5 -100.5l-58 -285h-114l105 516h101l-5 -67h4q64 76 167 76z" />
    <glyph glyph-name="Omacron" unicode="&#x14c;" horiz-adv-x="740" 
d="M397 797l19 94h281l-19 -94h-281zM372 -9q-130 0 -197.5 76.5t-67.5 198.5q0 84 25 161.5t73.5 141.5t127 102t177.5 38q129 0 197 -76t68 -199q0 -83 -26 -161.5t-75 -141.5t-127.5 -101.5t-174.5 -38.5zM390 99q67 0 119 29t82.5 76.5t46 102t15.5 111.5
q0 84 -39.5 133.5t-121.5 49.5q-68 0 -120.5 -29.5t-82.5 -77t-45 -102t-15 -110.5q0 -84 39.5 -133.5t121.5 -49.5z" />
    <glyph glyph-name="omacron" unicode="&#x14d;" horiz-adv-x="566" 
d="M270 613l19 94h281l-19 -94h-281zM289 -9q-98 0 -152 56.5t-54 148.5q0 139 76.5 234t222.5 95q99 0 152 -57t53 -150q0 -66 -18 -123.5t-53 -103.5t-93.5 -73t-133.5 -27zM302 92q82 0 125 61t43 154q0 117 -100 117q-82 0 -125.5 -61t-43.5 -153q0 -118 101 -118z" />
    <glyph glyph-name="Obreve" unicode="&#x14e;" horiz-adv-x="740" 
d="M534 769q-72 0 -106.5 39.5t-21.5 105.5h88q-8 -59 53 -59q63 0 76 59h88q-20 -145 -177 -145zM372 -9q-130 0 -197.5 76.5t-67.5 198.5q0 84 25 161.5t73.5 141.5t127 102t177.5 38q129 0 197 -76t68 -199q0 -83 -26 -161.5t-75 -141.5t-127.5 -101.5t-174.5 -38.5z
M390 99q67 0 119 29t82.5 76.5t46 102t15.5 111.5q0 84 -39.5 133.5t-121.5 49.5q-68 0 -120.5 -29.5t-82.5 -77t-45 -102t-15 -110.5q0 -84 39.5 -133.5t121.5 -49.5z" />
    <glyph glyph-name="obreve" unicode="&#x14f;" horiz-adv-x="566" 
d="M407 585q-72 0 -106.5 39.5t-21.5 105.5h88q-8 -59 53 -59q63 0 76 59h88q-20 -145 -177 -145zM289 -9q-98 0 -152 56.5t-54 148.5q0 139 76.5 234t222.5 95q99 0 152 -57t53 -150q0 -66 -18 -123.5t-53 -103.5t-93.5 -73t-133.5 -27zM302 92q82 0 125 61t43 154
q0 117 -100 117q-82 0 -125.5 -61t-43.5 -153q0 -118 101 -118z" />
    <glyph glyph-name="Ohungarumlaut" unicode="&#x150;" horiz-adv-x="740" 
d="M393 767l2 10l75 140h130l-2 -10l-126 -140h-79zM557 767l2 10l79 140h130l-2 -10l-130 -140h-79zM372 -9q-130 0 -197.5 76.5t-67.5 198.5q0 84 25 161.5t73.5 141.5t127 102t177.5 38q129 0 197 -76t68 -199q0 -83 -26 -161.5t-75 -141.5t-127.5 -101.5t-174.5 -38.5z
M390 99q67 0 119 29t82.5 76.5t46 102t15.5 111.5q0 84 -39.5 133.5t-121.5 49.5q-68 0 -120.5 -29.5t-82.5 -77t-45 -102t-15 -110.5q0 -84 39.5 -133.5t121.5 -49.5z" />
    <glyph glyph-name="ohungarumlaut" unicode="&#x151;" horiz-adv-x="566" 
d="M266 583l2 10l75 140h130l-2 -10l-126 -140h-79zM430 583l2 10l79 140h130l-2 -10l-130 -140h-79zM289 -9q-98 0 -152 56.5t-54 148.5q0 139 76.5 234t222.5 95q99 0 152 -57t53 -150q0 -66 -18 -123.5t-53 -103.5t-93.5 -73t-133.5 -27zM302 92q82 0 125 61t43 154
q0 117 -100 117q-82 0 -125.5 -61t-43.5 -153q0 -118 101 -118z" />
    <glyph glyph-name="OE" unicode="&#x152;" horiz-adv-x="1097" 
d="M1166 594h-354l-36 -180h323l-22 -106h-323l-42 -203h355l-21 -105h-472l10 52q-92 -61 -216 -61q-130 0 -195.5 76t-65.5 199q0 86 26.5 164.5t76 141.5t128.5 100t176 37q123 0 189 -72l13 63h472zM390 99q92 0 152.5 49.5t88.5 130.5l21 104q1 12 1 35
q0 84 -39.5 133.5t-121.5 49.5q-55 0 -100 -19t-74.5 -50t-50 -72.5t-29.5 -86t-9 -91.5q0 -84 39.5 -133.5t121.5 -49.5z" />
    <glyph glyph-name="oe" unicode="&#x153;" horiz-adv-x="926" 
d="M760 525q110 0 157.5 -70.5t24.5 -180.5l-10 -48h-356l-3 -13q-9 -58 16 -92t83 -34q94 0 127 70h112q-25 -72 -96 -119t-162 -47q-112 0 -162 81q-81 -81 -210 -81q-98 0 -148 56t-50 149q0 137 83 233t224 96q114 0 165 -80q80 80 205 80zM832 307q10 54 -12.5 87.5
t-79.5 33.5q-59 0 -96.5 -33.5t-51.5 -87.5h240zM302 92q63 0 103.5 37.5t55.5 100.5q4 36 8 52q1 8 1 25q0 117 -100 117q-82 0 -125.5 -61t-43.5 -153q0 -118 101 -118z" />
    <glyph glyph-name="Racute" unicode="&#x154;" horiz-adv-x="670" 
d="M670 907l-144 -140h-90l2 10l99 140h135zM716 524q0 -92 -52.5 -158.5t-139.5 -90.5l124 -265l-2 -10h-130l-117 264h-141l-54 -264h-117l142 700h296q91 0 141 -49.5t50 -126.5zM325 594l-45 -224h166q68 0 107 39t39 98q0 40 -24 63.5t-71 23.5h-172z" />
    <glyph glyph-name="racute" unicode="&#x155;" horiz-adv-x="390" 
d="M276 583l2 10l99 140h135l-2 -10l-144 -140h-90zM73 0l105 516h96l-7 -82h4q25 41 65 65t87 24h47l-26 -106h-44q-65 0 -108 -43t-59 -122l-50 -252h-110z" />
    <glyph glyph-name="Rcommaaccent" unicode="&#x156;" horiz-adv-x="670" 
d="M716 524q0 -92 -52.5 -158.5t-139.5 -90.5l124 -265l-2 -10h-130l-117 264h-141l-54 -264h-117l142 700h296q91 0 141 -49.5t50 -126.5zM325 594l-45 -224h166q68 0 107 39t39 98q0 40 -24 63.5t-71 23.5h-172zM236 -204l51 153h118l-2 -10l-90 -153h-79z" />
    <glyph glyph-name="rcommaaccent" unicode="&#x157;" horiz-adv-x="390" 
d="M73 0l105 516h96l-7 -82h4q25 41 65 65t87 24h47l-26 -106h-44q-65 0 -108 -43t-59 -122l-50 -252h-110zM38 -214l2 10l51 153h118l-2 -10l-90 -153h-79z" />
    <glyph glyph-name="Rcaron" unicode="&#x158;" horiz-adv-x="670" 
d="M564 769h-134l-70 136l2 10h93l51 -69h4l79 69h103l-2 -10zM716 524q0 -92 -52.5 -158.5t-139.5 -90.5l124 -265l-2 -10h-130l-117 264h-141l-54 -264h-117l142 700h296q91 0 141 -49.5t50 -126.5zM325 594l-45 -224h166q68 0 107 39t39 98q0 40 -24 63.5t-71 23.5h-172z
" />
    <glyph glyph-name="rcaron" unicode="&#x159;" horiz-adv-x="390" 
d="M270 585l-70 136l2 10h93l51 -69h4l79 69h103l-2 -10l-126 -136h-134zM73 0l105 516h96l-7 -82h4q25 41 65 65t87 24h47l-26 -106h-44q-65 0 -108 -43t-59 -122l-50 -252h-110z" />
    <glyph glyph-name="Sacute" unicode="&#x15a;" horiz-adv-x="632" 
d="M414 767l2 10l99 140h135l-2 -10l-144 -140h-90zM317 -9q-130 0 -191 62.5t-43 169.5h119q-9 -61 25.5 -94t106.5 -33q85 0 131 31t46 86q0 62 -90 82l-98 22q-164 36 -164 165q0 103 78 165t217 62q117 0 180 -60.5t44 -156.5h-119q7 51 -22.5 81t-99.5 30
q-74 0 -113.5 -27.5t-39.5 -75.5q0 -56 86 -75l91 -20q174 -37 174 -170q0 -109 -79.5 -176.5t-238.5 -67.5z" />
    <glyph glyph-name="sacute" unicode="&#x15b;" horiz-adv-x="511" 
d="M318 583l2 10l99 140h135l-2 -10l-144 -140h-90zM256 -9q-102 0 -149.5 49t-32.5 132h114q-8 -38 15.5 -60.5t72.5 -22.5q53 0 82.5 18t29.5 49q0 41 -56 52l-85 17q-54 11 -86.5 42.5t-32.5 81.5q0 79 58 127.5t171 48.5q93 0 141.5 -47t33.5 -122h-112q6 36 -15 56.5
t-65 20.5t-71 -18t-27 -49q0 -38 57 -49l84 -16q60 -13 91 -41.5t31 -81.5q0 -90 -66 -138.5t-183 -48.5z" />
    <glyph glyph-name="Scircumflex" unicode="&#x15c;" horiz-adv-x="632" 
d="M311 769l2 10l126 136h133l71 -136l-2 -10h-95l-51 69h-4l-79 -69h-101zM317 -9q-130 0 -191 62.5t-43 169.5h119q-9 -61 25.5 -94t106.5 -33q85 0 131 31t46 86q0 62 -90 82l-98 22q-164 36 -164 165q0 103 78 165t217 62q117 0 180 -60.5t44 -156.5h-119q7 51 -22.5 81
t-99.5 30q-74 0 -113.5 -27.5t-39.5 -75.5q0 -56 86 -75l91 -20q174 -37 174 -170q0 -109 -79.5 -176.5t-238.5 -67.5z" />
    <glyph glyph-name="scircumflex" unicode="&#x15d;" horiz-adv-x="511" 
d="M215 585l2 10l126 136h133l71 -136l-2 -10h-95l-51 69h-4l-79 -69h-101zM256 -9q-102 0 -149.5 49t-32.5 132h114q-8 -38 15.5 -60.5t72.5 -22.5q53 0 82.5 18t29.5 49q0 41 -56 52l-85 17q-54 11 -86.5 42.5t-32.5 81.5q0 79 58 127.5t171 48.5q93 0 141.5 -47
t33.5 -122h-112q6 36 -15 56.5t-65 20.5t-71 -18t-27 -49q0 -38 57 -49l84 -16q60 -13 91 -41.5t31 -81.5q0 -90 -66 -138.5t-183 -48.5z" />
    <glyph glyph-name="Scedilla" unicode="&#x15e;" horiz-adv-x="632" 
d="M678 492h-119q7 51 -22.5 81t-99.5 30q-74 0 -113.5 -27.5t-39.5 -75.5q0 -56 86 -75l91 -20q174 -37 174 -170q0 -102 -70 -168t-210 -75l-29 -34q37 -1 59 -20.5t22 -51.5q0 -45 -40 -76.5t-110 -31.5q-53 0 -82.5 25t-20.5 70h73q-3 -14 8 -23t33 -9q23 0 38.5 9.5
t15.5 27.5q0 26 -39 26h-32l-18 31l41 58q-109 10 -158 71t-33 159h119q-9 -61 25.5 -94t106.5 -33q85 0 131 31t46 86q0 62 -90 82l-98 22q-164 36 -164 165q0 103 78 165t217 62q117 0 180 -60.5t44 -156.5z" />
    <glyph glyph-name="scedilla" unicode="&#x15f;" horiz-adv-x="511" 
d="M532 356h-112q6 36 -15 56.5t-65 20.5t-71 -18t-27 -49q0 -38 57 -49l84 -16q60 -13 91 -41.5t31 -81.5q0 -82 -56 -130t-157 -56l-29 -34q37 -1 59 -20.5t22 -51.5q0 -45 -40 -76.5t-110 -31.5q-53 0 -82.5 25t-20.5 70h73q-3 -14 8 -23t33 -9q23 0 38.5 9.5t15.5 27.5
q0 26 -39 26h-32l-18 31l42 59q-80 10 -115.5 57t-22.5 121h114q-8 -38 15.5 -60.5t72.5 -22.5q53 0 82.5 18t29.5 49q0 41 -56 52l-85 17q-54 11 -86.5 42.5t-32.5 81.5q0 79 58 127.5t171 48.5q93 0 141.5 -47t33.5 -122z" />
    <glyph glyph-name="Scaron" unicode="&#x160;" horiz-adv-x="632" 
d="M408 769l-70 136l2 10h93l51 -69h4l79 69h103l-2 -10l-126 -136h-134zM317 -9q-130 0 -191 62.5t-43 169.5h119q-9 -61 25.5 -94t106.5 -33q85 0 131 31t46 86q0 62 -90 82l-98 22q-164 36 -164 165q0 103 78 165t217 62q117 0 180 -60.5t44 -156.5h-119q7 51 -22.5 81
t-99.5 30q-74 0 -113.5 -27.5t-39.5 -75.5q0 -56 86 -75l91 -20q174 -37 174 -170q0 -109 -79.5 -176.5t-238.5 -67.5z" />
    <glyph glyph-name="scaron" unicode="&#x161;" horiz-adv-x="511" 
d="M312 585l-70 136l2 10h93l51 -69h4l79 69h103l-2 -10l-126 -136h-134zM256 -9q-102 0 -149.5 49t-32.5 132h114q-8 -38 15.5 -60.5t72.5 -22.5q53 0 82.5 18t29.5 49q0 41 -56 52l-85 17q-54 11 -86.5 42.5t-32.5 81.5q0 79 58 127.5t171 48.5q93 0 141.5 -47t33.5 -122
h-112q6 36 -15 56.5t-65 20.5t-71 -18t-27 -49q0 -38 57 -49l84 -16q60 -13 91 -41.5t31 -81.5q0 -90 -66 -138.5t-183 -48.5z" />
    <glyph glyph-name="uni0162" unicode="&#x162;" horiz-adv-x="592" 
d="M237 0l121 594h-211l21 106h540l-22 -106h-210l-121 -594h-118zM172 -214l2 10l51 153h118l-2 -10l-90 -153h-79z" />
    <glyph glyph-name="uni0163" unicode="&#x163;" horiz-adv-x="402" 
d="M267 -9q-77 0 -106.5 40t-15.5 110l57 278h-85l19 97h89l23 109l105 28h10l-28 -137h125l-19 -97h-125l-53 -258q-7 -37 5.5 -53.5t47.5 -16.5q26 0 51 7h10l-19 -96q-37 -11 -91 -11zM119 -214l2 10l51 153h118l-2 -10l-90 -153h-79z" />
    <glyph glyph-name="Tcaron" unicode="&#x164;" horiz-adv-x="592" 
d="M390 769l-70 136l2 10h93l51 -69h4l79 69h103l-2 -10l-126 -136h-134zM237 0l121 594h-211l21 106h540l-22 -106h-210l-121 -594h-118z" />
    <glyph glyph-name="tcaron" unicode="&#x165;" horiz-adv-x="402" 
d="M405 570l35 170h118l-2 -10l-75 -160h-76zM267 -9q-77 0 -106.5 40t-15.5 110l57 278h-85l19 97h89l23 109l105 28h10l-28 -137h125l-19 -97h-125l-53 -258q-7 -37 5.5 -53.5t47.5 -16.5q26 0 51 7h10l-19 -96q-37 -11 -91 -11z" />
    <glyph glyph-name="Tbar" unicode="&#x166;" horiz-adv-x="595" 
d="M686 594h-210l-34 -169h170l-20 -99h-171l-66 -326h-118l66 326h-167l20 99h168l34 169h-211l21 106h540z" />
    <glyph glyph-name="tbar" unicode="&#x167;" horiz-adv-x="402" 
d="M441 419h-125l-15 -74h117l-17 -84h-117l-21 -100q-7 -37 5.5 -53.5t47.5 -16.5q26 0 51 7h10l-19 -96q-37 -11 -91 -11q-152 0 -122 150l25 120h-85l17 84h85l15 74h-85l19 97h89l23 109l105 28h10l-28 -137h125z" />
    <glyph glyph-name="Utilde" unicode="&#x168;" horiz-adv-x="714" 
d="M562 776q-32 0 -63 20l-13 9q-19 14 -36 14q-14 0 -25.5 -11t-15.5 -30h-74l3 15q11 53 45 82t80 29q33 0 64 -20l13 -9q22 -13 36 -13q32 0 40 40h73l-3 -15q-11 -54 -43.5 -82.5t-80.5 -28.5zM362 -9q-126 0 -192 71t-40 198l89 440h118l-90 -438q-15 -76 15 -120.5
t113 -44.5q162 0 197 165l89 438h118l-90 -440q-26 -131 -109.5 -200t-217.5 -69z" />
    <glyph glyph-name="utilde" unicode="&#x169;" horiz-adv-x="578" 
d="M351 635q-14 0 -25.5 -11t-15.5 -30h-74l3 15q11 53 45 82t80 29q33 0 64 -20l13 -9q22 -13 36 -13q32 0 40 40h73l-3 -15q-11 -54 -43.5 -82.5t-80.5 -28.5q-32 0 -63 20l-13 9q-19 14 -36 14zM502 516h115l-66 -320q-19 -93 -82.5 -148.5t-176.5 -55.5q-107 0 -155 57
t-30 147l65 320h113l-61 -302q-23 -117 85 -117t131 117z" />
    <glyph glyph-name="Umacron" unicode="&#x16a;" horiz-adv-x="714" 
d="M378 797l19 94h281l-19 -94h-281zM362 -9q-126 0 -192 71t-40 198l89 440h118l-90 -438q-15 -76 15 -120.5t113 -44.5q162 0 197 165l89 438h118l-90 -440q-26 -131 -109.5 -200t-217.5 -69z" />
    <glyph glyph-name="umacron" unicode="&#x16b;" horiz-adv-x="578" 
d="M579 707l-19 -94h-281l19 94h281zM502 516h115l-66 -320q-19 -93 -82.5 -148.5t-176.5 -55.5q-107 0 -155 57t-30 147l65 320h113l-61 -302q-23 -117 85 -117t131 117z" />
    <glyph glyph-name="Ubreve" unicode="&#x16c;" horiz-adv-x="714" 
d="M515 769q-72 0 -106.5 39.5t-21.5 105.5h88q-8 -59 53 -59q63 0 76 59h88q-20 -145 -177 -145zM362 -9q-126 0 -192 71t-40 198l89 440h118l-90 -438q-15 -76 15 -120.5t113 -44.5q162 0 197 165l89 438h118l-90 -440q-26 -131 -109.5 -200t-217.5 -69z" />
    <glyph glyph-name="ubreve" unicode="&#x16d;" horiz-adv-x="578" 
d="M416 585q-72 0 -106.5 39.5t-21.5 105.5h88q-8 -59 53 -59q63 0 76 59h88q-20 -145 -177 -145zM502 516h115l-66 -320q-19 -93 -82.5 -148.5t-176.5 -55.5q-107 0 -155 57t-30 147l65 320h113l-61 -302q-23 -117 85 -117t131 117z" />
    <glyph glyph-name="Uring" unicode="&#x16e;" horiz-adv-x="714" 
d="M509 754q-42 0 -69 27t-27 67q0 56 39 92.5t98 36.5q43 0 69.5 -26.5t26.5 -67.5q0 -56 -38.5 -92.5t-98.5 -36.5zM519 820q25 0 41.5 15.5t16.5 38.5q0 16 -10.5 26.5t-28.5 10.5q-25 0 -40.5 -16t-15.5 -39q0 -16 9.5 -26t27.5 -10zM362 -9q-126 0 -192 71t-40 198
l89 440h118l-90 -438q-15 -76 15 -120.5t113 -44.5q162 0 197 165l89 438h118l-90 -440q-26 -131 -109.5 -200t-217.5 -69z" />
    <glyph glyph-name="uring" unicode="&#x16f;" horiz-adv-x="578" 
d="M410 570q-42 0 -69 27t-27 67q0 56 39 92.5t98 36.5q43 0 69.5 -26.5t26.5 -67.5q0 -56 -38.5 -92.5t-98.5 -36.5zM439 727q-25 0 -40.5 -16t-15.5 -39q0 -16 9.5 -26t27.5 -10q25 0 41.5 15.5t16.5 38.5q0 16 -10.5 26.5t-28.5 10.5zM502 516h115l-66 -320
q-19 -93 -82.5 -148.5t-176.5 -55.5q-107 0 -155 57t-30 147l65 320h113l-61 -302q-23 -117 85 -117t131 117z" />
    <glyph glyph-name="Uhungarumlaut" unicode="&#x170;" horiz-adv-x="714" 
d="M374 767l2 10l75 140h130l-2 -10l-126 -140h-79zM538 767l2 10l79 140h130l-2 -10l-130 -140h-79zM362 -9q-126 0 -192 71t-40 198l89 440h118l-90 -438q-15 -76 15 -120.5t113 -44.5q162 0 197 165l89 438h118l-90 -440q-26 -131 -109.5 -200t-217.5 -69z" />
    <glyph glyph-name="uhungarumlaut" unicode="&#x171;" horiz-adv-x="578" 
d="M480 723l-126 -140h-79l2 10l75 140h130zM520 733h130l-2 -10l-130 -140h-79l2 10zM440 214l62 302h115l-66 -320q-19 -93 -82.5 -148.5t-176.5 -55.5q-107 0 -155 57t-30 147l65 320h113l-61 -302q-23 -117 85 -117t131 117z" />
    <glyph glyph-name="Uogonek" unicode="&#x172;" horiz-adv-x="714" 
d="M661 700h118l-90 -440q-23 -115 -90.5 -182.5t-175.5 -82.5q-94 -43 -94 -100q0 -36 44 -36q18 0 34 4l-15 -76q-26 -8 -60 -8q-45 0 -75.5 22.5t-30.5 63.5q0 78 87 129q-104 14 -155 83.5t-28 182.5l89 440h118l-90 -438q-15 -76 15 -120.5t113 -44.5q162 0 197 165z
" />
    <glyph glyph-name="uogonek" unicode="&#x173;" horiz-adv-x="578" 
d="M502 516h115l-66 -320q-35 -171 -197 -199q-99 -41 -99 -102q0 -36 44 -36q18 0 34 4l-15 -76q-26 -8 -60 -8q-45 0 -75.5 22.5t-30.5 63.5q0 78 90 131q-81 13 -115.5 67.5t-19.5 132.5l65 320h113l-61 -302q-23 -117 85 -117t131 117z" />
    <glyph glyph-name="Wcircumflex" unicode="&#x174;" horiz-adv-x="924" 
d="M454 769l2 10l126 136h133l71 -136l-2 -10h-95l-51 69h-4l-79 -69h-101zM186 0l-25 690l2 10h124l5 -529h4l241 529h130l29 -529h4l218 529h127l-2 -10l-305 -690h-141l-27 518h-4l-240 -518h-140z" />
    <glyph glyph-name="wcircumflex" unicode="&#x175;" horiz-adv-x="786" 
d="M352 579l2 10l126 136h133l71 -136l-2 -10h-95l-51 69h-4l-79 -69h-101zM149 0l-30 506l2 10h115l11 -380h4l176 380h137l22 -380h4l165 380h120l-2 -10l-236 -506h-141l-22 380h-4l-180 -380h-141z" />
    <glyph glyph-name="Ycircumflex" unicode="&#x176;" horiz-adv-x="670" 
d="M331 769l2 10l126 136h133l71 -136l-2 -10h-95l-51 69h-4l-79 -69h-101zM277 0l58 286l-174 404l2 10h129l117 -298h4l238 298h140l-2 -10l-336 -403l-58 -287h-118z" />
    <glyph glyph-name="ycircumflex" unicode="&#x177;" horiz-adv-x="559" 
d="M249 585l2 10l126 136h133l71 -136l-2 -10h-95l-51 69h-4l-79 -69h-101zM100 -229l2 10l127 221l-12 3l-84 501l2 10h116l54 -388h4l215 388h124l-2 -10l-424 -735h-122z" />
    <glyph glyph-name="Ydieresis" unicode="&#x178;" horiz-adv-x="670" 
d="M406 786q-53 0 -53 50q0 35 21.5 57.5t58.5 22.5q26 0 40 -13.5t14 -37.5q0 -35 -22 -57t-59 -22zM593 786q-53 0 -53 50q0 36 21 58t59 22q26 0 40 -13.5t14 -37.5q0 -35 -22 -57t-59 -22zM277 0l58 286l-174 404l2 10h129l117 -298h4l238 298h140l-2 -10l-336 -403
l-58 -287h-118z" />
    <glyph glyph-name="Zacute" unicode="&#x179;" horiz-adv-x="597" 
d="M395 767l2 10l99 140h135l-2 -10l-144 -140h-90zM36 0l21 103l468 486l1 4h-360l21 107h510l-21 -105l-467 -485l-1 -4h374l-21 -106h-525z" />
    <glyph glyph-name="zacute" unicode="&#x17a;" horiz-adv-x="502" 
d="M315 583l2 10l99 140h135l-2 -10l-144 -140h-90zM46 0l20 95l327 320l1 4h-261l19 97h406l-19 -96l-326 -319l-1 -4h263l-19 -97h-410z" />
    <glyph glyph-name="Zdotaccent" unicode="&#x17b;" horiz-adv-x="597" 
d="M456 779q-60 0 -60 56q0 39 23.5 63t66.5 24q29 0 44.5 -14.5t15.5 -40.5q0 -39 -24.5 -63.5t-65.5 -24.5zM36 0l21 103l468 486l1 4h-360l21 107h510l-21 -105l-467 -485l-1 -4h374l-21 -106h-525z" />
    <glyph glyph-name="zdotaccent" unicode="&#x17c;" horiz-adv-x="502" 
d="M376 595q-60 0 -60 56q0 39 23.5 63t66.5 24q29 0 44.5 -14.5t15.5 -40.5q0 -39 -24.5 -63.5t-65.5 -24.5zM46 0l20 95l327 320l1 4h-261l19 97h406l-19 -96l-326 -319l-1 -4h263l-19 -97h-410z" />
    <glyph glyph-name="Zcaron" unicode="&#x17d;" horiz-adv-x="597" 
d="M389 769l-70 136l2 10h93l51 -69h4l79 69h103l-2 -10l-126 -136h-134zM36 0l21 103l468 486l1 4h-360l21 107h510l-21 -105l-467 -485l-1 -4h374l-21 -106h-525z" />
    <glyph glyph-name="zcaron" unicode="&#x17e;" horiz-adv-x="502" 
d="M309 585l-70 136l2 10h93l51 -69h4l79 69h103l-2 -10l-126 -136h-134zM46 0l20 95l327 320l1 4h-261l19 97h406l-19 -96l-326 -319l-1 -4h263l-19 -97h-410z" />
    <glyph glyph-name="florin" unicode="&#x192;" horiz-adv-x="455" 
d="M40 -229v10l82 535h-90v96h105l20 135q27 177 197 177q39 0 70 -9v-97q-29 8 -60 8q-82 0 -95 -89l-19 -125h132v-96h-146l-82 -545h-114z" />
    <glyph glyph-name="uni01CD" unicode="&#x1cd;" horiz-adv-x="691" 
d="M594 915h103l-2 -10l-126 -136h-134l-70 136l2 10h93l51 -69h4zM413 700h147l111 -690l-2 -10h-125l-22 162h-283l-87 -162h-131l2 10zM295 265h214l-42 312h-4z" />
    <glyph glyph-name="uni01CE" unicode="&#x1ce;" horiz-adv-x="582" 
d="M330 585l-70 136l2 10h93l51 -69h4l79 69h103l-2 -10l-126 -136h-134zM253 -9q-83 0 -126.5 57.5t-43.5 148.5q0 136 75.5 232t196.5 96q54 0 89.5 -20t49.5 -51h4l26 62h101l-105 -516h-101l1 62h-4q-59 -71 -163 -71zM301 92q76 0 121.5 67.5t45.5 148.5q0 53 -25 84.5
t-75 31.5q-59 0 -98.5 -35t-54 -81t-14.5 -97q0 -53 24.5 -86t75.5 -33z" />
    <glyph glyph-name="uni01CF" unicode="&#x1cf;" horiz-adv-x="292" 
d="M238 769l-70 136l2 10h93l51 -69h4l79 69h103l-2 -10l-126 -136h-134zM87 0l142 700h118l-142 -700h-118z" />
    <glyph glyph-name="uni01D0" unicode="&#x1d0;" 
d="M184 585l-70 136l2 10h93l51 -69h4l79 69h103l-2 -10l-126 -136h-134zM73 0l105 516h114l-105 -516h-114z" />
    <glyph glyph-name="uni01D1" unicode="&#x1d1;" horiz-adv-x="740" 
d="M464 769l-70 136l2 10h93l51 -69h4l79 69h103l-2 -10l-126 -136h-134zM372 -9q-130 0 -197.5 76.5t-67.5 198.5q0 84 25 161.5t73.5 141.5t127 102t177.5 38q129 0 197 -76t68 -199q0 -83 -26 -161.5t-75 -141.5t-127.5 -101.5t-174.5 -38.5zM390 99q67 0 119 29
t82.5 76.5t46 102t15.5 111.5q0 84 -39.5 133.5t-121.5 49.5q-68 0 -120.5 -29.5t-82.5 -77t-45 -102t-15 -110.5q0 -84 39.5 -133.5t121.5 -49.5z" />
    <glyph glyph-name="uni01D2" unicode="&#x1d2;" horiz-adv-x="566" 
d="M337 585l-70 136l2 10h93l51 -69h4l79 69h103l-2 -10l-126 -136h-134zM289 -9q-98 0 -152 56.5t-54 148.5q0 139 76.5 234t222.5 95q99 0 152 -57t53 -150q0 -66 -18 -123.5t-53 -103.5t-93.5 -73t-133.5 -27zM302 92q82 0 125 61t43 154q0 117 -100 117
q-82 0 -125.5 -61t-43.5 -153q0 -118 101 -118z" />
    <glyph glyph-name="Gcaron" unicode="&#x1e6;" horiz-adv-x="718" 
d="M459 769l-70 136l2 10h93l51 -69h4l79 69h103l-2 -10l-126 -136h-134zM372 -9q-128 0 -196.5 75t-68.5 199q0 122 45 221.5t136.5 161t214.5 61.5q128 0 196.5 -68t57.5 -174h-120q4 60 -32 97t-115 37q-86 0 -147 -49.5t-87.5 -120.5t-26.5 -152q0 -83 39 -132t119 -49
q88 0 143 47t75 123h-163l21 104h284l-14 -67q-30 -147 -122.5 -230.5t-238.5 -83.5z" />
    <glyph glyph-name="gcaron" unicode="&#x1e7;" horiz-adv-x="583" 
d="M332 585l-70 136l2 10h93l51 -69h4l79 69h103l-2 -10l-126 -136h-134zM235 -238q-101 0 -153.5 50.5t-38.5 131.5h111q-4 -35 21 -59.5t77 -24.5q61 0 99.5 31.5t48.5 82.5l18 88h-4q-62 -71 -162 -71q-79 0 -124 56.5t-45 145.5q0 136 75 234t198 98q105 0 138 -71h4
l26 62h101l-111 -544q-20 -98 -89 -154t-190 -56zM301 92q56 0 95 34t55.5 81t16.5 99q0 54 -24.5 86t-76.5 32q-84 0 -125 -64t-41 -150q0 -118 100 -118z" />
    <glyph glyph-name="Scommaaccent" unicode="&#x218;" horiz-adv-x="632" 
d="M317 -9q-130 0 -191 62.5t-43 169.5h119q-9 -61 25.5 -94t106.5 -33q85 0 131 31t46 86q0 62 -90 82l-98 22q-164 36 -164 165q0 103 78 165t217 62q117 0 180 -60.5t44 -156.5h-119q7 51 -22.5 81t-99.5 30q-74 0 -113.5 -27.5t-39.5 -75.5q0 -56 86 -75l91 -20
q174 -37 174 -170q0 -109 -79.5 -176.5t-238.5 -67.5zM199 -214l2 10l51 153h118l-2 -10l-90 -153h-79z" />
    <glyph glyph-name="scommaaccent" unicode="&#x219;" horiz-adv-x="511" 
d="M256 -9q-102 0 -149.5 49t-32.5 132h114q-8 -38 15.5 -60.5t72.5 -22.5q53 0 82.5 18t29.5 49q0 41 -56 52l-85 17q-54 11 -86.5 42.5t-32.5 81.5q0 79 58 127.5t171 48.5q93 0 141.5 -47t33.5 -122h-112q6 36 -15 56.5t-65 20.5t-71 -18t-27 -49q0 -38 57 -49l84 -16
q60 -13 91 -41.5t31 -81.5q0 -90 -66 -138.5t-183 -48.5zM136 -214l2 10l51 153h118l-2 -10l-90 -153h-79z" />
    <glyph glyph-name="uni021A" unicode="&#x21a;" horiz-adv-x="592" 
d="M168 700h540l-22 -106h-210l-121 -594h-21l-35 -42q37 -1 59 -20.5t22 -51.5q0 -45 -40 -76.5t-110 -31.5q-53 0 -82.5 25t-20.5 70h73q-3 -14 8 -23t33 -9q23 0 38.5 9.5t15.5 27.5q0 26 -39 26h-32l-18 31l46 65h-15l121 594h-211z" />
    <glyph glyph-name="uni021B" unicode="&#x21b;" horiz-adv-x="402" 
d="M316 419l-53 -258q-7 -37 5.5 -53.5t47.5 -16.5q26 0 51 7h10l-19 -96q-30 -10 -84 -11l-28 -33q37 -1 59 -20.5t22 -51.5q0 -45 -40 -76.5t-110 -31.5q-53 0 -82.5 25t-20.5 70h73q-3 -14 8 -23t33 -9q23 0 38.5 9.5t15.5 27.5q0 26 -39 26h-32l-18 31l47 67
q-78 31 -55 139l57 278h-85l19 97h89l23 109l105 28h10l-28 -137h125l-19 -97h-125z" />
    <glyph glyph-name="uni0237" unicode="&#x237;" horiz-adv-x="259" 
d="M-17 -238q-27 0 -51 7l20 100q19 -3 38 -3q64 0 80 73l117 577h115l-121 -593q-16 -79 -68 -120t-130 -41z" />
    <glyph glyph-name="circumflex" unicode="&#x2c6;" horiz-adv-x="392" 
d="M150 585l2 10l126 136h133l71 -136l-2 -10h-95l-51 69h-4l-79 -69h-101z" />
    <glyph glyph-name="caron" unicode="&#x2c7;" horiz-adv-x="392" 
d="M248 585l-70 136l2 10h93l51 -69h4l79 69h103l-2 -10l-126 -136h-134z" />
    <glyph glyph-name="breve" unicode="&#x2d8;" horiz-adv-x="375" 
d="M311 585q-72 0 -106.5 39.5t-21.5 105.5h88q-8 -59 53 -59q63 0 76 59h88q-20 -145 -177 -145z" />
    <glyph glyph-name="dotaccent" unicode="&#x2d9;" horiz-adv-x="206" 
d="M224 595q-60 0 -60 56q0 39 23.5 63t66.5 24q29 0 44.5 -14.5t15.5 -40.5q0 -39 -24.5 -63.5t-65.5 -24.5z" />
    <glyph glyph-name="ring" unicode="&#x2da;" horiz-adv-x="294" 
d="M265 570q-42 0 -69 27t-27 67q0 56 39 92.5t98 36.5q43 0 69.5 -26.5t26.5 -67.5q0 -56 -38.5 -92.5t-98.5 -36.5zM275 636q25 0 41.5 15.5t16.5 38.5q0 16 -10.5 26.5t-28.5 10.5q-25 0 -40.5 -16t-15.5 -39q0 -16 9.5 -26t27.5 -10z" />
    <glyph glyph-name="ogonek" unicode="&#x2db;" horiz-adv-x="248" 
d="M112 -221q-45 0 -75.5 22.5t-30.5 63.5q0 97 132 151l77 -16q-44 -18 -75 -44.5t-31 -60.5q0 -36 44 -36q18 0 34 4l-15 -76q-26 -8 -60 -8z" />
    <glyph glyph-name="tilde" unicode="&#x2dc;" horiz-adv-x="385" 
d="M376 592q-32 0 -63 20l-13 9q-19 14 -36 14q-14 0 -25.5 -11t-15.5 -30h-74l3 15q11 53 45 82t80 29q33 0 64 -20l13 -9q22 -13 36 -13q32 0 40 40h73l-3 -15q-11 -54 -43.5 -82.5t-80.5 -28.5z" />
    <glyph glyph-name="hungarumlaut" unicode="&#x2dd;" horiz-adv-x="408" 
d="M152 583l2 10l75 140h130l-2 -10l-126 -140h-79zM316 583l2 10l79 140h130l-2 -10l-130 -140h-79z" />
    <glyph glyph-name="uni0326" unicode="&#x326;" horiz-adv-x="0" 
d="M-222 -214l2 10l51 153h118l-2 -10l-90 -153h-79z" />
    <glyph glyph-name="Wgrave" unicode="&#x1e80;" horiz-adv-x="924" 
d="M595 767l-88 140l2 10h134l44 -140l-2 -10h-90zM186 0l-25 690l2 10h124l5 -529h4l241 529h130l29 -529h4l218 529h127l-2 -10l-305 -690h-141l-27 518h-4l-240 -518h-140z" />
    <glyph glyph-name="wgrave" unicode="&#x1e81;" horiz-adv-x="786" 
d="M493 577l-88 140l2 10h134l44 -140l-2 -10h-90zM149 0l-30 506l2 10h115l11 -380h4l176 380h137l22 -380h4l165 380h120l-2 -10l-236 -506h-141l-22 380h-4l-180 -380h-141z" />
    <glyph glyph-name="Wacute" unicode="&#x1e82;" horiz-adv-x="924" 
d="M557 767l2 10l99 140h135l-2 -10l-144 -140h-90zM186 0l-25 690l2 10h124l5 -529h4l241 529h130l29 -529h4l218 529h127l-2 -10l-305 -690h-141l-27 518h-4l-240 -518h-140z" />
    <glyph glyph-name="wacute" unicode="&#x1e83;" horiz-adv-x="786" 
d="M455 577l2 10l99 140h135l-2 -10l-144 -140h-90zM149 0l-30 506l2 10h115l11 -380h4l176 380h137l22 -380h4l165 380h120l-2 -10l-236 -506h-141l-22 380h-4l-180 -380h-141z" />
    <glyph glyph-name="Wdieresis" unicode="&#x1e84;" horiz-adv-x="924" 
d="M529 786q-53 0 -53 50q0 35 21.5 57.5t58.5 22.5q26 0 40 -13.5t14 -37.5q0 -35 -22 -57t-59 -22zM716 786q-53 0 -53 50q0 36 21 58t59 22q26 0 40 -13.5t14 -37.5q0 -35 -22 -57t-59 -22zM186 0l-25 690l2 10h124l5 -529h4l241 529h130l29 -529h4l218 529h127l-2 -10
l-305 -690h-141l-27 518h-4l-240 -518h-140z" />
    <glyph glyph-name="wdieresis" unicode="&#x1e85;" horiz-adv-x="786" 
d="M427 596q-53 0 -53 50q0 35 21.5 57.5t58.5 22.5q26 0 40 -13.5t14 -37.5q0 -35 -22 -57t-59 -22zM614 596q-53 0 -53 50q0 36 21 58t59 22q26 0 40 -13.5t14 -37.5q0 -35 -22 -57t-59 -22zM149 0l-30 506l2 10h115l11 -380h4l176 380h137l22 -380h4l165 380h120l-2 -10
l-236 -506h-141l-22 380h-4l-180 -380h-141z" />
    <glyph glyph-name="uni1EBC" unicode="&#x1ebc;" horiz-adv-x="610" 
d="M540 776q-32 0 -63 20l-13 9q-19 14 -36 14q-14 0 -25.5 -11t-15.5 -30h-74l3 15q11 53 45 82t80 29q33 0 64 -20l13 -9q22 -13 36 -13q32 0 40 40h73l-3 -15q-11 -54 -43.5 -82.5t-80.5 -28.5zM87 0l142 700h472l-22 -106h-354l-36 -180h323l-22 -106h-323l-42 -203h355
l-21 -105h-472z" />
    <glyph glyph-name="uni1EBD" unicode="&#x1ebd;" horiz-adv-x="554" 
d="M452 592q-32 0 -63 20l-13 9q-19 14 -36 14q-14 0 -25.5 -11t-15.5 -30h-74l3 15q11 53 45 82t80 29q33 0 64 -20l13 -9q22 -13 36 -13q32 0 40 40h73l-3 -15q-11 -54 -43.5 -82.5t-80.5 -28.5zM285 -9q-97 0 -149 58t-52 151q0 133 78.5 229t218.5 96q113 0 162.5 -70.5
t26.5 -180.5l-10 -48h-359q-9 -64 15.5 -101.5t84.5 -37.5q93 0 126 70h112q-26 -74 -91.5 -120t-162.5 -46zM218 307h242q10 54 -12.5 87.5t-78.5 33.5q-60 0 -98.5 -33.5t-52.5 -87.5z" />
    <glyph glyph-name="Ygrave" unicode="&#x1ef2;" horiz-adv-x="670" 
d="M472 767l-88 140l2 10h134l44 -140l-2 -10h-90zM277 0l58 286l-174 404l2 10h129l117 -298h4l238 298h140l-2 -10l-336 -403l-58 -287h-118z" />
    <glyph glyph-name="ygrave" unicode="&#x1ef3;" horiz-adv-x="559" 
d="M390 583l-88 140l2 10h134l44 -140l-2 -10h-90zM100 -229l2 10l127 221l-12 3l-84 501l2 10h116l54 -388h4l215 388h124l-2 -10l-424 -735h-122z" />
    <glyph glyph-name="endash" unicode="&#x2013;" horiz-adv-x="622" 
d="M109 241l22 104h502l-22 -104h-502z" />
    <glyph glyph-name="emdash" unicode="&#x2014;" horiz-adv-x="1102" 
d="M109 241l22 104h982l-22 -104h-982z" />
    <glyph glyph-name="quoteleft" unicode="&#x2018;" horiz-adv-x="225" 
d="M335 700l-2 -10l-79 -235h-129l2 10l118 235h90z" />
    <glyph glyph-name="quoteright" unicode="&#x2019;" horiz-adv-x="225" 
d="M125 455l2 10l79 235h129l-2 -10l-118 -235h-90z" />
    <glyph glyph-name="quotesinglbase" unicode="&#x201a;" horiz-adv-x="225" 
d="M4 -138l2 10l79 235h129l-2 -10l-118 -235h-90z" />
    <glyph glyph-name="quotedblleft" unicode="&#x201c;" horiz-adv-x="412" 
d="M335 700l-2 -10l-79 -235h-129l2 10l118 235h90zM522 700l-2 -10l-79 -235h-129l2 10l118 235h90z" />
    <glyph glyph-name="quotedblright" unicode="&#x201d;" horiz-adv-x="412" 
d="M125 455l2 10l79 235h129l-2 -10l-118 -235h-90zM312 455l2 10l79 235h129l-2 -10l-118 -235h-90z" />
    <glyph glyph-name="quotedblbase" unicode="&#x201e;" horiz-adv-x="412" 
d="M4 -138l2 10l79 235h129l-2 -10l-118 -235h-90zM192 -138l2 10l79 235h129l-2 -10l-118 -235h-90z" />
    <glyph glyph-name="dagger" unicode="&#x2020;" horiz-adv-x="477" 
d="M514 570l-18 -94h-112l-28 -140l-47 -165h-71l19 165l28 140h-109l18 94h111l26 130h99l-26 -130h110z" />
    <glyph glyph-name="daggerdbl" unicode="&#x2021;" horiz-adv-x="477" 
d="M381 476l-36 -126l-14 -126h113l-19 -93h-110l-27 -130h-99l27 130h-111l19 93h114l36 126l15 126h-113l18 94h111l26 130h99l-26 -130h110l-18 -94h-115z" />
    <glyph glyph-name="bullet" unicode="&#x2022;" horiz-adv-x="386" 
d="M225 156q-54 0 -81.5 29t-27.5 78q0 71 44 118.5t120 47.5q52 0 80.5 -29.5t28.5 -77.5q0 -71 -45.5 -118.5t-118.5 -47.5z" />
    <glyph glyph-name="ellipsis" unicode="&#x2026;" horiz-adv-x="816" 
d="M123 -9q-29 0 -44 15t-15 41q0 40 23.5 65t65.5 25q29 0 44 -15.5t15 -41.5q0 -39 -24 -64t-65 -25zM406 -9q-29 0 -44 15t-15 41q0 40 23.5 65t65.5 25q29 0 44 -15.5t15 -41.5q0 -39 -24 -64t-65 -25zM689 -9q-59 0 -59 56q0 40 23.5 65t65.5 25q29 0 44 -15.5
t15 -41.5q0 -39 -24 -64t-65 -25z" />
    <glyph glyph-name="perthousand" unicode="&#x2030;" horiz-adv-x="1213" 
d="M284 348q-62 0 -93.5 37.5t-31.5 99.5q0 94 53.5 160.5t145.5 66.5q61 0 92.5 -37.5t31.5 -99.5q0 -94 -53 -160.5t-145 -66.5zM136 0l2 10l614 690h99l-2 -10l-612 -690h-101zM300 427q50 0 73 41t23 97q0 68 -54 68q-50 0 -73.5 -41t-23.5 -97q0 -68 55 -68zM635 -9
q-61 0 -92.5 37.5t-31.5 99.5q0 94 53 160.5t145 66.5q61 0 93 -37.5t32 -99.5q0 -94 -53.5 -160.5t-145.5 -66.5zM998 -9q-61 0 -92.5 37.5t-31.5 99.5q0 94 53 160.5t145 66.5q61 0 93 -37.5t32 -99.5q0 -94 -53.5 -160.5t-145.5 -66.5zM651 70q50 0 73.5 41t23.5 97
q0 68 -55 68q-50 0 -73.5 -41t-23.5 -97q0 -68 55 -68zM1014 70q50 0 73 41t23 97q0 68 -54 68q-50 0 -73.5 -41t-23.5 -97q0 -68 55 -68z" />
    <glyph glyph-name="guilsinglleft" unicode="&#x2039;" horiz-adv-x="351" 
d="M210 66l-122 212l2 10l207 212h108l-2 -10l-182 -210l97 -204l-2 -10h-106z" />
    <glyph glyph-name="guilsinglright" unicode="&#x203a;" horiz-adv-x="351" 
d="M60 66l2 10l183 210l-98 204l2 10h106l123 -212l-2 -10l-207 -212h-109z" />
    <glyph glyph-name="fraction" unicode="&#x2044;" horiz-adv-x="544" 
d="M-33 -100l2 10l638 890h110l-2 -10l-636 -890h-112z" />
    <glyph glyph-name="Euro" unicode="&#x20ac;" horiz-adv-x="756" 
d="M801 453h-120q6 67 -29.5 107.5t-113.5 40.5q-151 0 -220 -136h252l-38 -84h-245q-9 -40 -10 -71h226l-37 -84h-185q23 -128 155 -128q77 0 128.5 38.5t73.5 103.5h119q-33 -113 -120.5 -181t-220.5 -68q-114 0 -181.5 64t-78.5 171h-63l17 84h46q1 31 10 71h-42l18 84
h49q45 112 138.5 178t224.5 66q127 0 193.5 -71.5t53.5 -184.5z" />
    <glyph glyph-name="uni2116" unicode="&#x2116;" horiz-adv-x="1158" 
d="M972 332q-71 0 -109 40t-38 105q0 98 55 165t156 67q70 0 108 -40.5t38 -105.5q0 -97 -54 -164t-156 -67zM87 0l142 700h134l210 -514h4l105 514h116l-142 -700h-135l-211 511h-4l-104 -511h-115zM982 415q52 0 79.5 39t27.5 98q0 74 -65 74q-50 0 -78.5 -39t-28.5 -97
q0 -35 16.5 -55t48.5 -20zM784 195l17 88h315l-18 -88h-314z" />
    <glyph glyph-name="trademark" unicode="&#x2122;" horiz-adv-x="732" 
d="M207 373l54 262h-99l13 65h267l-12 -65h-98l-54 -262h-71zM426 373l66 327h79l64 -159h3l127 159h77l-66 -327h-68l44 218h-3l-131 -163h-10l-66 164h-3l-45 -219h-68z" />
    <glyph glyph-name="minus" unicode="&#x2212;" horiz-adv-x="485" 
d="M58 264l21 98h474l-20 -98h-475z" />
    <glyph glyph-name="notequal" unicode="&#x2260;" horiz-adv-x="485" 
d="M553 360h-161l-86 -105h225l-19 -98h-285l-53 -65h-87l2 10l45 55h-97l20 98h156l85 105h-220l20 98h279l56 69h88l-2 -10l-48 -59h102z" />
    <glyph glyph-name="lessequal" unicode="&#x2264;" horiz-adv-x="521" 
d="M509 147l-403 171l25 122l472 171l-21 -107l-361 -122l-1 -4l311 -124zM41 0l21 98h437l-20 -98h-438z" />
    <glyph glyph-name="greaterequal" unicode="&#x2265;" horiz-adv-x="521" 
d="M71 147l22 107l361 124l1 4l-311 122l21 107l404 -171l-25 -122zM41 0l21 98h437l-20 -98h-438z" />
    <glyph glyph-name="caron.Slovak" horiz-adv-x="189" 
d="M144 530l34 170h118l-2 -10l-74 -160h-76z" />
    <glyph glyph-name="i.loclTRK" 
d="M251 595q-60 0 -60 56q0 39 23.5 63t66.5 24q29 0 44.5 -14.5t15.5 -40.5q0 -39 -24.5 -63.5t-65.5 -24.5zM73 0l105 516h114l-105 -516h-114z" />
    </font>
</defs>
</svg>
