<?xml version="1.0" standalone="no"?>
<!DOCTYPE svg PUBLIC "-//W3C//DTD SVG 1.1//EN" "http://www.w3.org/Graphics/SVG/1.1/DTD/svg11.dtd" >
<svg xmlns="http://www.w3.org/2000/svg" xmlns:xlink="http://www.w3.org/1999/xlink" version="1.1">
<metadata>
Created by FontForge 20170731 at Thu Sep 20 11:55:00 2018
 By Aleksey,,,
Copyright (c) 2018 by atipo. All rights reserved.
</metadata>
<defs>
<font id="BasierSquare-SemiBoldItalic" horiz-adv-x="578" >
  <font-face 
    font-family="Basier Square SemiBold"
    font-weight="600"
    font-style="italic"
    font-stretch="normal"
    units-per-em="1000"
    panose-1="0 0 7 0 0 0 0 0 0 0"
    ascent="800"
    descent="-200"
    x-height="520"
    cap-height="700"
    bbox="-234 -245 1210 974"
    underline-thickness="50"
    underline-position="-200"
    unicode-range="U+000D-2265"
  />
<missing-glyph horiz-adv-x="940" 
 />
    <glyph glyph-name=".notdef" horiz-adv-x="940" 
 />
    <glyph glyph-name=".null" horiz-adv-x="0" 
 />
    <glyph glyph-name="nonmarkingreturn" horiz-adv-x="333" 
 />
    <glyph glyph-name="NULL" horiz-adv-x="0" 
 />
    <glyph glyph-name="NULL" horiz-adv-x="0" 
 />
    <glyph glyph-name="CR" unicode="&#xd;" horiz-adv-x="250" 
 />
    <glyph glyph-name="space" unicode=" " horiz-adv-x="286" 
 />
    <glyph glyph-name="exclam" unicode="!" horiz-adv-x="258" 
d="M124 222l57 382l19 96h144l-19 -96l-104 -382h-97zM55 0l29 143h148l-29 -143h-148z" />
    <glyph glyph-name="quotedbl" unicode="&#x22;" horiz-adv-x="430" 
d="M160 426l8 154l24 120h136l-24 -120l-55 -154h-89zM354 426l8 154l24 120h136l-24 -120l-54 -154h-90z" />
    <glyph glyph-name="numbersign" unicode="#" horiz-adv-x="699" 
d="M732 408h-118l-45 -121h89l-24 -116h-108l-64 -171h-122l64 171h-105l-64 -171h-122l64 171h-92l23 116h112l45 121h-82l23 116h102l66 176h122l-66 -176h105l66 176h122l-66 -176h99zM447 287l45 121h-105l-45 -121h105z" />
    <glyph glyph-name="dollar" unicode="$" horiz-adv-x="632" 
d="M686 487h-139q9 76 -67 94l-34 -163l16 -4q88 -19 135.5 -60t47.5 -114q0 -103 -70.5 -170.5t-214.5 -77.5l-17 -82h-89l17 83q-111 10 -160.5 73t-34.5 165h139q-12 -97 81 -114l38 187l-12 3q-172 39 -172 168q0 98 70 160.5t196 72.5l17 82h89l-17 -84
q97 -13 147 -72.5t34 -146.5zM295 499q0 -44 66 -62l30 146q-47 -7 -71.5 -29.5t-24.5 -54.5zM420 285h-1l-34 -169q115 15 115 98q0 55 -80 71z" />
    <glyph glyph-name="percent" unicode="%" horiz-adv-x="847" 
d="M290 348q-64 0 -101.5 38.5t-37.5 100.5q0 96 52 160.5t143 64.5q64 0 101 -38.5t37 -100.5q0 -96 -51.5 -160.5t-142.5 -64.5zM127 0l2 10l614 690h112l-2 -10l-612 -690h-114zM299 436q44 0 67 34.5t23 90.5q0 63 -52 63q-44 0 -67 -34.5t-23 -90.5q0 -63 52 -63z
M644 -9q-64 0 -101.5 38.5t-37.5 100.5q0 96 52.5 160.5t142.5 64.5q64 0 101.5 -38.5t37.5 -100.5q0 -96 -52 -160.5t-143 -64.5zM653 79q44 0 67 34.5t23 90.5q0 63 -52 63q-44 0 -67 -34.5t-23 -90.5q0 -63 52 -63z" />
    <glyph glyph-name="ampersand" unicode="&#x26;" horiz-adv-x="731" 
d="M776 398l-2 -10l-200 -217l116 -161l-2 -10h-149l-54 76q-87 -85 -205 -85q-81 0 -138 48t-57 125q0 70 41 116.5t125 92.5l15 8q-45 69 -45 134q0 83 61 138.5t163 55.5h2q79 0 126 -41t47 -101q0 -69 -36.5 -114t-118.5 -88l-21 -11l63 -89l124 133h145zM378 445l1 -2
l26 14q43 23 61 41.5t18 47.5q0 23 -14 36.5t-42 13.5h-2q-34 -1 -56.5 -22.5t-22.5 -52.5q0 -34 31 -76zM299 112q59 0 118 58l-88 123l-15 -8q-87 -46 -87 -105q0 -29 19.5 -48.5t52.5 -19.5z" />
    <glyph glyph-name="quotesingle" unicode="'" horiz-adv-x="236" 
d="M160 426l8 154l24 120h136l-24 -120l-55 -154h-89z" />
    <glyph glyph-name="parenleft" unicode="(" horiz-adv-x="365" 
d="M465 754q-82 -85 -150.5 -202.5t-96.5 -255.5q-21 -95 -14 -186t26 -154.5t48 -117.5l-2 -10h-103q-37 54 -60.5 122t-32.5 158.5t12 187.5q30 144 103.5 263.5t166.5 204.5h105z" />
    <glyph glyph-name="parenright" unicode=")" horiz-adv-x="365" 
d="M313 764q134 -200 80 -468q-28 -140 -102.5 -262t-167.5 -206h-104l2 10q82 85 150 202.5t96 255.5q22 95 14.5 186t-26 154.5t-47.5 117.5l2 10h103z" />
    <glyph glyph-name="asterisk" unicode="*" horiz-adv-x="486" 
d="M267 353l40 125l-4 2l-113 -73l-29 93l126 34l1 4l-112 35l67 93l83 -71l4 3l10 122h105l-39 -122l4 -3l112 71l29 -93l-127 -35l-1 -4l112 -34l-66 -93l-84 73l-4 -2l-10 -125h-104z" />
    <glyph glyph-name="plus" unicode="+" horiz-adv-x="490" 
d="M198 63l39 193h-180l23 114h181l39 193h123l-39 -193h177l-24 -114h-177l-39 -193h-123z" />
    <glyph glyph-name="comma" unicode="," horiz-adv-x="238" 
d="M-8 -141l2 10l80 241h149l-2 -10l-125 -241h-104z" />
    <glyph glyph-name="hyphen" unicode="-" horiz-adv-x="466" 
d="M128 233l24 120h306l-24 -120h-306z" />
    <glyph glyph-name="period" unicode="." horiz-adv-x="247" 
d="M49 0l29 143h148l-29 -143h-148z" />
    <glyph glyph-name="slash" unicode="/" horiz-adv-x="438" 
d="M-12 -133l2 10l456 860h127l-2 -10l-457 -860h-126z" />
    <glyph glyph-name="zero" unicode="0" horiz-adv-x="628" 
d="M312 -9q-105 0 -155.5 60t-51.5 168q0 96 23 183t66 156.5t111.5 111t152.5 41.5q106 0 156.5 -60.5t50.5 -167.5q0 -96 -23 -183t-66 -156.5t-111.5 -111t-152.5 -41.5zM337 110q64 0 110 60t64.5 140.5t17.5 166.5q0 115 -95 115q-49 0 -87.5 -34.5t-60.5 -89.5
t-33.5 -117t-11.5 -125q0 -116 96 -116z" />
    <glyph glyph-name="one" unicode="1" horiz-adv-x="425" 
d="M216 0l114 562h-4l-188 -122h-10l28 131l199 129h138l-142 -700h-135z" />
    <glyph glyph-name="two" unicode="2" horiz-adv-x="569" 
d="M46 0l22 109l279 233q74 62 105 102t31 79q0 31 -22 50.5t-60 19.5q-48 0 -82.5 -27.5t-45.5 -82.5h-131q18 107 92 168t186 61q92 0 147.5 -48t55.5 -123q0 -64 -37 -120t-130 -132l-200 -164l-1 -4h295l-25 -121h-479z" />
    <glyph glyph-name="three" unicode="3" horiz-adv-x="603" 
d="M308 -9q-116 0 -180.5 58t-42.5 163h134q-9 -43 14.5 -73t88.5 -30q67 0 103 33.5t36 83.5q0 37 -27 58.5t-82 21.5h-61l24 117h59q60 0 93.5 28.5t33.5 74.5q0 29 -22.5 48.5t-64.5 19.5q-52 0 -84.5 -27t-42.5 -74h-135q20 103 96.5 161t192.5 58q88 0 145 -44.5
t57 -115.5q0 -65 -36.5 -111.5t-95.5 -66.5l-1 -4q41 -14 66 -50t25 -83q0 -99 -75 -172.5t-218 -73.5z" />
    <glyph glyph-name="four" unicode="4" horiz-adv-x="588" 
d="M340 0l27 134h-314l27 131l365 435h172l-91 -447h87l-24 -119h-87l-27 -134h-135zM212 253h179l59 286h-4l-234 -282v-4z" />
    <glyph glyph-name="five" unicode="5" horiz-adv-x="594" 
d="M300 -9q-111 0 -171.5 62.5t-42.5 151.5h135q-4 -40 19.5 -67.5t78.5 -27.5q70 0 108 46t38 102q0 41 -24 68t-72 27q-74 0 -121 -54h-131l108 401h420l-23 -120h-310l-45 -159h4q57 43 141 43q89 0 140.5 -52t51.5 -134q0 -120 -80.5 -203.5t-223.5 -83.5z" />
    <glyph glyph-name="six" unicode="6" horiz-adv-x="615" 
d="M323 -9q-105 0 -162 66.5t-57 179.5q0 90 23.5 173.5t67 151.5t114.5 109t159 41q102 0 153.5 -55.5t44.5 -139.5h-130q2 33 -22.5 54t-70.5 21q-71 0 -125.5 -57.5t-67.5 -148.5h4q69 71 170 71q88 0 141.5 -52t52.5 -129q-2 -122 -83 -203.5t-212 -81.5zM335 110
q62 0 104.5 42t43.5 99q0 44 -25 69.5t-75 25.5q-64 0 -106 -40.5t-42 -100.5q0 -43 26.5 -69t73.5 -26z" />
    <glyph glyph-name="seven" unicode="7" horiz-adv-x="541" 
d="M92 0l2 10l401 564l1 4h-355l25 122h493l-25 -127l-394 -573h-148z" />
    <glyph glyph-name="eight" unicode="8" horiz-adv-x="602" 
d="M522 369q82 -36 82 -133q0 -112 -82.5 -178t-215.5 -67q-103 1 -164.5 46.5t-61.5 126.5q0 73 38.5 125.5t111.5 80.5l1 4q-63 35 -63 120q0 97 79 157.5t199 60.5q93 0 148 -42t55 -113q0 -129 -126 -184zM388 426q52 1 86 27.5t34 73.5q0 32 -23.5 50t-62.5 18
q-53 0 -86.5 -26.5t-33.5 -72.5q0 -33 23.5 -51t62.5 -19zM323 108q66 1 104.5 33.5t38.5 86.5q0 37 -26 59t-76 23q-67 -1 -105.5 -34.5t-38.5 -85.5q0 -38 27 -59.5t76 -22.5z" />
    <glyph glyph-name="nine" unicode="9" horiz-adv-x="615" 
d="M290 -9q-102 0 -153.5 55.5t-44.5 139.5h129q-1 -33 23.5 -54t70.5 -21q71 0 125.5 57.5t67.5 148.5h-4q-69 -71 -170 -71q-89 0 -141.5 52.5t-52.5 131.5q2 121 83 201.5t212 80.5q105 0 162 -66.5t57 -179.5q0 -90 -23.5 -173.5t-67 -151.5t-114.5 -109t-159 -41z
M375 357q64 0 106 40.5t42 100.5q0 43 -26.5 69t-73.5 26q-62 0 -104.5 -42t-43.5 -99q0 -44 25 -69.5t75 -25.5z" />
    <glyph glyph-name="colon" unicode=":" horiz-adv-x="238" 
d="M116 330l29 143h148l-29 -143h-148zM49 0l29 143h148l-29 -143h-148z" />
    <glyph glyph-name="semicolon" unicode=";" horiz-adv-x="238" 
d="M116 330l29 143h148l-29 -143h-148zM-8 -141l2 10l80 241h149l-2 -10l-125 -241h-104z" />
    <glyph glyph-name="less" unicode="&#x3c;" horiz-adv-x="520" 
d="M482 -12l-399 245l22 105l498 245l-29 -135l-341 -166l-1 -4l275 -165z" />
    <glyph glyph-name="equal" unicode="=" horiz-adv-x="490" 
d="M569 414l-22 -115h-1l-21 -103h-480l21 103l23 115h480z" />
    <glyph glyph-name="greater" unicode="&#x3e;" horiz-adv-x="520" 
d="M34 -12l28 135l342 166l1 4l-276 163l25 127l399 -244l-21 -106z" />
    <glyph glyph-name="question" unicode="?" horiz-adv-x="543" 
d="M237 221l3 18q10 60 36.5 92.5t84.5 72.5l37 25q41 28 57.5 47.5t16.5 50.5q0 27 -20 45.5t-60 18.5q-101 0 -121 -98h-132q13 96 84.5 156t193.5 60q92 0 144.5 -44.5t52.5 -115.5q0 -110 -110 -182l-50 -33q-42 -28 -60 -47t-24 -50l-3 -16h-130zM186 0l29 143h148
l-29 -143h-148z" />
    <glyph glyph-name="at" unicode="@" horiz-adv-x="894" 
d="M542 -100q-185 0 -301.5 105t-116.5 299q0 178 123 291.5t304 113.5q165 0 272 -96t107 -255q0 -130 -50.5 -197t-141.5 -67q-43 0 -72 18.5t-36 46.5h-4q-44 -62 -127 -62q-75 0 -119.5 55t-44.5 142q0 88 46 145t123 57q34 0 65 -16.5t45 -43.5h4l7 49h89l-9 -249
q-2 -54 47 -54q41 0 63.5 47t22.5 129q0 117 -78.5 190t-211.5 73q-145 0 -236 -93.5t-91 -229.5q0 -146 88 -227.5t234 -81.5q123 0 205 35v-87q-82 -37 -206 -37zM519 188q46 0 69.5 31.5t23.5 84.5q0 50 -25 76.5t-62 26.5q-41 0 -65 -30.5t-24 -83.5q0 -51 22.5 -78
t60.5 -27z" />
    <glyph glyph-name="A" unicode="A" horiz-adv-x="696" 
d="M577 700l106 -690l-2 -10h-147l-18 147h-272l-77 -147h-151l2 10l384 690h175zM308 268h193l-35 292h-4z" />
    <glyph glyph-name="B" unicode="B" horiz-adv-x="666" 
d="M79 0l142 700h319q81 0 128.5 -39.5t47.5 -108.5q0 -118 -107 -177l-1 -4q71 -35 71 -128q0 -111 -74.5 -177t-195.5 -66h-330zM300 421h161q54 0 82.5 26.5t28.5 70.5q0 61 -75 61h-165zM239 122h174q61 0 93 31t32 77q0 32 -22 52.5t-66 20.5h-174z" />
    <glyph glyph-name="C" unicode="C" horiz-adv-x="709" 
d="M371 -9q-131 0 -201.5 77t-70.5 201q0 120 45.5 218.5t140 160t223.5 61.5t198.5 -75t54.5 -189h-140q6 60 -27 99.5t-106 39.5q-119 0 -183 -85.5t-64 -213.5q0 -80 38 -125t114 -45q71 0 119 36.5t70 96.5h139q-34 -114 -125.5 -185.5t-224.5 -71.5z" />
    <glyph glyph-name="D" unicode="D" horiz-adv-x="704" 
d="M79 0l142 700h236q132 0 210.5 -77.5t78.5 -204.5q0 -178 -112.5 -298t-313.5 -120h-241zM233 122h100q125 0 198 81t73 202q0 82 -46 127t-132 45h-100z" />
    <glyph glyph-name="E" unicode="E" horiz-adv-x="610" 
d="M79 0l142 700h485l-24 -123h-349l-31 -155h318l-26 -122h-318l-36 -178h349l-25 -122h-485z" />
    <glyph glyph-name="F" unicode="F" horiz-adv-x="607" 
d="M79 0l142 700h482l-24 -123h-346l-35 -173h314l-26 -123h-313l-57 -281h-137z" />
    <glyph glyph-name="G" unicode="G" horiz-adv-x="716" 
d="M374 -9q-132 0 -203.5 77t-71.5 200q0 89 27 168t76.5 140.5t127.5 97t173 35.5q129 0 200.5 -70.5t61.5 -176.5h-140q2 54 -31.5 88t-106.5 34q-117 0 -181.5 -86.5t-64.5 -213.5q0 -79 37.5 -124t113.5 -45q77 0 125 38.5t70 99.5h-147l25 122h289l-15 -73
q-29 -144 -124.5 -227.5t-240.5 -83.5z" />
    <glyph glyph-name="H" unicode="H" horiz-adv-x="735" 
d="M661 700h137l-142 -700h-137l61 300h-303l-61 -300h-137l142 700h137l-56 -277h303z" />
    <glyph glyph-name="I" unicode="I" horiz-adv-x="295" 
d="M79 0l142 700h138l-142 -700h-138z" />
    <glyph glyph-name="J" unicode="J" horiz-adv-x="543" 
d="M241 -9q-106 0 -154 61t-29 155h130q-9 -42 11 -66t67 -24q46 0 75.5 26.5t38.5 70.5l99 486h138l-99 -486q-21 -102 -90.5 -162.5t-186.5 -60.5z" />
    <glyph glyph-name="K" unicode="K" horiz-adv-x="663" 
d="M784 700l-2 -10l-373 -330l246 -350l-2 -10h-155l-219 312l-63 -312h-137l142 700h137l-58 -284l321 284h163z" />
    <glyph glyph-name="L" unicode="L" horiz-adv-x="554" 
d="M79 0l142 700h137l-118 -577h324l-25 -123h-460z" />
    <glyph glyph-name="M" unicode="M" horiz-adv-x="880" 
d="M79 0l142 700h147l137 -351h4l279 351h155l-142 -700h-132l98 483h-4l-294 -366h-10l-145 369h-4l-99 -486h-132z" />
    <glyph glyph-name="N" unicode="N" horiz-adv-x="743" 
d="M79 0l142 700h152l195 -486h4l98 486h136l-142 -700h-151l-197 483h-4l-98 -483h-135z" />
    <glyph glyph-name="O" unicode="O" horiz-adv-x="740" 
d="M370 -9q-133 0 -202 77.5t-69 201.5q0 81 26.5 158t76 140.5t130 102t180.5 38.5q133 0 202 -77t69 -202q0 -81 -27.5 -158.5t-78 -140.5t-131 -101.5t-176.5 -38.5zM394 116q79 0 137 45t84 111t26 142q0 80 -38 125t-114 45q-61 0 -109.5 -26t-78 -69.5t-45 -95.5
t-15.5 -107q0 -80 38.5 -125t114.5 -45z" />
    <glyph glyph-name="P" unicode="P" horiz-adv-x="649" 
d="M79 0l142 700h298q90 0 141.5 -51.5t51.5 -132.5q0 -116 -80.5 -196t-202.5 -80h-164l-49 -240h-137zM289 363h139q68 0 104.5 35t36.5 97q0 40 -25.5 61.5t-71.5 21.5h-139z" />
    <glyph glyph-name="Q" unicode="Q" horiz-adv-x="740" 
d="M783 430q0 -104 -44 -201t-125 -159l65 -133l-2 -10h-138l-41 83q-62 -19 -128 -19q-133 0 -202 77.5t-69 201.5q0 81 26.5 158t76 140.5t130 102t180.5 38.5q133 0 202 -77t69 -202zM394 116q25 0 50 5l-62 128l2 10h137l37 -75q83 86 83 230q0 80 -38 125t-114 45
q-61 0 -109.5 -26t-78 -69.5t-45 -95.5t-15.5 -107q0 -80 38.5 -125t114.5 -45z" />
    <glyph glyph-name="R" unicode="R" horiz-adv-x="670" 
d="M723 519q0 -89 -52 -156t-137 -93l121 -260l-2 -10h-157l-109 256h-120l-51 -256h-137l142 700h307q92 0 143.5 -51.5t51.5 -129.5zM333 577l-40 -199h161q59 0 92.5 36.5t33.5 84.5q0 35 -21 56.5t-62 21.5h-164z" />
    <glyph glyph-name="S" unicode="S" horiz-adv-x="632" 
d="M315 -9q-134 0 -195 64.5t-44 175.5h139q-7 -58 25 -88t98 -30q81 0 121.5 27t40.5 74q0 55 -80 71l-98 22q-172 39 -172 168q0 106 81 170t226 64q118 0 183 -62t46 -160h-139q5 44 -22.5 71.5t-91.5 27.5q-68 0 -103 -24t-35 -63q0 -47 77 -65l90 -20q88 -19 135.5 -60
t47.5 -114q0 -111 -81.5 -180t-248.5 -69z" />
    <glyph glyph-name="T" unicode="T" horiz-adv-x="592" 
d="M227 0l117 576h-206l25 124h550l-24 -124h-207l-117 -576h-138z" />
    <glyph glyph-name="U" unicode="U" horiz-adv-x="714" 
d="M363 -9q-128 0 -197.5 73t-42.5 204l88 432h137l-87 -430q-15 -71 11.5 -113.5t106.5 -42.5q152 0 183 156l88 430h137l-87 -432q-28 -136 -115 -206.5t-222 -70.5z" />
    <glyph glyph-name="V" unicode="V" horiz-adv-x="694" 
d="M268 0l-112 690l2 10h148l68 -533h4l281 533h161l-2 -10l-390 -690h-160z" />
    <glyph glyph-name="W" unicode="W" horiz-adv-x="937" 
d="M176 0l-20 690l2 10h151l-5 -506h4l223 506h157l20 -506h4l199 506h152l-2 -10l-300 -690h-176l-14 490h-4l-217 -490h-174z" />
    <glyph glyph-name="X" unicode="X" horiz-adv-x="682" 
d="M16 0l2 10l294 342l1 4l-148 334l2 10h155l104 -255h4l207 255h168l-2 -10l-279 -339l-1 -4l144 -337l-2 -10h-156l-106 255h-4l-207 -255h-176z" />
    <glyph glyph-name="Y" unicode="Y" horiz-adv-x="684" 
d="M274 0l57 282l-175 408l2 10h153l108 -281h4l224 281h163l-2 -10l-339 -407l-57 -283h-138z" />
    <glyph glyph-name="Z" unicode="Z" horiz-adv-x="597" 
d="M33 0l24 120l441 452l1 4h-340l25 124h516l-24 -122l-440 -451l-1 -4h354l-25 -123h-531z" />
    <glyph glyph-name="bracketleft" unicode="[" horiz-adv-x="339" 
d="M1 -172l191 936h237l-21 -104h-125l-148 -729h125l-21 -103h-238z" />
    <glyph glyph-name="backslash" unicode="\" horiz-adv-x="438" 
d="M271 -133l-107 860l2 10h126l106 -860l-2 -10h-125z" />
    <glyph glyph-name="bracketright" unicode="]" horiz-adv-x="339" 
d="M30 -172l21 103h125l149 729h-125l22 104h237l-190 -936h-239z" />
    <glyph glyph-name="asciicircum" unicode="^" horiz-adv-x="588" 
d="M102 310l2 10l274 380h117l119 -380l-2 -10h-121l-75 259h-4l-179 -259h-131z" />
    <glyph glyph-name="underscore" unicode="_" horiz-adv-x="562" 
d="M11 -134l23 107h485l-22 -107h-486z" />
    <glyph glyph-name="grave" unicode="`" horiz-adv-x="279" 
d="M266 583l-87 143l2 10h147l40 -143l-2 -10h-100z" />
    <glyph glyph-name="a" unicode="a" 
d="M244 -9q-81 0 -124 57t-43 148q0 139 75.5 236t197.5 97q102 0 133 -65h4l26 56h119l-105 -520h-120l-2 56h-4q-58 -65 -157 -65zM305 109q73 0 112.5 60.5t39.5 135.5q0 48 -22 77t-69 29q-41 0 -72 -18.5t-47.5 -48.5t-24 -62t-7.5 -65q0 -49 22 -78.5t68 -29.5z" />
    <glyph glyph-name="b" unicode="b" horiz-adv-x="588" 
d="M343 -9q-98 0 -132 65h-4l-26 -56h-120l151 740h134l-56 -276h4q59 65 153 65q82 0 126.5 -56t44.5 -148q0 -136 -77.5 -235t-197.5 -99zM327 109q76 0 114 59.5t38 135.5q0 48 -21.5 77.5t-68.5 29.5q-41 0 -71.5 -18t-47.5 -48t-25 -62t-8 -65q0 -49 22 -79t68 -30z
" />
    <glyph glyph-name="c" unicode="c" horiz-adv-x="549" 
d="M284 -9q-100 0 -153.5 57t-53.5 152q0 142 81.5 235.5t223.5 93.5q108 0 159.5 -57.5t39.5 -149.5h-135q5 40 -16 64.5t-63 24.5q-74 0 -113 -54.5t-39 -142.5q0 -105 90 -105q43 0 74 23.5t43 63.5h135q-22 -92 -92.5 -148.5t-180.5 -56.5z" />
    <glyph glyph-name="d" unicode="d" 
d="M244 -9q-79 0 -123 56.5t-44 146.5q0 138 76.5 236.5t196.5 98.5q97 0 133 -65h4l57 276h134l-151 -740h-120l-3 56h-4q-61 -65 -156 -65zM305 109q75 0 113.5 59.5t38.5 135.5q0 48 -22 77.5t-69 29.5q-54 0 -90 -32.5t-48.5 -73.5t-12.5 -88q0 -49 22 -78.5t68 -29.5z
" />
    <glyph glyph-name="e" unicode="e" horiz-adv-x="555" 
d="M283 -9q-99 0 -152 59t-53 153q0 63 19.5 121t56.5 104t95.5 73.5t130.5 27.5q118 0 169.5 -72t28.5 -182l-10 -52h-354q-9 -56 13 -88.5t77 -32.5q82 0 114 60h131q-26 -75 -94.5 -123t-171.5 -48zM233 312h216q8 47 -12.5 76t-70.5 29q-53 0 -87 -29t-46 -76z" />
    <glyph glyph-name="f" unicode="f" horiz-adv-x="412" 
d="M67 -229l130 636h-91l23 113h91l9 44q35 186 235 186h66l-24 -115h-49q-81 0 -94 -71l-9 -44h124l-23 -113h-124l-130 -636h-134z" />
    <glyph glyph-name="g" unicode="g" 
d="M233 -238q-104 0 -157.5 51.5t-38.5 135.5h131q-3 -31 19.5 -51.5t66.5 -20.5q55 0 90 27.5t44 71.5l16 80h-4q-61 -65 -156 -65q-79 0 -123.5 56.5t-44.5 146.5q0 138 77 236.5t197 98.5q97 0 133 -65h4l26 56h119l-110 -546q-21 -99 -94 -155.5t-195 -56.5zM305 109
q41 0 71.5 18.5t47.5 48t25 62t8 65.5q0 48 -22.5 78t-68.5 30q-76 0 -113.5 -59t-37.5 -137q0 -48 22 -77t68 -29z" />
    <glyph glyph-name="h" unicode="h" horiz-adv-x="588" 
d="M61 0l151 740h134l-57 -279h4q63 68 161 68q87 0 128.5 -50.5t23.5 -137.5l-70 -341h-134l62 303q21 104 -76 104q-48 0 -85.5 -32.5t-48.5 -87.5l-59 -287h-134z" />
    <glyph glyph-name="i" unicode="i" horiz-adv-x="247" 
d="M178 594l28 140h144l-28 -140h-144zM61 0l106 520h134l-106 -520h-134z" />
    <glyph glyph-name="j" unicode="j" horiz-adv-x="254" 
d="M185 594l29 140h144l-29 -140h-144zM-86 -238l27 124h38q67 0 81 73l114 561h134l-119 -589q-17 -83 -71.5 -126t-138.5 -43h-65z" />
    <glyph glyph-name="k" unicode="k" horiz-adv-x="548" 
d="M631 520l-2 -10l-262 -238l170 -262l-2 -10h-147l-152 237l-48 -237h-127l151 740h127l-86 -419l212 199h166z" />
    <glyph glyph-name="l" unicode="l" horiz-adv-x="247" 
d="M61 0l151 740h134l-151 -740h-134z" />
    <glyph glyph-name="m" unicode="m" horiz-adv-x="899" 
d="M766 529q86 0 127.5 -51t23.5 -137l-70 -341h-134l62 303q21 104 -69 104q-43 0 -75 -28.5t-46 -77.5l-61 -301h-133l62 303q21 104 -69 104q-48 0 -83.5 -32t-46.5 -87l-59 -288h-134l106 520h119l-1 -59h4q63 68 160 68q109 0 140 -77h3q67 77 174 77z" />
    <glyph glyph-name="n" unicode="n" horiz-adv-x="584" 
d="M61 0l106 520h119l-1 -59h4q63 68 161 68q87 0 128.5 -50.5t23.5 -137.5l-70 -341h-134l62 303q21 104 -75 104q-47 0 -83.5 -32t-47.5 -87l-59 -288h-134z" />
    <glyph glyph-name="o" unicode="o" horiz-adv-x="569" 
d="M290 -9q-102 0 -157.5 57.5t-55.5 150.5q0 142 78.5 236t229.5 94q102 0 157.5 -58t55.5 -152q0 -91 -31 -163t-102.5 -118.5t-174.5 -46.5zM307 109q73 0 113 53t40 142q0 107 -92 107q-72 0 -112 -54t-40 -142q0 -106 91 -106z" />
    <glyph glyph-name="p" unicode="p" horiz-adv-x="588" 
d="M14 -229l153 749h119l4 -56h4q54 65 149 65q79 0 127 -57.5t48 -146.5q0 -137 -77 -235.5t-198 -98.5q-99 0 -132 65h-4l-59 -285h-134zM328 109q55 0 90.5 32.5t48 73.5t12.5 88q0 49 -22 78.5t-68 29.5q-75 0 -113.5 -60t-38.5 -136q0 -47 22.5 -76.5t68.5 -29.5z" />
    <glyph glyph-name="q" unicode="q" 
d="M346 -229l58 285h-4q-59 -65 -154 -65q-82 0 -126 56t-44 147q0 137 77 236t198 99q96 0 132 -65h4l26 56h119l-152 -749h-134zM305 109q41 0 71.5 18t47.5 48t25 61.5t8 64.5q0 49 -22 79.5t-68 30.5q-53 0 -88.5 -32t-49.5 -74t-14 -89q0 -48 21.5 -77.5t68.5 -29.5z
" />
    <glyph glyph-name="r" unicode="r" horiz-adv-x="389" 
d="M61 0l106 520h112l-5 -79h4q57 87 152 87h43l-29 -124h-47q-60 0 -101.5 -39.5t-55.5 -109.5l-52 -255h-127z" />
    <glyph glyph-name="s" unicode="s" horiz-adv-x="511" 
d="M256 -9q-110 0 -156.5 49.5t-31.5 134.5h134q-6 -31 13.5 -51t62.5 -20q48 0 73 15.5t25 39.5q0 34 -51 44l-79 16q-57 11 -91 43t-34 86q0 81 60 131t180 50q96 0 144.5 -48.5t34.5 -124.5h-132q6 29 -12 47.5t-57 18.5q-38 0 -61 -15t-23 -40q0 -30 44 -39l91 -18
q124 -25 124 -125q0 -93 -68 -143.5t-190 -50.5z" />
    <glyph glyph-name="t" unicode="t" horiz-adv-x="417" 
d="M283 0q-83 0 -118.5 43.5t-20.5 114.5l49 248h-84l22 114h91l28 137h128l-28 -137h125l-22 -114h-126l-43 -219q-7 -37 5 -53.5t47 -16.5h62l-23 -117h-92z" />
    <glyph glyph-name="u" unicode="u" horiz-adv-x="579" 
d="M241 -9q-87 0 -128 50.5t-23 137.5l69 341h134l-61 -303q-21 -105 75 -105q47 0 83 32.5t48 87.5l58 288h134l-105 -520h-120l1 59h-4q-61 -68 -161 -68z" />
    <glyph glyph-name="v" unicode="v" horiz-adv-x="570" 
d="M203 0l-87 510l2 10h139l50 -388h4l201 388h150l-2 -10l-291 -510h-166z" />
    <glyph glyph-name="w" unicode="w" horiz-adv-x="809" 
d="M139 0l-23 510l2 10h137l4 -370h4l158 370h172l10 -370h4l153 370h142l-2 -10l-229 -510h-177l-10 369h-4l-164 -369h-177z" />
    <glyph glyph-name="x" unicode="x" horiz-adv-x="552" 
d="M14 0l2 10l217 253l-110 247l2 10h146l69 -175h4l140 175h159l-2 -10l-205 -247l103 -253l-2 -10h-147l-68 179h-4l-144 -179h-160z" />
    <glyph glyph-name="y" unicode="y" horiz-adv-x="580" 
d="M107 -229l2 10l123 220l-19 2l-72 507l2 10h137l42 -380h4l201 380h145l-2 -10l-419 -739h-144z" />
    <glyph glyph-name="z" unicode="z" horiz-adv-x="502" 
d="M41 0l22 112l307 290l1 4h-246l22 114h418l-23 -113l-306 -289v-4h249l-24 -114h-420z" />
    <glyph glyph-name="braceleft" unicode="{" horiz-adv-x="430" 
d="M447 764h74l-22 -104h-44q-79 0 -96 -84l-35 -173q-19 -93 -104 -105l-1 -2v-2q82 -13 61 -105l-35 -173q-9 -44 6 -64t56 -20h44l-21 -104h-73q-75 0 -110.5 43t-20.5 117l34 164q9 47 -9.5 67.5t-65.5 22.5l22 108q47 2 75 22.5t37 67.5l33 164q15 75 65.5 117.5
t129.5 42.5z" />
    <glyph glyph-name="bar" unicode="|" horiz-adv-x="274" 
d="M51 -138l183 898h116l-183 -898h-116z" />
    <glyph glyph-name="braceright" unicode="}" horiz-adv-x="430" 
d="M391 440q-9 -47 9.5 -67.5t64.5 -22.5l-22 -108q-93 -3 -111 -90l-33 -164q-15 -75 -65.5 -117.5t-129.5 -42.5h-74l21 104h44q79 0 96 84l35 173q19 93 105 105v2l1 2q-81 12 -62 105l35 173q9 44 -6 64t-56 20h-44l22 104h73q75 0 110.5 -43t20.5 -117z" />
    <glyph glyph-name="asciitilde" unicode="~" horiz-adv-x="544" 
d="M412 203q-47 0 -92 27l-40 25q-26 15 -51 15q-56 0 -91 -57l-62 48q28 51 73 83.5t100 32.5q47 0 90 -26l41 -25q27 -16 54 -16q55 0 90 57l62 -48q-28 -51 -73 -83.5t-101 -32.5z" />
    <glyph glyph-name="exclamdown" unicode="&#xa1;" horiz-adv-x="258" 
d="M127 377l30 143h148l-30 -143h-148zM20 -189l19 96l99 382h97l-52 -382l-19 -96h-144z" />
    <glyph glyph-name="cent" unicode="&#xa2;" horiz-adv-x="549" 
d="M600 412h-135q8 62 -40 82l-58 -288q55 20 74 80h135q-20 -84 -80 -138.5t-154 -64.5l-17 -83h-89l17 85q-76 14 -116.5 68.5t-40.5 136.5q0 131 70.5 222t194.5 105l17 83h89l-17 -85q83 -12 122 -67.5t28 -135.5zM234 304q0 -72 44 -95l58 284q-50 -17 -76 -67.5
t-26 -121.5z" />
    <glyph glyph-name="sterling" unicode="&#xa3;" horiz-adv-x="608" 
d="M34 0l24 117q33 0 57 21t31 59l17 86h-73l24 116h73l20 100q19 95 87 154t181 59q107 0 158 -63.5t32 -152.5h-126q8 44 -11.5 74.5t-71.5 30.5q-47 0 -80 -28t-42 -74l-20 -100h191l-23 -116h-192l-18 -90q-11 -57 -48 -75l-1 -4h383l-24 -114h-548z" />
    <glyph glyph-name="currency" unicode="&#xa4;" horiz-adv-x="568" 
d="M100 -15l-60 74l84 72q-13 39 -13 79q0 77 62 154l-55 73l89 73l57 -73q60 31 118 31q59 0 103 -29l84 71l60 -73l-82 -70q16 -37 16 -85q0 -79 -64 -155l53 -68l-90 -74l-53 69q-62 -30 -117 -30q-60 0 -108 33zM314 133q54 0 94.5 39t40.5 95q0 41 -25 66.5t-65 25.5
q-54 0 -95.5 -39t-41.5 -95q0 -41 25.5 -66.5t66.5 -25.5z" />
    <glyph glyph-name="yen" unicode="&#xa5;" horiz-adv-x="684" 
d="M810 700l-2 -10l-237 -288h95l-21 -103h-159l-13 -16l-12 -59h168l-20 -102h-169l-25 -122h-138l25 122h-177l20 102h178l12 58l-7 17h-168l22 103h100l-126 288l2 10h161l105 -281h4l217 281h165z" />
    <glyph glyph-name="brokenbar" unicode="&#xa6;" horiz-adv-x="274" 
d="M161 402l73 358h116l-73 -358h-116zM51 -138l73 358h116l-73 -358h-116z" />
    <glyph glyph-name="section" unicode="&#xa7;" horiz-adv-x="608" 
d="M252 -245q-93 0 -138.5 53.5t-28.5 136.5h111q-7 -39 12 -61.5t61 -22.5q45 0 71.5 23t26.5 59q0 35 -33 62l-149 128q-66 56 -66 127q0 110 122 171q-22 35 -22 81q0 83 64 140t167 57q93 0 138.5 -53.5t29.5 -136.5h-111q7 39 -12 61.5t-61 22.5q-44 0 -71.5 -23.5
t-27.5 -58.5q0 -34 33 -62l144 -123q70 -58 70 -133q0 -108 -122 -170q23 -34 23 -81q0 -84 -63 -140.5t-168 -56.5zM399 102q66 25 66 81q0 38 -29 64l-132 115q-68 -26 -68 -83q0 -35 29 -60z" />
    <glyph glyph-name="dieresis" unicode="&#xa8;" horiz-adv-x="431" 
d="M183 605l24 122h122l-25 -122h-121zM376 605l24 122h122l-24 -122h-122z" />
    <glyph glyph-name="copyright" unicode="&#xa9;" horiz-adv-x="820" 
d="M551 709q156 0 234 -101t46 -258q-33 -162 -146 -260.5t-274 -98.5q-156 0 -233.5 101t-46.5 258q33 161 147 260t273 99zM428 76q123 0 206 72t109 202q25 126 -31 200t-178 74q-123 0 -205.5 -72t-109.5 -202q-24 -126 31.5 -200t177.5 -74zM523 548q75 0 110.5 -44
t25.5 -106h-84q5 36 -14 54t-53 18q-63 0 -94.5 -44t-31.5 -116q0 -86 75 -86t99 71h84q-19 -65 -70.5 -106.5t-126.5 -41.5q-72 0 -110 40.5t-38 111.5q0 108 62 178.5t166 70.5z" />
    <glyph glyph-name="ordfeminine" unicode="&#xaa;" horiz-adv-x="416" 
d="M234 296q-53 0 -82 37.5t-29 96.5q0 90 51.5 155t129.5 65q65 0 87 -43h4l16 36h81l-70 -341h-80l-2 36h-2q-40 -42 -104 -42zM275 376q47 0 72.5 39t25.5 87q0 30 -14.5 48.5t-44.5 18.5q-50 1 -73.5 -37.5t-23.5 -85.5q0 -70 58 -70z" />
    <glyph glyph-name="guillemotleft" unicode="&#xab;" horiz-adv-x="608" 
d="M205 66l-122 212l2 10l207 212h128l-2 -10l-182 -208l97 -206l-2 -10h-126zM456 66l-122 212l2 10l207 212h128l-2 -10l-182 -208l97 -206l-2 -10h-126z" />
    <glyph glyph-name="registered" unicode="&#xae;" horiz-adv-x="503" 
d="M308 277q-86 0 -136 52.5t-50 133.5q0 110 80.5 189t197.5 79q85 0 135.5 -52.5t50.5 -133.5q0 -110 -81 -189t-197 -79zM321 343q86 0 140.5 54t54.5 142q0 59 -34.5 92.5t-95.5 33.5q-86 0 -140 -54t-54 -142q0 -59 34 -92.5t95 -33.5zM249 397l42 208h102
q29 0 46.5 -16.5t17.5 -42.5q0 -23 -13 -45t-37 -33l30 -65l-1 -6h-60l-26 63h-32l-13 -63h-56zM328 509h37q32 0 32 29q0 17 -23 17h-37z" />
    <glyph glyph-name="macron" unicode="&#xaf;" horiz-adv-x="350" 
d="M155 610l21 102h288l-21 -102h-288z" />
    <glyph glyph-name="degree" unicode="&#xb0;" horiz-adv-x="427" 
d="M289 366q-66 0 -106 40.5t-40 102.5q0 85 63.5 145t151.5 60q65 0 105.5 -40.5t40.5 -102.5q0 -85 -63.5 -145t-151.5 -60zM306 455q44 0 72.5 30.5t28.5 72.5q0 30 -17 48.5t-49 18.5q-44 0 -72 -30t-28 -72q0 -30 17 -49t48 -19z" />
    <glyph glyph-name="plusminus" unicode="&#xb1;" horiz-adv-x="490" 
d="M226 196l30 145h-181l22 115h181l30 146h123l-30 -146h177l-23 -115h-177l-29 -145h-123zM10 24l23 115h480l-23 -115h-480z" />
    <glyph glyph-name="uni00B2" unicode="&#xb2;" horiz-adv-x="409" 
d="M91 249l16 80l185 141q49 37 69 60.5t20 50.5q0 20 -13.5 32.5t-38.5 12.5q-30 0 -51 -17.5t-27 -47.5h-98q13 68 64.5 109.5t125.5 41.5q63 0 100.5 -33t37.5 -82q0 -44 -22.5 -80.5t-84.5 -83.5l-126 -93v-3h190l-18 -88h-329z" />
    <glyph glyph-name="uni00B3" unicode="&#xb3;" horiz-adv-x="429" 
d="M271 239q-80 0 -123.5 40t-28.5 111h95q-5 -26 10.5 -45.5t57.5 -19.5q43 0 65.5 19t22.5 49q0 47 -71 47h-43l17 86h41q81 0 81 59q0 18 -14.5 30t-41.5 12q-68 0 -83 -66h-95q15 70 66.5 110.5t129.5 40.5q62 0 101 -31t39 -80q0 -41 -22.5 -69.5t-57.5 -41.5v-4
q53 -20 53 -83q0 -69 -51.5 -116.5t-147.5 -47.5z" />
    <glyph glyph-name="acute" unicode="&#xb4;" horiz-adv-x="279" 
d="M150 583l2 10l98 143h147l-2 -10l-145 -143h-100z" />
    <glyph glyph-name="paragraph" unicode="&#xb6;" horiz-adv-x="613" 
d="M199 -104l93 457q-67 0 -110.5 45.5t-43.5 112.5q0 88 69 153.5t162 65.5h358l-21 -98h-62l-149 -736h-111l149 736h-74l-149 -736h-111z" />
    <glyph glyph-name="periodcentered" unicode="&#xb7;" horiz-adv-x="238" 
d="M96 228l29 143h148l-29 -143h-148z" />
    <glyph glyph-name="cedilla" unicode="&#xb8;" horiz-adv-x="329" 
d="M113 -225q-54 0 -85.5 26.5t-22.5 72.5h82q-2 -14 8.5 -22.5t29.5 -8.5q55 0 55 35q0 26 -39 26h-32l-18 31l56 79h92l-46 -53q36 -2 58 -22.5t22 -51.5q0 -48 -43.5 -80t-116.5 -32z" />
    <glyph glyph-name="uni00B9" unicode="&#xb9;" horiz-adv-x="293" 
d="M207 248l72 349h-4l-122 -80h-8l19 96l134 87h98l-92 -452h-97z" />
    <glyph glyph-name="ordmasculine" unicode="&#xba;" horiz-adv-x="398" 
d="M260 296q-66 0 -101.5 38t-35.5 100q0 90 56.5 152.5t149.5 62.5q66 0 101.5 -38t35.5 -100q0 -90 -55.5 -152.5t-150.5 -62.5zM275 376q46 0 71.5 34t25.5 92q0 67 -58 67q-47 0 -71.5 -34.5t-24.5 -91.5q0 -67 57 -67z" />
    <glyph glyph-name="guillemotright" unicode="&#xbb;" horiz-adv-x="607" 
d="M233 500l122 -212l-2 -10l-207 -212h-128l2 10l182 208l-97 206l2 10h126zM485 500l122 -212l-2 -10l-207 -212h-128l2 10l182 208l-97 206l2 10h126z" />
    <glyph glyph-name="onequarter" unicode="&#xbc;" horiz-adv-x="907" 
d="M207 248l72 349h-4l-122 -80h-8l19 96l134 87h98l-92 -452h-97zM169 0l2 10l574 690h106l-2 -10l-572 -690h-108zM717 0l17 84h-208l20 95l230 273h130l-58 -281h55l-18 -87h-55l-16 -84h-97zM641 171h111l35 171h-4l-141 -167z" />
    <glyph glyph-name="onehalf" unicode="&#xbd;" horiz-adv-x="946" 
d="M207 248l72 349h-4l-122 -80h-8l19 96l134 87h98l-92 -452h-97zM169 0l2 10l574 690h106l-2 -10l-572 -690h-108zM577 0l17 79l185 141q49 37 69 61t20 51q0 19 -13.5 31.5t-38.5 12.5q-30 0 -51.5 -17t-27.5 -47h-97q12 68 63.5 109.5t126.5 41.5q63 0 100.5 -33.5
t37.5 -81.5q0 -44 -23 -81t-85 -83l-125 -94v-3h190l-19 -87h-329z" />
    <glyph glyph-name="threequarters" unicode="&#xbe;" horiz-adv-x="997" 
d="M271 239q-80 0 -123.5 40t-28.5 111h95q-5 -26 10.5 -45.5t57.5 -19.5q43 0 65.5 19t22.5 49q0 47 -71 47h-43l17 86h41q81 0 81 59q0 18 -14.5 30t-41.5 12q-68 0 -83 -66h-95q15 70 66.5 110.5t129.5 40.5q62 0 101 -31t39 -80q0 -41 -22.5 -69.5t-57.5 -41.5v-4
q53 -20 53 -83q0 -69 -51.5 -116.5t-147.5 -47.5zM259 0l2 10l574 690h106l-2 -10l-572 -690h-108zM807 0l17 84h-208l20 95l230 273h130l-58 -281h55l-18 -87h-55l-16 -84h-97zM731 171h111l35 171h-4l-141 -167z" />
    <glyph glyph-name="questiondown" unicode="&#xbf;" horiz-adv-x="543" 
d="M284 377l29 143h148l-29 -143h-148zM231 -189q-91 0 -144 45.5t-53 116.5q0 107 110 181l50 33q43 29 60 47t23 49l3 16h131l-3 -18q-10 -60 -37 -92.5t-84 -71.5l-37 -25q-39 -26 -56.5 -48t-17.5 -50t19.5 -46.5t60.5 -18.5q101 0 121 98h132q-13 -96 -84.5 -156
t-193.5 -60z" />
    <glyph glyph-name="Agrave" unicode="&#xc0;" horiz-adv-x="696" 
d="M578 763h-100l-87 143l2 10h147l40 -143zM577 700l106 -690l-2 -10h-147l-18 147h-272l-77 -147h-151l2 10l384 690h175zM308 268h193l-35 292h-4z" />
    <glyph glyph-name="Aacute" unicode="&#xc1;" horiz-adv-x="696" 
d="M539 916h147l-2 -10l-145 -143h-100l2 10zM402 700h175l106 -690l-2 -10h-147l-18 147h-272l-77 -147h-151l2 10zM308 268h193l-35 292h-4z" />
    <glyph glyph-name="Acircumflex" unicode="&#xc2;" horiz-adv-x="696" 
d="M518 826l-73 -61h-110l2 10l125 139h148l68 -139l-2 -10h-106l-48 61h-4zM577 700l106 -690l-2 -10h-147l-18 147h-272l-77 -147h-151l2 10l384 690h175zM308 268h193l-35 292h-4z" />
    <glyph glyph-name="Atilde" unicode="&#xc3;" horiz-adv-x="696" 
d="M605 903h82l-3 -15q-24 -120 -129 -120q-34 0 -62 19l-14 9q-21 12 -35 12q-30 0 -38 -38h-83l3 15q12 57 47 88.5t83 31.5q31 0 65 -20l13 -8q21 -14 35 -14q28 0 36 40zM402 700h175l106 -690l-2 -10h-147l-18 147h-272l-77 -147h-151l2 10zM308 268h193l-35 292h-4z
" />
    <glyph glyph-name="Adieresis" unicode="&#xc4;" horiz-adv-x="696" 
d="M500 907l-25 -122h-121l24 122h122zM693 907l-24 -122h-122l24 122h122zM402 700h175l106 -690l-2 -10h-147l-18 147h-272l-77 -147h-151l2 10zM308 268h193l-35 292h-4z" />
    <glyph glyph-name="Aring" unicode="&#xc5;" horiz-adv-x="696" 
d="M502 749q-43 0 -71 26t-28 67q0 57 39.5 94.5t98.5 37.5q44 0 71.5 -26t27.5 -67q0 -57 -39 -94.5t-99 -37.5zM529 906q-23 0 -38.5 -16t-15.5 -38q0 -15 10 -25t26 -10q25 0 41 15t16 37q0 16 -10.5 26.5t-28.5 10.5zM577 700l106 -690l-2 -10h-147l-18 147h-272
l-77 -147h-151l2 10l384 690h175zM308 268h193l-35 292h-4z" />
    <glyph glyph-name="AE" unicode="&#xc6;" horiz-adv-x="914" 
d="M16 0l2 10l385 690h608l-25 -123h-390l24 -155h304l-26 -122h-260l28 -178h227l-24 -122h-339l-19 147h-273l-78 -147h-144zM302 268h195l-36 292h-4z" />
    <glyph glyph-name="Ccedilla" unicode="&#xc7;" horiz-adv-x="709" 
d="M761 445h-140q6 60 -27 99.5t-106 39.5q-119 0 -183 -85.5t-64 -213.5q0 -80 38 -125t114 -45q71 0 119 36.5t70 96.5h139q-32 -107 -115.5 -177t-204.5 -79l-27 -31q36 -2 58 -22.5t22 -51.5q0 -48 -43.5 -80t-116.5 -32q-54 0 -85.5 26.5t-22.5 72.5h82
q-2 -14 8.5 -22.5t29.5 -8.5q55 0 55 35q0 26 -39 26h-32l-18 31l43 60q-104 17 -160 91t-56 183q0 120 45.5 218.5t140 160t223.5 61.5t198.5 -75t54.5 -189z" />
    <glyph glyph-name="Egrave" unicode="&#xc8;" horiz-adv-x="610" 
d="M464 763l-87 143l2 10h147l40 -143l-2 -10h-100zM79 0l142 700h485l-24 -123h-349l-31 -155h318l-26 -122h-318l-36 -178h349l-25 -122h-485z" />
    <glyph glyph-name="Eacute" unicode="&#xc9;" horiz-adv-x="610" 
d="M425 763l2 10l98 143h147l-2 -10l-145 -143h-100zM79 0l142 700h485l-24 -123h-349l-31 -155h318l-26 -122h-318l-36 -178h349l-25 -122h-485z" />
    <glyph glyph-name="Ecircumflex" unicode="&#xca;" horiz-adv-x="610" 
d="M321 765l2 10l125 139h148l68 -139l-2 -10h-106l-48 61h-4l-73 -61h-110zM79 0l142 700h485l-24 -123h-349l-31 -155h318l-26 -122h-318l-36 -178h349l-25 -122h-485z" />
    <glyph glyph-name="Edieresis" unicode="&#xcb;" horiz-adv-x="610" 
d="M340 785l24 122h122l-25 -122h-121zM533 785l24 122h122l-24 -122h-122zM79 0l142 700h485l-24 -123h-349l-31 -155h318l-26 -122h-318l-36 -178h349l-25 -122h-485z" />
    <glyph glyph-name="Igrave" unicode="&#xcc;" horiz-adv-x="295" 
d="M280 763l-87 143l2 10h147l40 -143l-2 -10h-100zM79 0l142 700h138l-142 -700h-138z" />
    <glyph glyph-name="Iacute" unicode="&#xcd;" horiz-adv-x="295" 
d="M241 763l2 10l98 143h147l-2 -10l-145 -143h-100zM79 0l142 700h138l-142 -700h-138z" />
    <glyph glyph-name="Icircumflex" unicode="&#xce;" horiz-adv-x="295" 
d="M137 765l2 10l125 139h148l68 -139l-2 -10h-106l-48 61h-4l-73 -61h-110zM79 0l142 700h138l-142 -700h-138z" />
    <glyph glyph-name="Idieresis" unicode="&#xcf;" horiz-adv-x="295" 
d="M156 785l24 122h122l-25 -122h-121zM349 785l24 122h122l-24 -122h-122zM79 0l142 700h138l-142 -700h-138z" />
    <glyph glyph-name="Eth" unicode="&#xd0;" horiz-adv-x="748" 
d="M501 700q132 0 210.5 -77.5t78.5 -204.5q0 -178 -112.5 -298t-313.5 -120h-241l62 304h-72l24 117h71l57 279h236zM377 122q125 0 198 81t73 202q0 82 -46 127t-132 45h-100l-32 -156h158l-25 -117h-157l-37 -182h100z" />
    <glyph glyph-name="Ntilde" unicode="&#xd1;" horiz-adv-x="743" 
d="M602 768q-34 0 -62 19l-14 9q-21 12 -35 12q-30 0 -38 -38h-83l3 15q12 57 47 88.5t83 31.5q31 0 65 -20l13 -8q21 -14 35 -14q28 0 36 40h82l-3 -15q-24 -120 -129 -120zM79 0l142 700h152l195 -486h4l98 486h136l-142 -700h-151l-197 483h-4l-98 -483h-135z" />
    <glyph glyph-name="Ograve" unicode="&#xd2;" horiz-adv-x="740" 
d="M502 763l-87 143l2 10h147l40 -143l-2 -10h-100zM370 -9q-133 0 -202 77.5t-69 201.5q0 81 26.5 158t76 140.5t130 102t180.5 38.5q133 0 202 -77t69 -202q0 -81 -27.5 -158.5t-78 -140.5t-131 -101.5t-176.5 -38.5zM394 116q79 0 137 45t84 111t26 142q0 80 -38 125
t-114 45q-61 0 -109.5 -26t-78 -69.5t-45 -95.5t-15.5 -107q0 -80 38.5 -125t114.5 -45z" />
    <glyph glyph-name="Oacute" unicode="&#xd3;" horiz-adv-x="740" 
d="M463 763l2 10l98 143h147l-2 -10l-145 -143h-100zM370 -9q-133 0 -202 77.5t-69 201.5q0 81 26.5 158t76 140.5t130 102t180.5 38.5q133 0 202 -77t69 -202q0 -81 -27.5 -158.5t-78 -140.5t-131 -101.5t-176.5 -38.5zM394 116q79 0 137 45t84 111t26 142q0 80 -38 125
t-114 45q-61 0 -109.5 -26t-78 -69.5t-45 -95.5t-15.5 -107q0 -80 38.5 -125t114.5 -45z" />
    <glyph glyph-name="Ocircumflex" unicode="&#xd4;" horiz-adv-x="740" 
d="M359 765l2 10l125 139h148l68 -139l-2 -10h-106l-48 61h-4l-73 -61h-110zM370 -9q-133 0 -202 77.5t-69 201.5q0 81 26.5 158t76 140.5t130 102t180.5 38.5q133 0 202 -77t69 -202q0 -81 -27.5 -158.5t-78 -140.5t-131 -101.5t-176.5 -38.5zM394 116q79 0 137 45t84 111
t26 142q0 80 -38 125t-114 45q-61 0 -109.5 -26t-78 -69.5t-45 -95.5t-15.5 -107q0 -80 38.5 -125t114.5 -45z" />
    <glyph glyph-name="Otilde" unicode="&#xd5;" horiz-adv-x="740" 
d="M579 768q-34 0 -62 19l-14 9q-21 12 -35 12q-30 0 -38 -38h-83l3 15q12 57 47 88.5t83 31.5q31 0 65 -20l13 -8q21 -14 35 -14q28 0 36 40h82l-3 -15q-24 -120 -129 -120zM370 -9q-133 0 -202 77.5t-69 201.5q0 81 26.5 158t76 140.5t130 102t180.5 38.5q133 0 202 -77
t69 -202q0 -81 -27.5 -158.5t-78 -140.5t-131 -101.5t-176.5 -38.5zM394 116q79 0 137 45t84 111t26 142q0 80 -38 125t-114 45q-61 0 -109.5 -26t-78 -69.5t-45 -95.5t-15.5 -107q0 -80 38.5 -125t114.5 -45z" />
    <glyph glyph-name="Odieresis" unicode="&#xd6;" horiz-adv-x="740" 
d="M378 785l24 122h122l-25 -122h-121zM571 785l24 122h122l-24 -122h-122zM370 -9q-133 0 -202 77.5t-69 201.5q0 81 26.5 158t76 140.5t130 102t180.5 38.5q133 0 202 -77t69 -202q0 -81 -27.5 -158.5t-78 -140.5t-131 -101.5t-176.5 -38.5zM394 116q79 0 137 45t84 111
t26 142q0 80 -38 125t-114 45q-61 0 -109.5 -26t-78 -69.5t-45 -95.5t-15.5 -107q0 -80 38.5 -125t114.5 -45z" />
    <glyph glyph-name="multiply" unicode="&#xd7;" horiz-adv-x="451" 
d="M107 98l-71 86l171 140l-109 133l98 81l108 -133l166 137l71 -86l-167 -138l112 -141l-98 -79l-111 139z" />
    <glyph glyph-name="Oslash" unicode="&#xd8;" horiz-adv-x="740" 
d="M862 738l-2 -10l-120 -130q43 -68 43 -168q0 -81 -27.5 -158.5t-78 -140.5t-131 -101.5t-176.5 -38.5q-94 0 -157 40l-70 -76h-124l2 10l124 134q-46 68 -46 171q0 81 26.5 158t76 140.5t130 102t180.5 38.5q94 0 159 -41l65 70h126zM241 286q0 -42 10 -72l323 349
q-33 21 -85 21q-61 0 -109.5 -26t-78 -69.5t-45 -95.5t-15.5 -107zM641 414q0 38 -9 69l-321 -347q34 -20 83 -20q79 0 137 45t84 111t26 142z" />
    <glyph glyph-name="Ugrave" unicode="&#xd9;" horiz-adv-x="714" 
d="M487 763l-87 143l2 10h147l40 -143l-2 -10h-100zM363 -9q-128 0 -197.5 73t-42.5 204l88 432h137l-87 -430q-15 -71 11.5 -113.5t106.5 -42.5q152 0 183 156l88 430h137l-87 -432q-28 -136 -115 -206.5t-222 -70.5z" />
    <glyph glyph-name="Uacute" unicode="&#xda;" horiz-adv-x="714" 
d="M448 763l2 10l98 143h147l-2 -10l-145 -143h-100zM363 -9q-128 0 -197.5 73t-42.5 204l88 432h137l-87 -430q-15 -71 11.5 -113.5t106.5 -42.5q152 0 183 156l88 430h137l-87 -432q-28 -136 -115 -206.5t-222 -70.5z" />
    <glyph glyph-name="Ucircumflex" unicode="&#xdb;" horiz-adv-x="714" 
d="M344 765l2 10l125 139h148l68 -139l-2 -10h-106l-48 61h-4l-73 -61h-110zM363 -9q-128 0 -197.5 73t-42.5 204l88 432h137l-87 -430q-15 -71 11.5 -113.5t106.5 -42.5q152 0 183 156l88 430h137l-87 -432q-28 -136 -115 -206.5t-222 -70.5z" />
    <glyph glyph-name="Udieresis" unicode="&#xdc;" horiz-adv-x="714" 
d="M363 785l24 122h122l-25 -122h-121zM556 785l24 122h122l-24 -122h-122zM363 -9q-128 0 -197.5 73t-42.5 204l88 432h137l-87 -430q-15 -71 11.5 -113.5t106.5 -42.5q152 0 183 156l88 430h137l-87 -432q-28 -136 -115 -206.5t-222 -70.5z" />
    <glyph glyph-name="Yacute" unicode="&#xdd;" horiz-adv-x="684" 
d="M436 763l2 10l98 143h147l-2 -10l-145 -143h-100zM274 0l57 282l-175 408l2 10h153l108 -281h4l224 281h163l-2 -10l-339 -407l-57 -283h-138z" />
    <glyph glyph-name="Thorn" unicode="&#xde;" horiz-adv-x="635" 
d="M79 0l142 700h138l-19 -93h163q90 0 140 -51.5t50 -132.5q0 -116 -81.5 -196t-202.5 -80h-163l-29 -147h-138zM272 270h137q68 0 105 35t37 97q0 40 -25.5 61.5t-72.5 21.5h-138z" />
    <glyph glyph-name="germandbls" unicode="&#xdf;" horiz-adv-x="671" 
d="M14 -229l154 750q20 103 102 166t196 63q99 0 151.5 -43t52.5 -112q0 -56 -23 -93.5t-56 -54t-65.5 -27.5t-55.5 -24t-23 -34q0 -14 11 -22.5t34 -16.5l76 -27q105 -36 105 -121q0 -81 -66 -132.5t-167 -51.5q-97 0 -142 50t-30 135h127q-13 -74 68 -74q35 0 57 15t22 39
q0 32 -57 52l-60 20q-104 36 -104 116q0 51 22.5 84.5t55 48.5t64.5 26.5t54.5 28.5t22.5 43q0 59 -98 59q-57 0 -93.5 -29.5t-47.5 -85.5l-153 -748h-134z" />
    <glyph glyph-name="agrave" unicode="&#xe0;" 
d="M373 583l-87 143l2 10h147l40 -143l-2 -10h-100zM244 -9q-81 0 -124 57t-43 148q0 139 75.5 236t197.5 97q102 0 133 -65h4l26 56h119l-105 -520h-120l-2 56h-4q-58 -65 -157 -65zM305 109q73 0 112.5 60.5t39.5 135.5q0 48 -22 77t-69 29q-41 0 -72 -18.5t-47.5 -48.5
t-24 -62t-7.5 -65q0 -49 22 -78.5t68 -29.5z" />
    <glyph glyph-name="aacute" unicode="&#xe1;" 
d="M334 583l2 10l98 143h147l-2 -10l-145 -143h-100zM244 -9q-81 0 -124 57t-43 148q0 139 75.5 236t197.5 97q102 0 133 -65h4l26 56h119l-105 -520h-120l-2 56h-4q-58 -65 -157 -65zM305 109q73 0 112.5 60.5t39.5 135.5q0 48 -22 77t-69 29q-41 0 -72 -18.5t-47.5 -48.5
t-24 -62t-7.5 -65q0 -49 22 -78.5t68 -29.5z" />
    <glyph glyph-name="acircumflex" unicode="&#xe2;" 
d="M230 585l2 10l125 139h148l68 -139l-2 -10h-106l-48 61h-4l-73 -61h-110zM244 -9q-81 0 -124 57t-43 148q0 139 75.5 236t197.5 97q102 0 133 -65h4l26 56h119l-105 -520h-120l-2 56h-4q-58 -65 -157 -65zM305 109q73 0 112.5 60.5t39.5 135.5q0 48 -22 77t-69 29
q-41 0 -72 -18.5t-47.5 -48.5t-24 -62t-7.5 -65q0 -49 22 -78.5t68 -29.5z" />
    <glyph glyph-name="atilde" unicode="&#xe3;" 
d="M450 588q-34 0 -62 19l-14 9q-21 12 -35 12q-30 0 -38 -38h-83l3 15q12 57 47 88.5t83 31.5q31 0 65 -20l13 -8q21 -14 35 -14q28 0 36 40h82l-3 -15q-24 -120 -129 -120zM244 -9q-81 0 -124 57t-43 148q0 139 75.5 236t197.5 97q102 0 133 -65h4l26 56h119l-105 -520
h-120l-2 56h-4q-58 -65 -157 -65zM305 109q73 0 112.5 60.5t39.5 135.5q0 48 -22 77t-69 29q-41 0 -72 -18.5t-47.5 -48.5t-24 -62t-7.5 -65q0 -49 22 -78.5t68 -29.5z" />
    <glyph glyph-name="adieresis" unicode="&#xe4;" 
d="M249 605l24 122h122l-25 -122h-121zM442 605l24 122h122l-24 -122h-122zM244 -9q-81 0 -124 57t-43 148q0 139 75.5 236t197.5 97q102 0 133 -65h4l26 56h119l-105 -520h-120l-2 56h-4q-58 -65 -157 -65zM305 109q73 0 112.5 60.5t39.5 135.5q0 48 -22 77t-69 29
q-41 0 -72 -18.5t-47.5 -48.5t-24 -62t-7.5 -65q0 -49 22 -78.5t68 -29.5z" />
    <glyph glyph-name="aring" unicode="&#xe5;" 
d="M397 569q-43 0 -71 26t-28 67q0 57 39.5 94.5t98.5 37.5q44 0 71.5 -26t27.5 -67q0 -57 -39 -94.5t-99 -37.5zM406 637q25 0 41 15t16 37q0 16 -10.5 26.5t-28.5 10.5q-23 0 -38.5 -16t-15.5 -38q0 -15 10 -25t26 -10zM244 -9q-81 0 -124 57t-43 148q0 139 75.5 236
t197.5 97q102 0 133 -65h4l26 56h119l-105 -520h-120l-2 56h-4q-58 -65 -157 -65zM305 109q73 0 112.5 60.5t39.5 135.5q0 48 -22 77t-69 29q-41 0 -72 -18.5t-47.5 -48.5t-24 -62t-7.5 -65q0 -49 22 -78.5t68 -29.5z" />
    <glyph glyph-name="ae" unicode="&#xe6;" horiz-adv-x="878" 
d="M224 -9q-74 0 -119 39.5t-45 98.5q0 82 62.5 133.5t183.5 51.5h117l5 29q6 34 -12 55t-63 21q-40 0 -67 -19t-33 -48h-126q16 77 82.5 127t169.5 50q107 0 154 -64h4q74 64 174 64q114 0 163.5 -72t26.5 -182l-11 -52h-352q-11 -55 11 -88t78 -33q82 0 114 60h130
q-26 -74 -98 -122.5t-169 -48.5q-127 0 -172 92h-4q-70 -92 -204 -92zM556 312h216q8 47 -12.5 76t-70.5 29q-53 0 -86.5 -29t-46.5 -76zM266 97q51 0 87.5 28t44.5 68l5 28h-104q-49 0 -76 -19.5t-27 -51.5q0 -24 17.5 -38.5t52.5 -14.5z" />
    <glyph glyph-name="ccedilla" unicode="&#xe7;" horiz-adv-x="549" 
d="M581 322h-135q5 40 -16 64.5t-63 24.5q-74 0 -113 -54.5t-39 -142.5q0 -105 90 -105q43 0 74 23.5t43 63.5h135q-20 -85 -82 -140t-158 -64l-27 -31q36 -2 58 -22.5t22 -51.5q0 -48 -43.5 -80t-116.5 -32q-54 0 -85.5 26.5t-22.5 72.5h82q-2 -14 8.5 -22.5t29.5 -8.5
q55 0 55 35q0 26 -39 26h-32l-18 31l43 61q-75 14 -114.5 68t-39.5 136q0 142 81.5 235.5t223.5 93.5q108 0 159.5 -57.5t39.5 -149.5z" />
    <glyph glyph-name="egrave" unicode="&#xe8;" horiz-adv-x="555" 
d="M375 583l-87 143l2 10h147l40 -143l-2 -10h-100zM283 -9q-99 0 -152 59t-53 153q0 63 19.5 121t56.5 104t95.5 73.5t130.5 27.5q118 0 169.5 -72t28.5 -182l-10 -52h-354q-9 -56 13 -88.5t77 -32.5q82 0 114 60h131q-26 -75 -94.5 -123t-171.5 -48zM233 312h216
q8 47 -12.5 76t-70.5 29q-53 0 -87 -29t-46 -76z" />
    <glyph glyph-name="eacute" unicode="&#xe9;" horiz-adv-x="555" 
d="M336 583l2 10l98 143h147l-2 -10l-145 -143h-100zM283 -9q-99 0 -152 59t-53 153q0 63 19.5 121t56.5 104t95.5 73.5t130.5 27.5q118 0 169.5 -72t28.5 -182l-10 -52h-354q-9 -56 13 -88.5t77 -32.5q82 0 114 60h131q-26 -75 -94.5 -123t-171.5 -48zM233 312h216
q8 47 -12.5 76t-70.5 29q-53 0 -87 -29t-46 -76z" />
    <glyph glyph-name="ecircumflex" unicode="&#xea;" horiz-adv-x="555" 
d="M232 585l2 10l125 139h148l68 -139l-2 -10h-106l-48 61h-4l-73 -61h-110zM283 -9q-99 0 -152 59t-53 153q0 63 19.5 121t56.5 104t95.5 73.5t130.5 27.5q118 0 169.5 -72t28.5 -182l-10 -52h-354q-9 -56 13 -88.5t77 -32.5q82 0 114 60h131q-26 -75 -94.5 -123
t-171.5 -48zM233 312h216q8 47 -12.5 76t-70.5 29q-53 0 -87 -29t-46 -76z" />
    <glyph glyph-name="edieresis" unicode="&#xeb;" horiz-adv-x="555" 
d="M251 605l24 122h122l-25 -122h-121zM444 605l24 122h122l-24 -122h-122zM283 -9q-99 0 -152 59t-53 153q0 63 19.5 121t56.5 104t95.5 73.5t130.5 27.5q118 0 169.5 -72t28.5 -182l-10 -52h-354q-9 -56 13 -88.5t77 -32.5q82 0 114 60h131q-26 -75 -94.5 -123t-171.5 -48
zM233 312h216q8 47 -12.5 76t-70.5 29q-53 0 -87 -29t-46 -76z" />
    <glyph glyph-name="igrave" unicode="&#xec;" horiz-adv-x="247" 
d="M223 583l-87 143l2 10h147l40 -143l-2 -10h-100zM61 0l106 520h134l-106 -520h-134z" />
    <glyph glyph-name="iacute" unicode="&#xed;" horiz-adv-x="247" 
d="M184 583l2 10l98 143h147l-2 -10l-145 -143h-100zM61 0l106 520h134l-106 -520h-134z" />
    <glyph glyph-name="icircumflex" unicode="&#xee;" horiz-adv-x="247" 
d="M80 585l2 10l125 139h148l68 -139l-2 -10h-106l-48 61h-4l-73 -61h-110zM61 0l106 520h134l-106 -520h-134z" />
    <glyph glyph-name="idieresis" unicode="&#xef;" horiz-adv-x="247" 
d="M99 605l24 122h122l-25 -122h-121zM292 605l24 122h122l-24 -122h-122zM61 0l106 520h134l-106 -520h-134z" />
    <glyph glyph-name="eth" unicode="&#xf0;" horiz-adv-x="569" 
d="M480 634q124 -140 118 -308v-7q0 -137 -85 -232.5t-230 -95.5q-101 0 -153.5 57t-52.5 151q0 138 86 234t229 96q13 0 33 -2q-18 31 -47 66l-131 -54l-18 70l96 39q-49 46 -107 82l2 10h136q38 -26 68 -51l119 48l17 -70zM307 109q73 0 113 53t40 142q0 107 -92 107
q-72 0 -112 -54t-40 -142q0 -106 91 -106z" />
    <glyph glyph-name="ntilde" unicode="&#xf1;" horiz-adv-x="584" 
d="M500 588q-34 0 -62 19l-14 9q-21 12 -35 12q-30 0 -38 -38h-83l3 15q12 57 47 88.5t83 31.5q31 0 65 -20l13 -8q21 -14 35 -14q28 0 36 40h82l-3 -15q-24 -120 -129 -120zM61 0l106 520h119l-1 -59h4q63 68 161 68q87 0 128.5 -50.5t23.5 -137.5l-70 -341h-134l62 303
q21 104 -75 104q-47 0 -83.5 -32t-47.5 -87l-59 -288h-134z" />
    <glyph glyph-name="ograve" unicode="&#xf2;" horiz-adv-x="569" 
d="M379 583l-87 143l2 10h147l40 -143l-2 -10h-100zM290 -9q-102 0 -157.5 57.5t-55.5 150.5q0 142 78.5 236t229.5 94q102 0 157.5 -58t55.5 -152q0 -91 -31 -163t-102.5 -118.5t-174.5 -46.5zM307 109q73 0 113 53t40 142q0 107 -92 107q-72 0 -112 -54t-40 -142
q0 -106 91 -106z" />
    <glyph glyph-name="oacute" unicode="&#xf3;" horiz-adv-x="569" 
d="M340 583l2 10l98 143h147l-2 -10l-145 -143h-100zM290 -9q-102 0 -157.5 57.5t-55.5 150.5q0 142 78.5 236t229.5 94q102 0 157.5 -58t55.5 -152q0 -91 -31 -163t-102.5 -118.5t-174.5 -46.5zM307 109q73 0 113 53t40 142q0 107 -92 107q-72 0 -112 -54t-40 -142
q0 -106 91 -106z" />
    <glyph glyph-name="ocircumflex" unicode="&#xf4;" horiz-adv-x="569" 
d="M236 585l2 10l125 139h148l68 -139l-2 -10h-106l-48 61h-4l-73 -61h-110zM290 -9q-102 0 -157.5 57.5t-55.5 150.5q0 142 78.5 236t229.5 94q102 0 157.5 -58t55.5 -152q0 -91 -31 -163t-102.5 -118.5t-174.5 -46.5zM307 109q73 0 113 53t40 142q0 107 -92 107
q-72 0 -112 -54t-40 -142q0 -106 91 -106z" />
    <glyph glyph-name="otilde" unicode="&#xf5;" horiz-adv-x="569" 
d="M456 588q-34 0 -62 19l-14 9q-21 12 -35 12q-30 0 -38 -38h-83l3 15q12 57 47 88.5t83 31.5q31 0 65 -20l13 -8q21 -14 35 -14q28 0 36 40h82l-3 -15q-24 -120 -129 -120zM290 -9q-102 0 -157.5 57.5t-55.5 150.5q0 142 78.5 236t229.5 94q102 0 157.5 -58t55.5 -152
q0 -91 -31 -163t-102.5 -118.5t-174.5 -46.5zM307 109q73 0 113 53t40 142q0 107 -92 107q-72 0 -112 -54t-40 -142q0 -106 91 -106z" />
    <glyph glyph-name="odieresis" unicode="&#xf6;" horiz-adv-x="569" 
d="M255 605l24 122h122l-25 -122h-121zM448 605l24 122h122l-24 -122h-122zM290 -9q-102 0 -157.5 57.5t-55.5 150.5q0 142 78.5 236t229.5 94q102 0 157.5 -58t55.5 -152q0 -91 -31 -163t-102.5 -118.5t-174.5 -46.5zM307 109q73 0 113 53t40 142q0 107 -92 107
q-72 0 -112 -54t-40 -142q0 -106 91 -106z" />
    <glyph glyph-name="divide" unicode="&#xf7;" horiz-adv-x="490" 
d="M331 422q-29 0 -44.5 15t-15.5 41q0 39 24 64.5t66 25.5q28 0 43.5 -16t15.5 -42q0 -38 -24.5 -63t-64.5 -25zM57 258l23 110h480l-22 -110h-481zM257 58q-29 0 -44.5 15.5t-15.5 41.5q0 39 23.5 64t65.5 25q29 0 45 -15.5t16 -41.5q0 -38 -25 -63.5t-65 -25.5z" />
    <glyph glyph-name="oslash" unicode="&#xf8;" horiz-adv-x="569" 
d="M648 563l-2 -10l-85 -101q37 -52 37 -133q0 -137 -85 -232.5t-230 -95.5q-57 0 -97 18l-52 -61h-109l2 10l89 106q-39 52 -39 135q0 138 86 234t229 96q57 0 100 -20l46 54h110zM216 215q0 -12 2 -30l187 220q-17 6 -37 6q-72 0 -112 -54t-40 -142zM460 304q0 11 -2 27
l-184 -217q17 -5 33 -5q73 0 113 53t40 142z" />
    <glyph glyph-name="ugrave" unicode="&#xf9;" horiz-adv-x="579" 
d="M386 583l-87 143l2 10h147l40 -143l-2 -10h-100zM241 -9q-87 0 -128 50.5t-23 137.5l69 341h134l-61 -303q-21 -105 75 -105q47 0 83 32.5t48 87.5l58 288h134l-105 -520h-120l1 59h-4q-61 -68 -161 -68z" />
    <glyph glyph-name="uacute" unicode="&#xfa;" horiz-adv-x="579" 
d="M347 583l2 10l98 143h147l-2 -10l-145 -143h-100zM241 -9q-87 0 -128 50.5t-23 137.5l69 341h134l-61 -303q-21 -105 75 -105q47 0 83 32.5t48 87.5l58 288h134l-105 -520h-120l1 59h-4q-61 -68 -161 -68z" />
    <glyph glyph-name="ucircumflex" unicode="&#xfb;" horiz-adv-x="579" 
d="M243 585l2 10l125 139h148l68 -139l-2 -10h-106l-48 61h-4l-73 -61h-110zM241 -9q-87 0 -128 50.5t-23 137.5l69 341h134l-61 -303q-21 -105 75 -105q47 0 83 32.5t48 87.5l58 288h134l-105 -520h-120l1 59h-4q-61 -68 -161 -68z" />
    <glyph glyph-name="udieresis" unicode="&#xfc;" horiz-adv-x="579" 
d="M262 605l24 122h122l-25 -122h-121zM455 605l24 122h122l-24 -122h-122zM241 -9q-87 0 -128 50.5t-23 137.5l69 341h134l-61 -303q-21 -105 75 -105q47 0 83 32.5t48 87.5l58 288h134l-105 -520h-120l1 59h-4q-61 -68 -161 -68z" />
    <glyph glyph-name="yacute" unicode="&#xfd;" horiz-adv-x="580" 
d="M363 583l2 10l98 143h147l-2 -10l-145 -143h-100zM107 -229l2 10l123 220l-19 2l-72 507l2 10h137l42 -380h4l201 380h145l-2 -10l-419 -739h-144z" />
    <glyph glyph-name="thorn" unicode="&#xfe;" horiz-adv-x="600" 
d="M450 529q85 0 128.5 -61t36.5 -162q-7 -133 -83.5 -224t-190.5 -91q-96 0 -130 65h-4l-59 -285h-134l153 749h1l44 220h134l-56 -276h4q61 65 156 65zM327 109q55 0 91 33t48.5 74t12.5 86q0 49 -21.5 79t-68.5 30q-75 0 -113.5 -59.5t-38.5 -134.5q0 -48 22 -78t68 -30z
" />
    <glyph glyph-name="ydieresis" unicode="&#xff;" horiz-adv-x="580" 
d="M278 605l24 122h122l-25 -122h-121zM471 605l24 122h122l-24 -122h-122zM107 -229l2 10l123 220l-19 2l-72 507l2 10h137l42 -380h4l201 380h145l-2 -10l-419 -739h-144z" />
    <glyph glyph-name="Amacron" unicode="&#x100;" horiz-adv-x="696" 
d="M674 892l-21 -102h-288l21 102h288zM577 700l106 -690l-2 -10h-147l-18 147h-272l-77 -147h-151l2 10l384 690h175zM308 268h193l-35 292h-4z" />
    <glyph glyph-name="amacron" unicode="&#x101;" 
d="M260 610l21 102h288l-21 -102h-288zM244 -9q-81 0 -124 57t-43 148q0 139 75.5 236t197.5 97q102 0 133 -65h4l26 56h119l-105 -520h-120l-2 56h-4q-58 -65 -157 -65zM305 109q73 0 112.5 60.5t39.5 135.5q0 48 -22 77t-69 29q-41 0 -72 -18.5t-47.5 -48.5t-24 -62
t-7.5 -65q0 -49 22 -78.5t68 -29.5z" />
    <glyph glyph-name="Abreve" unicode="&#x102;" horiz-adv-x="696" 
d="M507 765q-75 0 -110 39t-21 108h98q-9 -54 48 -54q56 0 69 54h98q-24 -147 -182 -147zM402 700h175l106 -690l-2 -10h-147l-18 147h-272l-77 -147h-151l2 10zM308 268h193l-35 292h-4z" />
    <glyph glyph-name="abreve" unicode="&#x103;" 
d="M402 585q-75 0 -110 39t-21 108h98q-9 -54 48 -54q55 0 69 54h98q-24 -147 -182 -147zM244 -9q-81 0 -124 57t-43 148q0 139 75.5 236t197.5 97q102 0 133 -65h4l26 56h119l-105 -520h-120l-2 56h-4q-58 -65 -157 -65zM305 109q73 0 112.5 60.5t39.5 135.5q0 48 -22 77
t-69 29q-41 0 -72 -18.5t-47.5 -48.5t-24 -62t-7.5 -65q0 -49 22 -78.5t68 -29.5z" />
    <glyph glyph-name="Aogonek" unicode="&#x104;" horiz-adv-x="696" 
d="M577 700l106 -690l-2 -10h-2q-43 -17 -74 -44.5t-31 -59.5q0 -34 42 -34h36l-17 -87h-66q-45 0 -77.5 23t-32.5 65q0 82 98 137h-23l-18 147h-272l-77 -147h-151l2 10l384 690h175zM308 268h193l-35 292h-4z" />
    <glyph glyph-name="aogonek" unicode="&#x105;" 
d="M513 520h119l-105 -520h-1q-43 -17 -74 -44.5t-31 -59.5q0 -34 42 -34h36l-17 -87h-66q-45 0 -77.5 23t-32.5 65q0 84 101 139l-2 54h-4q-58 -65 -157 -65q-81 0 -124 57t-43 148q0 139 75.5 236t197.5 97q102 0 133 -65h4zM305 109q73 0 112.5 60.5t39.5 135.5
q0 48 -22 77t-69 29q-41 0 -72 -18.5t-47.5 -48.5t-24 -62t-7.5 -65q0 -49 22 -78.5t68 -29.5z" />
    <glyph glyph-name="Cacute" unicode="&#x106;" horiz-adv-x="709" 
d="M461 763l2 10l98 143h147l-2 -10l-145 -143h-100zM371 -9q-131 0 -201.5 77t-70.5 201q0 120 45.5 218.5t140 160t223.5 61.5t198.5 -75t54.5 -189h-140q6 60 -27 99.5t-106 39.5q-119 0 -183 -85.5t-64 -213.5q0 -80 38 -125t114 -45q71 0 119 36.5t70 96.5h139
q-34 -114 -125.5 -185.5t-224.5 -71.5z" />
    <glyph glyph-name="cacute" unicode="&#x107;" horiz-adv-x="549" 
d="M344 583l2 10l98 143h147l-2 -10l-145 -143h-100zM284 -9q-100 0 -153.5 57t-53.5 152q0 142 81.5 235.5t223.5 93.5q108 0 159.5 -57.5t39.5 -149.5h-135q5 40 -16 64.5t-63 24.5q-74 0 -113 -54.5t-39 -142.5q0 -105 90 -105q43 0 74 23.5t43 63.5h135
q-22 -92 -92.5 -148.5t-180.5 -56.5z" />
    <glyph glyph-name="Ccircumflex" unicode="&#x108;" horiz-adv-x="709" 
d="M357 765l2 10l125 139h148l68 -139l-2 -10h-106l-48 61h-4l-73 -61h-110zM371 -9q-131 0 -201.5 77t-70.5 201q0 120 45.5 218.5t140 160t223.5 61.5t198.5 -75t54.5 -189h-140q6 60 -27 99.5t-106 39.5q-119 0 -183 -85.5t-64 -213.5q0 -80 38 -125t114 -45
q71 0 119 36.5t70 96.5h139q-34 -114 -125.5 -185.5t-224.5 -71.5z" />
    <glyph glyph-name="ccircumflex" unicode="&#x109;" horiz-adv-x="549" 
d="M240 585l2 10l125 139h148l68 -139l-2 -10h-106l-48 61h-4l-73 -61h-110zM284 -9q-100 0 -153.5 57t-53.5 152q0 142 81.5 235.5t223.5 93.5q108 0 159.5 -57.5t39.5 -149.5h-135q5 40 -16 64.5t-63 24.5q-74 0 -113 -54.5t-39 -142.5q0 -105 90 -105q43 0 74 23.5
t43 63.5h135q-22 -92 -92.5 -148.5t-180.5 -56.5z" />
    <glyph glyph-name="Cdotaccent" unicode="&#x10a;" horiz-adv-x="709" 
d="M456 774l28 140h144l-28 -140h-144zM371 -9q-131 0 -201.5 77t-70.5 201q0 120 45.5 218.5t140 160t223.5 61.5t198.5 -75t54.5 -189h-140q6 60 -27 99.5t-106 39.5q-119 0 -183 -85.5t-64 -213.5q0 -80 38 -125t114 -45q71 0 119 36.5t70 96.5h139
q-34 -114 -125.5 -185.5t-224.5 -71.5z" />
    <glyph glyph-name="cdotaccent" unicode="&#x10b;" horiz-adv-x="549" 
d="M339 594l28 140h144l-28 -140h-144zM284 -9q-100 0 -153.5 57t-53.5 152q0 142 81.5 235.5t223.5 93.5q108 0 159.5 -57.5t39.5 -149.5h-135q5 40 -16 64.5t-63 24.5q-74 0 -113 -54.5t-39 -142.5q0 -105 90 -105q43 0 74 23.5t43 63.5h135q-22 -92 -92.5 -148.5
t-180.5 -56.5z" />
    <glyph glyph-name="Ccaron" unicode="&#x10c;" horiz-adv-x="709" 
d="M452 765l-68 139l2 10h104l47 -61h4l73 61h113l-2 -10l-125 -139h-148zM371 -9q-131 0 -201.5 77t-70.5 201q0 120 45.5 218.5t140 160t223.5 61.5t198.5 -75t54.5 -189h-140q6 60 -27 99.5t-106 39.5q-119 0 -183 -85.5t-64 -213.5q0 -80 38 -125t114 -45q71 0 119 36.5
t70 96.5h139q-34 -114 -125.5 -185.5t-224.5 -71.5z" />
    <glyph glyph-name="ccaron" unicode="&#x10d;" horiz-adv-x="549" 
d="M335 585l-68 139l2 10h104l47 -61h4l73 61h113l-2 -10l-125 -139h-148zM284 -9q-100 0 -153.5 57t-53.5 152q0 142 81.5 235.5t223.5 93.5q108 0 159.5 -57.5t39.5 -149.5h-135q5 40 -16 64.5t-63 24.5q-74 0 -113 -54.5t-39 -142.5q0 -105 90 -105q43 0 74 23.5t43 63.5
h135q-22 -92 -92.5 -148.5t-180.5 -56.5z" />
    <glyph glyph-name="Dcaron" unicode="&#x10e;" horiz-adv-x="704" 
d="M402 765l-68 139l2 10h104l47 -61h4l73 61h113l-2 -10l-125 -139h-148zM79 0l142 700h236q132 0 210.5 -77.5t78.5 -204.5q0 -178 -112.5 -298t-313.5 -120h-241zM233 122h100q125 0 198 81t73 202q0 82 -46 127t-132 45h-100z" />
    <glyph glyph-name="dcaron" unicode="&#x10f;" 
d="M244 -9q-79 0 -123 56.5t-44 146.5q0 138 76.5 236.5t196.5 98.5q97 0 133 -65h4l57 276h134l-151 -740h-120l-3 56h-4q-61 -65 -156 -65zM687 570l35 170h134l-2 -10l-78 -160h-89zM305 109q75 0 113.5 59.5t38.5 135.5q0 48 -22 77.5t-69 29.5q-54 0 -90 -32.5
t-48.5 -73.5t-12.5 -88q0 -49 22 -78.5t68 -29.5z" />
    <glyph glyph-name="Dcroat" unicode="&#x110;" horiz-adv-x="748" 
d="M501 700q132 0 210.5 -77.5t78.5 -204.5q0 -178 -112.5 -298t-313.5 -120h-241l62 304h-72l24 117h71l57 279h236zM377 122q125 0 198 81t73 202q0 82 -46 127t-132 45h-100l-32 -156h158l-25 -117h-157l-37 -182h100z" />
    <glyph glyph-name="dcroat" unicode="&#x111;" 
d="M723 676l-18 -90h-58l-120 -586h-120l-3 56h-4q-61 -65 -156 -65q-79 0 -123 56.5t-44 146.5q0 138 76.5 236.5t196.5 98.5q97 0 133 -65h4l25 122h-114l18 90h115l13 64h134l-13 -64h58zM305 109q75 0 113.5 59.5t38.5 135.5q0 48 -22 77.5t-69 29.5q-54 0 -90 -32.5
t-48.5 -73.5t-12.5 -88q0 -49 22 -78.5t68 -29.5z" />
    <glyph glyph-name="Emacron" unicode="&#x112;" horiz-adv-x="610" 
d="M351 790l21 102h288l-21 -102h-288zM79 0l142 700h485l-24 -123h-349l-31 -155h318l-26 -122h-318l-36 -178h349l-25 -122h-485z" />
    <glyph glyph-name="emacron" unicode="&#x113;" horiz-adv-x="555" 
d="M262 610l21 102h288l-21 -102h-288zM283 -9q-99 0 -152 59t-53 153q0 63 19.5 121t56.5 104t95.5 73.5t130.5 27.5q118 0 169.5 -72t28.5 -182l-10 -52h-354q-9 -56 13 -88.5t77 -32.5q82 0 114 60h131q-26 -75 -94.5 -123t-171.5 -48zM233 312h216q8 47 -12.5 76
t-70.5 29q-53 0 -87 -29t-46 -76z" />
    <glyph glyph-name="Ebreve" unicode="&#x114;" horiz-adv-x="610" 
d="M493 765q-75 0 -110 39t-21 108h98q-9 -54 48 -54q56 0 69 54h98q-24 -147 -182 -147zM79 0l142 700h485l-24 -123h-349l-31 -155h318l-26 -122h-318l-36 -178h349l-25 -122h-485z" />
    <glyph glyph-name="ebreve" unicode="&#x115;" horiz-adv-x="555" 
d="M404 585q-75 0 -110 39t-21 108h98q-9 -54 48 -54q55 0 69 54h98q-24 -147 -182 -147zM283 -9q-99 0 -152 59t-53 153q0 63 19.5 121t56.5 104t95.5 73.5t130.5 27.5q118 0 169.5 -72t28.5 -182l-10 -52h-354q-9 -56 13 -88.5t77 -32.5q82 0 114 60h131
q-26 -75 -94.5 -123t-171.5 -48zM233 312h216q8 47 -12.5 76t-70.5 29q-53 0 -87 -29t-46 -76z" />
    <glyph glyph-name="Edotaccent" unicode="&#x116;" horiz-adv-x="610" 
d="M420 774l28 140h144l-28 -140h-144zM79 0l142 700h485l-24 -123h-349l-31 -155h318l-26 -122h-318l-36 -178h349l-25 -122h-485z" />
    <glyph glyph-name="edotaccent" unicode="&#x117;" horiz-adv-x="555" 
d="M331 594l28 140h144l-28 -140h-144zM283 -9q-99 0 -152 59t-53 153q0 63 19.5 121t56.5 104t95.5 73.5t130.5 27.5q118 0 169.5 -72t28.5 -182l-10 -52h-354q-9 -56 13 -88.5t77 -32.5q82 0 114 60h131q-26 -75 -94.5 -123t-171.5 -48zM233 312h216q8 47 -12.5 76
t-70.5 29q-53 0 -87 -29t-46 -76z" />
    <glyph glyph-name="Eogonek" unicode="&#x118;" horiz-adv-x="610" 
d="M682 577h-349l-31 -155h318l-26 -122h-318l-36 -178h349l-25 -122h-4q-43 -17 -74 -44.5t-31 -59.5q0 -34 42 -34h36l-17 -87h-66q-45 0 -77.5 23t-32.5 65q0 82 98 137h-359l142 700h485z" />
    <glyph glyph-name="eogonek" unicode="&#x119;" horiz-adv-x="555" 
d="M380 529q118 0 169.5 -72t28.5 -182l-10 -52h-354q-9 -56 13 -88.5t77 -32.5q82 0 114 60h131q-21 -61 -70 -104.5t-122 -58.5q-42 -17 -71.5 -44.5t-29.5 -58.5q0 -34 42 -34h36l-17 -87h-66q-45 0 -77.5 23t-32.5 65q0 80 91 133q-74 15 -114 71t-40 136q0 63 19.5 121
t56.5 104t95.5 73.5t130.5 27.5zM449 312q8 47 -12.5 76t-70.5 29q-53 0 -87 -29t-46 -76h216z" />
    <glyph glyph-name="Ecaron" unicode="&#x11a;" horiz-adv-x="610" 
d="M416 765l-68 139l2 10h104l47 -61h4l73 61h113l-2 -10l-125 -139h-148zM79 0l142 700h485l-24 -123h-349l-31 -155h318l-26 -122h-318l-36 -178h349l-25 -122h-485z" />
    <glyph glyph-name="ecaron" unicode="&#x11b;" horiz-adv-x="555" 
d="M327 585l-68 139l2 10h104l47 -61h4l73 61h113l-2 -10l-125 -139h-148zM283 -9q-99 0 -152 59t-53 153q0 63 19.5 121t56.5 104t95.5 73.5t130.5 27.5q118 0 169.5 -72t28.5 -182l-10 -52h-354q-9 -56 13 -88.5t77 -32.5q82 0 114 60h131q-26 -75 -94.5 -123t-171.5 -48z
M233 312h216q8 47 -12.5 76t-70.5 29q-53 0 -87 -29t-46 -76z" />
    <glyph glyph-name="Gcircumflex" unicode="&#x11c;" horiz-adv-x="716" 
d="M356 765l2 10l125 139h148l68 -139l-2 -10h-106l-48 61h-4l-73 -61h-110zM374 -9q-132 0 -203.5 77t-71.5 200q0 89 27 168t76.5 140.5t127.5 97t173 35.5q129 0 200.5 -70.5t61.5 -176.5h-140q2 54 -31.5 88t-106.5 34q-117 0 -181.5 -86.5t-64.5 -213.5
q0 -79 37.5 -124t113.5 -45q77 0 125 38.5t70 99.5h-147l25 122h289l-15 -73q-29 -144 -124.5 -227.5t-240.5 -83.5z" />
    <glyph glyph-name="gcircumflex" unicode="&#x11d;" 
d="M228 585l2 10l125 139h148l68 -139l-2 -10h-106l-48 61h-4l-73 -61h-110zM233 -238q-104 0 -157.5 51.5t-38.5 135.5h131q-3 -31 19.5 -51.5t66.5 -20.5q55 0 90 27.5t44 71.5l16 80h-4q-61 -65 -156 -65q-79 0 -123.5 56.5t-44.5 146.5q0 138 77 236.5t197 98.5
q97 0 133 -65h4l26 56h119l-110 -546q-21 -99 -94 -155.5t-195 -56.5zM305 109q41 0 71.5 18.5t47.5 48t25 62t8 65.5q0 48 -22.5 78t-68.5 30q-76 0 -113.5 -59t-37.5 -137q0 -48 22 -77t68 -29z" />
    <glyph glyph-name="Gbreve" unicode="&#x11e;" horiz-adv-x="716" 
d="M528 765q-75 0 -110 39t-21 108h98q-9 -54 48 -54q55 0 69 54h98q-24 -147 -182 -147zM374 -9q-132 0 -203.5 77t-71.5 200q0 89 27 168t76.5 140.5t127.5 97t173 35.5q129 0 200.5 -70.5t61.5 -176.5h-140q2 54 -31.5 88t-106.5 34q-117 0 -181.5 -86.5t-64.5 -213.5
q0 -79 37.5 -124t113.5 -45q77 0 125 38.5t70 99.5h-147l25 122h289l-15 -73q-29 -144 -124.5 -227.5t-240.5 -83.5z" />
    <glyph glyph-name="gbreve" unicode="&#x11f;" 
d="M400 585q-75 0 -110 39t-21 108h98q-9 -54 48 -54q55 0 69 54h98q-24 -147 -182 -147zM233 -238q-104 0 -157.5 51.5t-38.5 135.5h131q-3 -31 19.5 -51.5t66.5 -20.5q55 0 90 27.5t44 71.5l16 80h-4q-61 -65 -156 -65q-79 0 -123.5 56.5t-44.5 146.5q0 138 77 236.5
t197 98.5q97 0 133 -65h4l26 56h119l-110 -546q-21 -99 -94 -155.5t-195 -56.5zM305 109q41 0 71.5 18.5t47.5 48t25 62t8 65.5q0 48 -22.5 78t-68.5 30q-76 0 -113.5 -59t-37.5 -137q0 -48 22 -77t68 -29z" />
    <glyph glyph-name="Gdotaccent" unicode="&#x120;" horiz-adv-x="716" 
d="M455 774l28 140h144l-28 -140h-144zM374 -9q-132 0 -203.5 77t-71.5 200q0 89 27 168t76.5 140.5t127.5 97t173 35.5q129 0 200.5 -70.5t61.5 -176.5h-140q2 54 -31.5 88t-106.5 34q-117 0 -181.5 -86.5t-64.5 -213.5q0 -79 37.5 -124t113.5 -45q77 0 125 38.5t70 99.5
h-147l25 122h289l-15 -73q-29 -144 -124.5 -227.5t-240.5 -83.5z" />
    <glyph glyph-name="gdotaccent" unicode="&#x121;" 
d="M327 594l28 140h144l-28 -140h-144zM233 -238q-104 0 -157.5 51.5t-38.5 135.5h131q-3 -31 19.5 -51.5t66.5 -20.5q55 0 90 27.5t44 71.5l16 80h-4q-61 -65 -156 -65q-79 0 -123.5 56.5t-44.5 146.5q0 138 77 236.5t197 98.5q97 0 133 -65h4l26 56h119l-110 -546
q-21 -99 -94 -155.5t-195 -56.5zM305 109q41 0 71.5 18.5t47.5 48t25 62t8 65.5q0 48 -22.5 78t-68.5 30q-76 0 -113.5 -59t-37.5 -137q0 -48 22 -77t68 -29z" />
    <glyph glyph-name="Gcommaaccent" unicode="&#x122;" horiz-adv-x="716" 
d="M374 -9q-132 0 -203.5 77t-71.5 200q0 89 27 168t76.5 140.5t127.5 97t173 35.5q129 0 200.5 -70.5t61.5 -176.5h-140q2 54 -31.5 88t-106.5 34q-117 0 -181.5 -86.5t-64.5 -213.5q0 -79 37.5 -124t113.5 -45q77 0 125 38.5t70 99.5h-147l25 122h289l-15 -73
q-29 -144 -124.5 -227.5t-240.5 -83.5zM242 -215l2 10l52 154h134l-2 -10l-97 -154h-89z" />
    <glyph glyph-name="gcommaaccent" unicode="&#x123;" 
d="M505 742l-2 -10l-52 -154h-134l2 10l97 154h89zM233 -238q-104 0 -157.5 51.5t-38.5 135.5h131q-3 -31 19.5 -51.5t66.5 -20.5q55 0 90 27.5t44 71.5l16 80h-4q-61 -65 -156 -65q-79 0 -123.5 56.5t-44.5 146.5q0 138 77 236.5t197 98.5q97 0 133 -65h4l26 56h119
l-110 -546q-21 -99 -94 -155.5t-195 -56.5zM305 109q41 0 71.5 18.5t47.5 48t25 62t8 65.5q0 48 -22.5 78t-68.5 30q-76 0 -113.5 -59t-37.5 -137q0 -48 22 -77t68 -29z" />
    <glyph glyph-name="Hcircumflex" unicode="&#x124;" horiz-adv-x="735" 
d="M538 826l-73 -61h-110l2 10l125 139h148l68 -139l-2 -10h-106l-48 61h-4zM661 700h137l-142 -700h-137l61 300h-303l-61 -300h-137l142 700h137l-56 -277h303z" />
    <glyph glyph-name="hcircumflex" unicode="&#x125;" horiz-adv-x="588" 
d="M124 797l2 10l125 139h148l68 -139l-2 -10h-106l-48 61h-4l-73 -61h-110zM61 0l151 740h134l-57 -279h4q63 68 161 68q87 0 128.5 -50.5t23.5 -137.5l-70 -341h-134l62 303q21 104 -76 104q-48 0 -85.5 -32.5t-48.5 -87.5l-59 -287h-134z" />
    <glyph glyph-name="Hbar" unicode="&#x126;" horiz-adv-x="806" 
d="M872 623l-24 -113h-52l-103 -510h-137l61 300h-304l-61 -300h-137l103 510h-53l23 113h53l16 77h137l-16 -77h304l16 77h137l-16 -77h53zM642 423l17 87h-304l-17 -87h304z" />
    <glyph glyph-name="hbar" unicode="&#x127;" horiz-adv-x="588" 
d="M454 529q87 0 128.5 -50.5t23.5 -137.5l-70 -341h-134l62 303q21 104 -76 104q-48 0 -85.5 -32.5t-48.5 -87.5l-59 -287h-134l120 586h-59l18 90h59l13 64h134l-13 -64h114l-18 -90h-114l-26 -125h4q63 68 161 68z" />
    <glyph glyph-name="Itilde" unicode="&#x128;" horiz-adv-x="295" 
d="M357 768q-34 0 -62 19l-14 9q-21 12 -35 12q-30 0 -38 -38h-83l3 15q12 57 47 88.5t83 31.5q31 0 65 -20l13 -8q21 -14 35 -14q28 0 36 40h82l-3 -15q-24 -120 -129 -120zM79 0l142 700h138l-142 -700h-138z" />
    <glyph glyph-name="itilde" unicode="&#x129;" horiz-adv-x="247" 
d="M300 588q-34 0 -62 19l-14 9q-21 12 -35 12q-30 0 -38 -38h-83l3 15q12 57 47 88.5t83 31.5q31 0 65 -20l13 -8q21 -14 35 -14q28 0 36 40h82l-3 -15q-24 -120 -129 -120zM61 0l106 520h134l-106 -520h-134z" />
    <glyph glyph-name="Imacron" unicode="&#x12a;" horiz-adv-x="295" 
d="M167 790l21 102h288l-21 -102h-288zM79 0l142 700h138l-142 -700h-138z" />
    <glyph glyph-name="imacron" unicode="&#x12b;" horiz-adv-x="247" 
d="M110 610l21 102h288l-21 -102h-288zM61 0l106 520h134l-106 -520h-134z" />
    <glyph glyph-name="Ibreve" unicode="&#x12c;" horiz-adv-x="295" 
d="M309 765q-75 0 -110 39t-21 108h98q-9 -54 48 -54q56 0 69 54h98q-24 -147 -182 -147zM79 0l142 700h138l-142 -700h-138z" />
    <glyph glyph-name="ibreve" unicode="&#x12d;" horiz-adv-x="247" 
d="M252 585q-75 0 -110 39t-21 108h98q-9 -54 48 -54q55 0 69 54h98q-24 -147 -182 -147zM61 0l106 520h134l-106 -520h-134z" />
    <glyph glyph-name="Iogonek" unicode="&#x12e;" horiz-adv-x="295" 
d="M221 700h138l-142 -700h-1q-43 -17 -74 -44.5t-31 -59.5q0 -34 42 -34h36l-17 -87h-66q-45 0 -77.5 23t-32.5 65q0 82 98 137h-15z" />
    <glyph glyph-name="iogonek" unicode="&#x12f;" horiz-adv-x="247" 
d="M207 734h144l-28 -140h-144zM61 0l106 520h134l-106 -520q-43 -17 -74 -44.5t-31 -59.5q0 -34 42 -34h36l-17 -87h-66q-45 0 -77.5 23t-32.5 65q0 82 98 137h-12z" />
    <glyph glyph-name="Idotaccent" unicode="&#x130;" horiz-adv-x="295" 
d="M236 774l28 140h144l-28 -140h-144zM79 0l142 700h138l-142 -700h-138z" />
    <glyph glyph-name="dotlessi" unicode="&#x131;" horiz-adv-x="247" 
d="M61 0l106 520h134l-106 -520h-134z" />
    <glyph glyph-name="IJ" unicode="&#x132;" horiz-adv-x="838" 
d="M79 0l142 700h138l-142 -700h-138zM536 -9q-106 0 -154 61t-29 155h130q-9 -42 11 -66t67 -24q46 0 75.5 26.5t38.5 70.5l99 486h138l-99 -486q-21 -102 -90.5 -162.5t-186.5 -60.5z" />
    <glyph glyph-name="ij" unicode="&#x133;" horiz-adv-x="501" 
d="M178 594l28 140h144l-28 -140h-144zM432 594l29 140h144l-29 -140h-144zM61 0l106 520h134l-106 -520h-134zM161 -238l27 124h38q67 0 81 73l114 561h134l-119 -589q-17 -83 -71.5 -126t-138.5 -43h-65z" />
    <glyph glyph-name="Jcircumflex" unicode="&#x134;" horiz-adv-x="543" 
d="M389 765l2 10l125 139h148l68 -139l-2 -10h-106l-48 61h-4l-73 -61h-110zM241 -9q-106 0 -154 61t-29 155h130q-9 -42 11 -66t67 -24q46 0 75.5 26.5t38.5 70.5l99 486h138l-99 -486q-21 -102 -90.5 -162.5t-186.5 -60.5z" />
    <glyph glyph-name="jcircumflex" unicode="&#x135;" horiz-adv-x="254" 
d="M83 585l2 10l125 139h148l68 -139l-2 -10h-106l-48 61h-4l-73 -61h-110zM-86 -238l27 124h38q67 0 81 73l114 561h134l-119 -589q-17 -83 -71.5 -126t-138.5 -43h-65z" />
    <glyph glyph-name="Kcommaaccent" unicode="&#x136;" horiz-adv-x="663" 
d="M784 700l-2 -10l-373 -330l246 -350l-2 -10h-155l-219 312l-63 -312h-137l142 700h137l-58 -284l321 284h163zM225 -205l52 154h134l-2 -10l-97 -154h-89z" />
    <glyph glyph-name="kcommaaccent" unicode="&#x137;" horiz-adv-x="548" 
d="M631 520l-2 -10l-262 -238l170 -262l-2 -10h-147l-152 237l-48 -237h-127l151 740h127l-86 -419l212 199h166zM154 -205l52 154h134l-2 -10l-97 -154h-89z" />
    <glyph glyph-name="kgreenlandic" unicode="&#x138;" horiz-adv-x="548" 
d="M631 520l-2 -10l-258 -234l166 -266l-2 -10h-161l-139 232l-47 -232h-127l106 520h127l-42 -204l222 204h157z" />
    <glyph glyph-name="Lacute" unicode="&#x139;" horiz-adv-x="554" 
d="M238 763l2 10l98 143h147l-2 -10l-145 -143h-100zM79 0l142 700h137l-118 -577h324l-25 -123h-460z" />
    <glyph glyph-name="lacute" unicode="&#x13a;" horiz-adv-x="247" 
d="M225 795l2 10l98 143h147l-2 -10l-145 -143h-100zM61 0l151 740h134l-151 -740h-134z" />
    <glyph glyph-name="Lcommaaccent" unicode="&#x13b;" horiz-adv-x="554" 
d="M79 0l142 700h137l-118 -577h324l-25 -123h-460zM180 -215l2 10l52 154h134l-2 -10l-97 -154h-89z" />
    <glyph glyph-name="lcommaaccent" unicode="&#x13c;" horiz-adv-x="247" 
d="M61 0l151 740h134l-151 -740h-134zM-4 -215l2 10l52 154h134l-2 -10l-97 -154h-89z" />
    <glyph glyph-name="Lcaron" unicode="&#x13d;" horiz-adv-x="554" 
d="M79 0l142 700h137l-118 -577h324l-25 -123h-460zM435 530l34 170h134l-2 -10l-78 -160h-88z" />
    <glyph glyph-name="lcaron" unicode="&#x13e;" horiz-adv-x="303" 
d="M61 0l151 740h134l-151 -740h-134zM356 570l35 170h134l-2 -10l-79 -160h-88z" />
    <glyph glyph-name="Ldot" unicode="&#x13f;" horiz-adv-x="600" 
d="M79 0l142 700h137l-118 -577h324l-25 -123h-460zM368 298l29 143h148l-29 -143h-148z" />
    <glyph glyph-name="ldot" unicode="&#x140;" horiz-adv-x="426" 
d="M61 0l151 740h134l-151 -740h-134zM297 296l29 143h148l-29 -143h-148z" />
    <glyph glyph-name="Lslash" unicode="&#x141;" horiz-adv-x="624" 
d="M310 123h324l-25 -123h-460l50 245l-66 -23h-10l23 112l76 28l69 338h137l-58 -285l187 68h10l-24 -115l-197 -70z" />
    <glyph glyph-name="lslash" unicode="&#x142;" horiz-adv-x="357" 
d="M426 468l-22 -107l-90 -38l-66 -323h-134l53 261l-75 -32h-10l22 105l86 37l75 369h134l-62 -306l79 34h10z" />
    <glyph glyph-name="Nacute" unicode="&#x143;" horiz-adv-x="743" 
d="M486 763l2 10l98 143h147l-2 -10l-145 -143h-100zM79 0l142 700h152l195 -486h4l98 486h136l-142 -700h-151l-197 483h-4l-98 -483h-135z" />
    <glyph glyph-name="nacute" unicode="&#x144;" horiz-adv-x="584" 
d="M384 583l2 10l98 143h147l-2 -10l-145 -143h-100zM61 0l106 520h119l-1 -59h4q63 68 161 68q87 0 128.5 -50.5t23.5 -137.5l-70 -341h-134l62 303q21 104 -75 104q-47 0 -83.5 -32t-47.5 -87l-59 -288h-134z" />
    <glyph glyph-name="Ncommaaccent" unicode="&#x145;" horiz-adv-x="743" 
d="M79 0l142 700h152l195 -486h4l98 486h136l-142 -700h-151l-197 483h-4l-98 -483h-135zM234 -215l2 10l52 154h134l-2 -10l-97 -154h-89z" />
    <glyph glyph-name="ncommaaccent" unicode="&#x146;" horiz-adv-x="584" 
d="M61 0l106 520h119l-1 -59h4q63 68 161 68q87 0 128.5 -50.5t23.5 -137.5l-70 -341h-134l62 303q21 104 -75 104q-47 0 -83.5 -32t-47.5 -87l-59 -288h-134zM176 -215l2 10l52 154h134l-2 -10l-97 -154h-89z" />
    <glyph glyph-name="Ncaron" unicode="&#x147;" horiz-adv-x="743" 
d="M477 765l-68 139l2 10h104l47 -61h4l73 61h113l-2 -10l-125 -139h-148zM79 0l142 700h152l195 -486h4l98 486h136l-142 -700h-151l-197 483h-4l-98 -483h-135z" />
    <glyph glyph-name="ncaron" unicode="&#x148;" horiz-adv-x="584" 
d="M375 585l-68 139l2 10h104l47 -61h4l73 61h113l-2 -10l-125 -139h-148zM61 0l106 520h119l-1 -59h4q63 68 161 68q87 0 128.5 -50.5t23.5 -137.5l-70 -341h-134l62 303q21 104 -75 104q-47 0 -83.5 -32t-47.5 -87l-59 -288h-134z" />
    <glyph glyph-name="napostrophe" unicode="&#x149;" horiz-adv-x="605" 
d="M-10 463l2 10l80 241h149l-2 -10l-125 -241h-104zM61 0l106 520h119l-1 -59h4q63 68 161 68q87 0 128.5 -50.5t23.5 -137.5l-70 -341h-134l62 303q21 104 -75 104q-47 0 -83.5 -32t-47.5 -87l-59 -288h-134z" />
    <glyph glyph-name="Eng" unicode="&#x14a;" horiz-adv-x="743" 
d="M806 700l-47 -230h1l-98 -486q-20 -99 -94.5 -161t-184.5 -62l26 126q48 0 78 26.5t39 70.5l3 16h-25l-188 483h-4l-98 -483h-135l142 700h159l188 -486h4l98 486h136z" />
    <glyph glyph-name="eng" unicode="&#x14b;" horiz-adv-x="584" 
d="M450 529q87 0 128.5 -50.5t23.5 -137.5l-31 -150h1l-53 -260q-17 -82 -74 -125.5t-137 -43.5q-33 0 -61 7l24 120q19 -3 38 -3q67 0 81 73l8 41l62 303q21 104 -75 104q-48 0 -84 -32t-47 -87l-59 -288h-134l106 520h119l-1 -59h4q63 68 161 68z" />
    <glyph glyph-name="Omacron" unicode="&#x14c;" horiz-adv-x="740" 
d="M389 790l21 102h288l-21 -102h-288zM370 -9q-133 0 -202 77.5t-69 201.5q0 81 26.5 158t76 140.5t130 102t180.5 38.5q133 0 202 -77t69 -202q0 -81 -27.5 -158.5t-78 -140.5t-131 -101.5t-176.5 -38.5zM394 116q79 0 137 45t84 111t26 142q0 80 -38 125t-114 45
q-61 0 -109.5 -26t-78 -69.5t-45 -95.5t-15.5 -107q0 -80 38.5 -125t114.5 -45z" />
    <glyph glyph-name="omacron" unicode="&#x14d;" horiz-adv-x="569" 
d="M266 610l21 102h288l-21 -102h-288zM290 -9q-102 0 -157.5 57.5t-55.5 150.5q0 142 78.5 236t229.5 94q102 0 157.5 -58t55.5 -152q0 -91 -31 -163t-102.5 -118.5t-174.5 -46.5zM307 109q73 0 113 53t40 142q0 107 -92 107q-72 0 -112 -54t-40 -142q0 -106 91 -106z" />
    <glyph glyph-name="Obreve" unicode="&#x14e;" horiz-adv-x="740" 
d="M531 765q-75 0 -110 39t-21 108h98q-9 -54 48 -54q56 0 69 54h98q-24 -147 -182 -147zM370 -9q-133 0 -202 77.5t-69 201.5q0 81 26.5 158t76 140.5t130 102t180.5 38.5q133 0 202 -77t69 -202q0 -81 -27.5 -158.5t-78 -140.5t-131 -101.5t-176.5 -38.5zM394 116
q79 0 137 45t84 111t26 142q0 80 -38 125t-114 45q-61 0 -109.5 -26t-78 -69.5t-45 -95.5t-15.5 -107q0 -80 38.5 -125t114.5 -45z" />
    <glyph glyph-name="obreve" unicode="&#x14f;" horiz-adv-x="569" 
d="M408 585q-75 0 -110 39t-21 108h98q-9 -54 48 -54q55 0 69 54h98q-24 -147 -182 -147zM290 -9q-102 0 -157.5 57.5t-55.5 150.5q0 142 78.5 236t229.5 94q102 0 157.5 -58t55.5 -152q0 -91 -31 -163t-102.5 -118.5t-174.5 -46.5zM307 109q73 0 113 53t40 142
q0 107 -92 107q-72 0 -112 -54t-40 -142q0 -106 91 -106z" />
    <glyph glyph-name="Ohungarumlaut" unicode="&#x150;" horiz-adv-x="740" 
d="M375 763l2 10l76 143h145l-2 -10l-131 -143h-90zM558 763l2 10l76 143h145l-2 -10l-132 -143h-89zM370 -9q-133 0 -202 77.5t-69 201.5q0 81 26.5 158t76 140.5t130 102t180.5 38.5q133 0 202 -77t69 -202q0 -81 -27.5 -158.5t-78 -140.5t-131 -101.5t-176.5 -38.5z
M394 116q79 0 137 45t84 111t26 142q0 80 -38 125t-114 45q-61 0 -109.5 -26t-78 -69.5t-45 -95.5t-15.5 -107q0 -80 38.5 -125t114.5 -45z" />
    <glyph glyph-name="ohungarumlaut" unicode="&#x151;" horiz-adv-x="569" 
d="M252 583l2 10l76 143h145l-2 -10l-131 -143h-90zM435 583l2 10l76 143h145l-2 -10l-132 -143h-89zM290 -9q-102 0 -157.5 57.5t-55.5 150.5q0 142 78.5 236t229.5 94q102 0 157.5 -58t55.5 -152q0 -91 -31 -163t-102.5 -118.5t-174.5 -46.5zM307 109q73 0 113 53t40 142
q0 107 -92 107q-72 0 -112 -54t-40 -142q0 -106 91 -106z" />
    <glyph glyph-name="OE" unicode="&#x152;" horiz-adv-x="1095" 
d="M1167 577h-349l-31 -155h318l-26 -122h-318l-36 -178h349l-25 -122h-485l9 43q-90 -52 -205 -52q-133 0 -201 77.5t-68 201.5q0 116 46.5 214.5t143 161.5t225.5 63q114 0 181 -61l11 52h485zM394 116q87 0 145.5 47.5t83.5 127.5l16 77q2 30 2 46q0 80 -38 125t-114 45
q-120 0 -184 -85.5t-64 -212.5q0 -80 38.5 -125t114.5 -45z" />
    <glyph glyph-name="oe" unicode="&#x153;" horiz-adv-x="923" 
d="M757 529q113 0 163 -72t27 -182l-11 -52h-350l-6 -20q-4 -47 19 -74t74 -27q80 0 114 60h130q-26 -73 -98.5 -122t-168.5 -49q-106 0 -160 73q-84 -73 -207 -73q-101 0 -153.5 57t-52.5 151q0 138 86 234t229 96q111 0 166 -73q79 73 199 73zM817 312q9 47 -11.5 76
t-70.5 29q-54 0 -87.5 -29t-45.5 -76h215zM307 109q59 0 97 36t50 98q0 5 2 14t2 13q2 22 2 34q0 107 -92 107q-72 0 -112 -54t-40 -142q0 -106 91 -106z" />
    <glyph glyph-name="Racute" unicode="&#x154;" horiz-adv-x="670" 
d="M673 906l-145 -143h-100l2 10l98 143h147zM723 519q0 -89 -52 -156t-137 -93l121 -260l-2 -10h-157l-109 256h-120l-51 -256h-137l142 700h307q92 0 143.5 -51.5t51.5 -129.5zM333 577l-40 -199h161q59 0 92.5 36.5t33.5 84.5q0 35 -21 56.5t-62 21.5h-164z" />
    <glyph glyph-name="racute" unicode="&#x155;" horiz-adv-x="389" 
d="M267 583l2 10l98 143h147l-2 -10l-145 -143h-100zM61 0l106 520h112l-5 -79h4q57 87 152 87h43l-29 -124h-47q-60 0 -101.5 -39.5t-55.5 -109.5l-52 -255h-127z" />
    <glyph glyph-name="Rcommaaccent" unicode="&#x156;" horiz-adv-x="670" 
d="M723 519q0 -89 -52 -156t-137 -93l121 -260l-2 -10h-157l-109 256h-120l-51 -256h-137l142 700h307q92 0 143.5 -51.5t51.5 -129.5zM333 577l-40 -199h161q59 0 92.5 36.5t33.5 84.5q0 35 -21 56.5t-62 21.5h-164zM226 -205l52 154h134l-2 -10l-97 -154h-89z" />
    <glyph glyph-name="rcommaaccent" unicode="&#x157;" horiz-adv-x="389" 
d="M61 0l106 520h112l-5 -79h4q57 87 152 87h43l-29 -124h-47q-60 0 -101.5 -39.5t-55.5 -109.5l-52 -255h-127zM34 -215l2 10l52 154h134l-2 -10l-97 -154h-89z" />
    <glyph glyph-name="Rcaron" unicode="&#x158;" horiz-adv-x="670" 
d="M567 765h-148l-68 139l2 10h104l47 -61h4l73 61h113l-2 -10zM723 519q0 -89 -52 -156t-137 -93l121 -260l-2 -10h-157l-109 256h-120l-51 -256h-137l142 700h307q92 0 143.5 -51.5t51.5 -129.5zM333 577l-40 -199h161q59 0 92.5 36.5t33.5 84.5q0 35 -21 56.5t-62 21.5
h-164z" />
    <glyph glyph-name="rcaron" unicode="&#x159;" horiz-adv-x="389" 
d="M258 585l-68 139l2 10h104l47 -61h4l73 61h113l-2 -10l-125 -139h-148zM61 0l106 520h112l-5 -79h4q57 87 152 87h43l-29 -124h-47q-60 0 -101.5 -39.5t-55.5 -109.5l-52 -255h-127z" />
    <glyph glyph-name="Sacute" unicode="&#x15a;" horiz-adv-x="632" 
d="M408 763l2 10l98 143h147l-2 -10l-145 -143h-100zM315 -9q-134 0 -195 64.5t-44 175.5h139q-7 -58 25 -88t98 -30q81 0 121.5 27t40.5 74q0 55 -80 71l-98 22q-172 39 -172 168q0 106 81 170t226 64q118 0 183 -62t46 -160h-139q5 44 -22.5 71.5t-91.5 27.5
q-68 0 -103 -24t-35 -63q0 -47 77 -65l90 -20q88 -19 135.5 -60t47.5 -114q0 -111 -81.5 -180t-248.5 -69z" />
    <glyph glyph-name="sacute" unicode="&#x15b;" horiz-adv-x="511" 
d="M312 583l2 10l98 143h147l-2 -10l-145 -143h-100zM256 -9q-110 0 -156.5 49.5t-31.5 134.5h134q-6 -31 13.5 -51t62.5 -20q48 0 73 15.5t25 39.5q0 34 -51 44l-79 16q-57 11 -91 43t-34 86q0 81 60 131t180 50q96 0 144.5 -48.5t34.5 -124.5h-132q6 29 -12 47.5t-57 18.5
q-38 0 -61 -15t-23 -40q0 -30 44 -39l91 -18q124 -25 124 -125q0 -93 -68 -143.5t-190 -50.5z" />
    <glyph glyph-name="Scircumflex" unicode="&#x15c;" horiz-adv-x="632" 
d="M304 765l2 10l125 139h148l68 -139l-2 -10h-106l-48 61h-4l-73 -61h-110zM315 -9q-134 0 -195 64.5t-44 175.5h139q-7 -58 25 -88t98 -30q81 0 121.5 27t40.5 74q0 55 -80 71l-98 22q-172 39 -172 168q0 106 81 170t226 64q118 0 183 -62t46 -160h-139q5 44 -22.5 71.5
t-91.5 27.5q-68 0 -103 -24t-35 -63q0 -47 77 -65l90 -20q88 -19 135.5 -60t47.5 -114q0 -111 -81.5 -180t-248.5 -69z" />
    <glyph glyph-name="scircumflex" unicode="&#x15d;" horiz-adv-x="511" 
d="M208 585l2 10l125 139h148l68 -139l-2 -10h-106l-48 61h-4l-73 -61h-110zM256 -9q-110 0 -156.5 49.5t-31.5 134.5h134q-6 -31 13.5 -51t62.5 -20q48 0 73 15.5t25 39.5q0 34 -51 44l-79 16q-57 11 -91 43t-34 86q0 81 60 131t180 50q96 0 144.5 -48.5t34.5 -124.5h-132
q6 29 -12 47.5t-57 18.5q-38 0 -61 -15t-23 -40q0 -30 44 -39l91 -18q124 -25 124 -125q0 -93 -68 -143.5t-190 -50.5z" />
    <glyph glyph-name="Scedilla" unicode="&#x15e;" horiz-adv-x="632" 
d="M686 487h-139q5 44 -22.5 71.5t-91.5 27.5q-68 0 -103 -24t-35 -63q0 -47 77 -65l90 -20q88 -19 135.5 -60t47.5 -114q0 -102 -69 -169t-210 -78l-28 -32q36 -2 58 -22.5t22 -51.5q0 -48 -43.5 -80t-116.5 -32q-54 0 -85.5 26.5t-22.5 72.5h82q-2 -14 8.5 -22.5
t29.5 -8.5q55 0 55 35q0 26 -39 26h-32l-18 31l41 58q-114 9 -165 72t-36 166h139q-7 -58 25 -88t98 -30q81 0 121.5 27t40.5 74q0 55 -80 71l-98 22q-172 39 -172 168q0 106 81 170t226 64q118 0 183 -62t46 -160z" />
    <glyph glyph-name="scedilla" unicode="&#x15f;" horiz-adv-x="511" 
d="M540 356h-132q6 29 -12 47.5t-57 18.5q-38 0 -61 -15t-23 -40q0 -30 44 -39l91 -18q124 -25 124 -125q0 -85 -57 -134.5t-161 -57.5l-27 -32q36 -2 58 -22.5t22 -51.5q0 -48 -43.5 -80t-116.5 -32q-54 0 -85.5 26.5t-22.5 72.5h82q-2 -14 8.5 -22.5t29.5 -8.5q55 0 55 35
q0 26 -39 26h-32l-18 31l42 59q-85 10 -119.5 58t-21.5 123h134q-6 -31 13.5 -51t62.5 -20q48 0 73 15.5t25 39.5q0 34 -51 44l-79 16q-57 11 -91 43t-34 86q0 81 60 131t180 50q96 0 144.5 -48.5t34.5 -124.5z" />
    <glyph glyph-name="Scaron" unicode="&#x160;" horiz-adv-x="632" 
d="M399 765l-68 139l2 10h104l47 -61h4l73 61h113l-2 -10l-125 -139h-148zM315 -9q-134 0 -195 64.5t-44 175.5h139q-7 -58 25 -88t98 -30q81 0 121.5 27t40.5 74q0 55 -80 71l-98 22q-172 39 -172 168q0 106 81 170t226 64q118 0 183 -62t46 -160h-139q5 44 -22.5 71.5
t-91.5 27.5q-68 0 -103 -24t-35 -63q0 -47 77 -65l90 -20q88 -19 135.5 -60t47.5 -114q0 -111 -81.5 -180t-248.5 -69z" />
    <glyph glyph-name="scaron" unicode="&#x161;" horiz-adv-x="511" 
d="M303 585l-68 139l2 10h104l47 -61h4l73 61h113l-2 -10l-125 -139h-148zM256 -9q-110 0 -156.5 49.5t-31.5 134.5h134q-6 -31 13.5 -51t62.5 -20q48 0 73 15.5t25 39.5q0 34 -51 44l-79 16q-57 11 -91 43t-34 86q0 81 60 131t180 50q96 0 144.5 -48.5t34.5 -124.5h-132
q6 29 -12 47.5t-57 18.5q-38 0 -61 -15t-23 -40q0 -30 44 -39l91 -18q124 -25 124 -125q0 -93 -68 -143.5t-190 -50.5z" />
    <glyph glyph-name="uni0162" unicode="&#x162;" horiz-adv-x="592" 
d="M227 0l117 576h-206l25 124h550l-24 -124h-207l-117 -576h-138zM162 -215l2 10l52 154h134l-2 -10l-97 -154h-89z" />
    <glyph glyph-name="uni0163" unicode="&#x163;" horiz-adv-x="417" 
d="M283 0q-83 0 -118.5 43.5t-20.5 114.5l49 248h-84l22 114h91l28 137h128l-28 -137h125l-22 -114h-126l-43 -219q-7 -37 5 -53.5t47 -16.5h62l-23 -117h-92zM112 -215l2 10l52 154h134l-2 -10l-97 -154h-89z" />
    <glyph glyph-name="Tcaron" unicode="&#x164;" horiz-adv-x="592" 
d="M383 765l-68 139l2 10h104l47 -61h4l73 61h113l-2 -10l-125 -139h-148zM227 0l117 576h-206l25 124h550l-24 -124h-207l-117 -576h-138z" />
    <glyph glyph-name="tcaron" unicode="&#x165;" horiz-adv-x="417" 
d="M417 570l35 170h134l-2 -10l-78 -160h-89zM283 0q-83 0 -118.5 43.5t-20.5 114.5l49 248h-84l22 114h91l28 137h128l-28 -137h125l-22 -114h-126l-43 -219q-7 -37 5 -53.5t47 -16.5h62l-23 -117h-92z" />
    <glyph glyph-name="Tbar" unicode="&#x166;" horiz-adv-x="598" 
d="M689 576h-207l-30 -147h167l-23 -115h-167l-64 -314h-138l64 314h-162l24 115h161l30 147h-206l25 124h550z" />
    <glyph glyph-name="tbar" unicode="&#x167;" horiz-adv-x="417" 
d="M453 406h-126l-14 -68h118l-19 -91h-117l-14 -69q-7 -37 5 -53.5t47 -16.5q28 0 52 8h10l-23 -112q-44 -13 -100 -13q-83 0 -114 42.5t-17 115.5l20 98h-85l19 91h84l14 68h-84l22 114h91l22 109l124 28h10l-28 -137h125z" />
    <glyph glyph-name="Utilde" unicode="&#x168;" horiz-adv-x="714" 
d="M564 768q-34 0 -62 19l-14 9q-21 12 -35 12q-30 0 -38 -38h-83l3 15q12 57 47 88.5t83 31.5q31 0 65 -20l13 -8q21 -14 35 -14q28 0 36 40h82l-3 -15q-24 -120 -129 -120zM363 -9q-128 0 -197.5 73t-42.5 204l88 432h137l-87 -430q-15 -71 11.5 -113.5t106.5 -42.5
q152 0 183 156l88 430h137l-87 -432q-28 -136 -115 -206.5t-222 -70.5z" />
    <glyph glyph-name="utilde" unicode="&#x169;" horiz-adv-x="579" 
d="M463 588q-34 0 -62 19l-14 9q-21 12 -35 12q-30 0 -38 -38h-83l3 15q12 57 47 88.5t83 31.5q31 0 65 -20l13 -8q21 -14 35 -14q28 0 36 40h82l-3 -15q-24 -120 -129 -120zM241 -9q-87 0 -128 50.5t-23 137.5l69 341h134l-61 -303q-21 -105 75 -105q47 0 83 32.5t48 87.5
l58 288h134l-105 -520h-120l1 59h-4q-61 -68 -161 -68z" />
    <glyph glyph-name="Umacron" unicode="&#x16a;" horiz-adv-x="714" 
d="M374 790l21 102h288l-21 -102h-288zM363 -9q-128 0 -197.5 73t-42.5 204l88 432h137l-87 -430q-15 -71 11.5 -113.5t106.5 -42.5q152 0 183 156l88 430h137l-87 -432q-28 -136 -115 -206.5t-222 -70.5z" />
    <glyph glyph-name="umacron" unicode="&#x16b;" horiz-adv-x="579" 
d="M273 610l21 102h288l-21 -102h-288zM241 -9q-87 0 -128 50.5t-23 137.5l69 341h134l-61 -303q-21 -105 75 -105q47 0 83 32.5t48 87.5l58 288h134l-105 -520h-120l1 59h-4q-61 -68 -161 -68z" />
    <glyph glyph-name="Ubreve" unicode="&#x16c;" horiz-adv-x="714" 
d="M516 765q-75 0 -110 39t-21 108h98q-9 -54 48 -54q55 0 69 54h98q-24 -147 -182 -147zM363 -9q-128 0 -197.5 73t-42.5 204l88 432h137l-87 -430q-15 -71 11.5 -113.5t106.5 -42.5q152 0 183 156l88 430h137l-87 -432q-28 -136 -115 -206.5t-222 -70.5z" />
    <glyph glyph-name="ubreve" unicode="&#x16d;" horiz-adv-x="579" 
d="M415 585q-75 0 -110 39t-21 108h98q-9 -54 48 -54q56 0 69 54h98q-24 -147 -182 -147zM241 -9q-87 0 -128 50.5t-23 137.5l69 341h134l-61 -303q-21 -105 75 -105q47 0 83 32.5t48 87.5l58 288h134l-105 -520h-120l1 59h-4q-61 -68 -161 -68z" />
    <glyph glyph-name="Uring" unicode="&#x16e;" horiz-adv-x="714" 
d="M511 749q-43 0 -71 26t-28 67q0 57 39.5 94.5t98.5 37.5q44 0 71.5 -26t27.5 -67q0 -57 -39 -94.5t-99 -37.5zM520 817q25 0 41 15t16 37q0 16 -10.5 26.5t-28.5 10.5q-23 0 -38.5 -16t-15.5 -38q0 -15 10 -25t26 -10zM363 -9q-128 0 -197.5 73t-42.5 204l88 432h137
l-87 -430q-15 -71 11.5 -113.5t106.5 -42.5q152 0 183 156l88 430h137l-87 -432q-28 -136 -115 -206.5t-222 -70.5z" />
    <glyph glyph-name="uring" unicode="&#x16f;" horiz-adv-x="579" 
d="M410 569q-43 0 -71 26t-28 67q0 57 39.5 94.5t98.5 37.5q44 0 71.5 -26t27.5 -67q0 -57 -39 -94.5t-99 -37.5zM419 637q25 0 41 15t16 37q0 16 -10.5 26.5t-28.5 10.5q-23 0 -38.5 -16t-15.5 -38q0 -15 10 -25t26 -10zM241 -9q-87 0 -128 50.5t-23 137.5l69 341h134
l-61 -303q-21 -105 75 -105q47 0 83 32.5t48 87.5l58 288h134l-105 -520h-120l1 59h-4q-61 -68 -161 -68z" />
    <glyph glyph-name="Uhungarumlaut" unicode="&#x170;" horiz-adv-x="714" 
d="M360 763l2 10l76 143h145l-2 -10l-131 -143h-90zM543 763l2 10l76 143h145l-2 -10l-132 -143h-89zM363 -9q-128 0 -197.5 73t-42.5 204l88 432h137l-87 -430q-15 -71 11.5 -113.5t106.5 -42.5q152 0 183 156l88 430h137l-87 -432q-28 -136 -115 -206.5t-222 -70.5z" />
    <glyph glyph-name="uhungarumlaut" unicode="&#x171;" horiz-adv-x="579" 
d="M259 583l2 10l76 143h145l-2 -10l-131 -143h-90zM442 583l2 10l76 143h145l-2 -10l-132 -143h-89zM241 -9q-87 0 -128 50.5t-23 137.5l69 341h134l-61 -303q-21 -105 75 -105q47 0 83 32.5t48 87.5l58 288h134l-105 -520h-120l1 59h-4q-61 -68 -161 -68z" />
    <glyph glyph-name="Uogonek" unicode="&#x172;" horiz-adv-x="714" 
d="M650 700h137l-87 -432q-25 -118 -95 -187.5t-178 -85.5q-40 -17 -67 -43.5t-27 -55.5q0 -34 42 -34h36l-17 -87h-66q-45 0 -77.5 23t-32.5 65q0 79 89 132q-104 16 -156 86.5t-28 186.5l88 432h137l-87 -430q-15 -71 11.5 -113.5t106.5 -42.5q152 0 183 156z" />
    <glyph glyph-name="uogonek" unicode="&#x173;" horiz-adv-x="579" 
d="M496 520h134l-105 -520h-6q-43 -17 -74 -44.5t-31 -59.5q0 -34 42 -34h36l-17 -87h-66q-45 0 -77.5 23t-32.5 65q0 87 106 141l1 55h-4q-61 -68 -161 -68q-87 0 -128 50.5t-23 137.5l69 341h134l-61 -303q-21 -105 75 -105q47 0 83 32.5t48 87.5z" />
    <glyph glyph-name="Wcircumflex" unicode="&#x174;" horiz-adv-x="937" 
d="M455 765l2 10l125 139h148l68 -139l-2 -10h-106l-48 61h-4l-73 -61h-110zM176 0l-20 690l2 10h151l-5 -506h4l223 506h157l20 -506h4l199 506h152l-2 -10l-300 -690h-176l-14 490h-4l-217 -490h-174z" />
    <glyph glyph-name="wcircumflex" unicode="&#x175;" horiz-adv-x="809" 
d="M359 581l2 10l125 139h148l68 -139l-2 -10h-106l-48 61h-4l-73 -61h-110zM139 0l-23 510l2 10h137l4 -370h4l158 370h172l10 -370h4l153 370h142l-2 -10l-229 -510h-177l-10 369h-4l-164 -369h-177z" />
    <glyph glyph-name="Ycircumflex" unicode="&#x176;" horiz-adv-x="684" 
d="M332 765l2 10l125 139h148l68 -139l-2 -10h-106l-48 61h-4l-73 -61h-110zM274 0l57 282l-175 408l2 10h153l108 -281h4l224 281h163l-2 -10l-339 -407l-57 -283h-138z" />
    <glyph glyph-name="ycircumflex" unicode="&#x177;" horiz-adv-x="580" 
d="M259 585l2 10l125 139h148l68 -139l-2 -10h-106l-48 61h-4l-73 -61h-110zM107 -229l2 10l123 220l-19 2l-72 507l2 10h137l42 -380h4l201 380h145l-2 -10l-419 -739h-144z" />
    <glyph glyph-name="Ydieresis" unicode="&#x178;" horiz-adv-x="684" 
d="M351 785l24 122h122l-25 -122h-121zM544 785l24 122h122l-24 -122h-122zM274 0l57 282l-175 408l2 10h153l108 -281h4l224 281h163l-2 -10l-339 -407l-57 -283h-138z" />
    <glyph glyph-name="Zacute" unicode="&#x179;" horiz-adv-x="597" 
d="M392 763l2 10l98 143h147l-2 -10l-145 -143h-100zM33 0l24 120l441 452l1 4h-340l25 124h516l-24 -122l-440 -451l-1 -4h354l-25 -123h-531z" />
    <glyph glyph-name="zacute" unicode="&#x17a;" horiz-adv-x="502" 
d="M314 583l2 10l98 143h147l-2 -10l-145 -143h-100zM41 0l22 112l307 290l1 4h-246l22 114h418l-23 -113l-306 -289v-4h249l-24 -114h-420z" />
    <glyph glyph-name="Zdotaccent" unicode="&#x17b;" horiz-adv-x="597" 
d="M387 774l28 140h144l-28 -140h-144zM33 0l24 120l441 452l1 4h-340l25 124h516l-24 -122l-440 -451l-1 -4h354l-25 -123h-531z" />
    <glyph glyph-name="zdotaccent" unicode="&#x17c;" horiz-adv-x="502" 
d="M309 594l28 140h144l-28 -140h-144zM41 0l22 112l307 290l1 4h-246l22 114h418l-23 -113l-306 -289v-4h249l-24 -114h-420z" />
    <glyph glyph-name="Zcaron" unicode="&#x17d;" horiz-adv-x="597" 
d="M383 765l-68 139l2 10h104l47 -61h4l73 61h113l-2 -10l-125 -139h-148zM33 0l24 120l441 452l1 4h-340l25 124h516l-24 -122l-440 -451l-1 -4h354l-25 -123h-531z" />
    <glyph glyph-name="zcaron" unicode="&#x17e;" horiz-adv-x="502" 
d="M305 585l-68 139l2 10h104l47 -61h4l73 61h113l-2 -10l-125 -139h-148zM41 0l22 112l307 290l1 4h-246l22 114h418l-23 -113l-306 -289v-4h249l-24 -114h-420z" />
    <glyph glyph-name="florin" unicode="&#x192;" horiz-adv-x="469" 
d="M39 -229v10l80 518h-93v113h111l19 123q28 189 214 189h73v-115h-60q-83 0 -96 -87l-17 -110h131v-113h-148l-80 -528h-134z" />
    <glyph glyph-name="uni01CD" unicode="&#x1cd;" horiz-adv-x="696" 
d="M592 914h113l-2 -10l-125 -139h-148l-68 139l2 10h104l47 -61h4zM402 700h175l106 -690l-2 -10h-147l-18 147h-272l-77 -147h-151l2 10zM308 268h193l-35 292h-4z" />
    <glyph glyph-name="uni01CE" unicode="&#x1ce;" 
d="M325 585l-68 139l2 10h104l47 -61h4l73 61h113l-2 -10l-125 -139h-148zM244 -9q-81 0 -124 57t-43 148q0 139 75.5 236t197.5 97q102 0 133 -65h4l26 56h119l-105 -520h-120l-2 56h-4q-58 -65 -157 -65zM305 109q73 0 112.5 60.5t39.5 135.5q0 48 -22 77t-69 29
q-41 0 -72 -18.5t-47.5 -48.5t-24 -62t-7.5 -65q0 -49 22 -78.5t68 -29.5z" />
    <glyph glyph-name="uni01CF" unicode="&#x1cf;" horiz-adv-x="295" 
d="M232 765l-68 139l2 10h104l47 -61h4l73 61h113l-2 -10l-125 -139h-148zM79 0l142 700h138l-142 -700h-138z" />
    <glyph glyph-name="uni01D0" unicode="&#x1d0;" horiz-adv-x="247" 
d="M175 585l-68 139l2 10h104l47 -61h4l73 61h113l-2 -10l-125 -139h-148zM61 0l106 520h134l-106 -520h-134z" />
    <glyph glyph-name="uni01D1" unicode="&#x1d1;" horiz-adv-x="740" 
d="M454 765l-68 139l2 10h104l47 -61h4l73 61h113l-2 -10l-125 -139h-148zM370 -9q-133 0 -202 77.5t-69 201.5q0 81 26.5 158t76 140.5t130 102t180.5 38.5q133 0 202 -77t69 -202q0 -81 -27.5 -158.5t-78 -140.5t-131 -101.5t-176.5 -38.5zM394 116q79 0 137 45t84 111
t26 142q0 80 -38 125t-114 45q-61 0 -109.5 -26t-78 -69.5t-45 -95.5t-15.5 -107q0 -80 38.5 -125t114.5 -45z" />
    <glyph glyph-name="uni01D2" unicode="&#x1d2;" horiz-adv-x="569" 
d="M331 585l-68 139l2 10h104l47 -61h4l73 61h113l-2 -10l-125 -139h-148zM290 -9q-102 0 -157.5 57.5t-55.5 150.5q0 142 78.5 236t229.5 94q102 0 157.5 -58t55.5 -152q0 -91 -31 -163t-102.5 -118.5t-174.5 -46.5zM307 109q73 0 113 53t40 142q0 107 -92 107
q-72 0 -112 -54t-40 -142q0 -106 91 -106z" />
    <glyph glyph-name="Gcaron" unicode="&#x1e6;" horiz-adv-x="716" 
d="M451 765l-68 139l2 10h104l47 -61h4l73 61h113l-2 -10l-125 -139h-148zM374 -9q-132 0 -203.5 77t-71.5 200q0 89 27 168t76.5 140.5t127.5 97t173 35.5q129 0 200.5 -70.5t61.5 -176.5h-140q2 54 -31.5 88t-106.5 34q-117 0 -181.5 -86.5t-64.5 -213.5q0 -79 37.5 -124
t113.5 -45q77 0 125 38.5t70 99.5h-147l25 122h289l-15 -73q-29 -144 -124.5 -227.5t-240.5 -83.5z" />
    <glyph glyph-name="gcaron" unicode="&#x1e7;" 
d="M323 585l-68 139l2 10h104l47 -61h4l73 61h113l-2 -10l-125 -139h-148zM233 -238q-104 0 -157.5 51.5t-38.5 135.5h131q-3 -31 19.5 -51.5t66.5 -20.5q55 0 90 27.5t44 71.5l16 80h-4q-61 -65 -156 -65q-79 0 -123.5 56.5t-44.5 146.5q0 138 77 236.5t197 98.5
q97 0 133 -65h4l26 56h119l-110 -546q-21 -99 -94 -155.5t-195 -56.5zM305 109q41 0 71.5 18.5t47.5 48t25 62t8 65.5q0 48 -22.5 78t-68.5 30q-76 0 -113.5 -59t-37.5 -137q0 -48 22 -77t68 -29z" />
    <glyph glyph-name="Scommaaccent" unicode="&#x218;" horiz-adv-x="632" 
d="M315 -9q-134 0 -195 64.5t-44 175.5h139q-7 -58 25 -88t98 -30q81 0 121.5 27t40.5 74q0 55 -80 71l-98 22q-172 39 -172 168q0 106 81 170t226 64q118 0 183 -62t46 -160h-139q5 44 -22.5 71.5t-91.5 27.5q-68 0 -103 -24t-35 -63q0 -47 77 -65l90 -20q88 -19 135.5 -60
t47.5 -114q0 -111 -81.5 -180t-248.5 -69zM193 -215l2 10l52 154h134l-2 -10l-97 -154h-89z" />
    <glyph glyph-name="scommaaccent" unicode="&#x219;" horiz-adv-x="511" 
d="M256 -9q-110 0 -156.5 49.5t-31.5 134.5h134q-6 -31 13.5 -51t62.5 -20q48 0 73 15.5t25 39.5q0 34 -51 44l-79 16q-57 11 -91 43t-34 86q0 81 60 131t180 50q96 0 144.5 -48.5t34.5 -124.5h-132q6 29 -12 47.5t-57 18.5q-38 0 -61 -15t-23 -40q0 -30 44 -39l91 -18
q124 -25 124 -125q0 -93 -68 -143.5t-190 -50.5zM124 -215l2 10l52 154h134l-2 -10l-97 -154h-89z" />
    <glyph glyph-name="uni021A" unicode="&#x21a;" horiz-adv-x="592" 
d="M163 700h550l-24 -124h-207l-117 -576h-24l-34 -39q36 -2 58 -22.5t22 -51.5q0 -48 -43.5 -80t-116.5 -32q-54 0 -85.5 26.5t-22.5 72.5h82q-2 -14 8.5 -22.5t29.5 -8.5q55 0 55 35q0 26 -39 26h-32l-18 31l46 65h-24l117 576h-206z" />
    <glyph glyph-name="uni021B" unicode="&#x21b;" horiz-adv-x="417" 
d="M327 406l-43 -219q-7 -37 5 -53.5t47 -16.5h62l-23 -117h-84l-34 -39q36 -2 58 -22.5t22 -51.5q0 -48 -43.5 -80t-116.5 -32q-54 0 -85.5 26.5t-22.5 72.5h82q-2 -14 8.5 -22.5t29.5 -8.5q55 0 55 35q0 26 -39 26h-32l-18 31l55 77q-89 35 -66 146l49 248h-84l22 114h91
l28 137h128l-28 -137h125l-22 -114h-126z" />
    <glyph glyph-name="uni0237" unicode="&#x237;" horiz-adv-x="254" 
d="M-86 -238l27 124h38q67 0 81 73l114 561h134l-119 -589q-17 -83 -71.5 -126t-138.5 -43h-65z" />
    <glyph glyph-name="circumflex" unicode="&#x2c6;" horiz-adv-x="396" 
d="M147 585l2 10l125 139h148l68 -139l-2 -10h-106l-48 61h-4l-73 -61h-110z" />
    <glyph glyph-name="caron" unicode="&#x2c7;" horiz-adv-x="396" 
d="M243 585l-68 139l2 10h104l47 -61h4l73 61h113l-2 -10l-125 -139h-148z" />
    <glyph glyph-name="breve" unicode="&#x2d8;" horiz-adv-x="383" 
d="M315 585q-75 0 -110 39t-21 108h98q-9 -54 48 -54q56 0 69 54h98q-24 -147 -182 -147z" />
    <glyph glyph-name="dotaccent" unicode="&#x2d9;" horiz-adv-x="226" 
d="M163 594l28 140h144l-28 -140h-144z" />
    <glyph glyph-name="ring" unicode="&#x2da;" horiz-adv-x="294" 
d="M266 569q-43 0 -71 26t-28 67q0 57 39.5 94.5t98.5 37.5q44 0 71.5 -26t27.5 -67q0 -57 -39 -94.5t-99 -37.5zM275 637q25 0 41 15t16 37q0 16 -10.5 26.5t-28.5 10.5q-23 0 -38.5 -16t-15.5 -38q0 -15 10 -25t26 -10z" />
    <glyph glyph-name="ogonek" unicode="&#x2db;" horiz-adv-x="256" 
d="M115 -225q-45 0 -77.5 23t-32.5 65q0 97 131 153l89 -16q-43 -17 -74 -44.5t-31 -59.5q0 -34 42 -34h36l-17 -87h-66z" />
    <glyph glyph-name="tilde" unicode="&#x2dc;" horiz-adv-x="385" 
d="M376 588q-34 0 -62 19l-14 9q-21 12 -35 12q-30 0 -38 -38h-83l3 15q12 57 47 88.5t83 31.5q31 0 65 -20l13 -8q21 -14 35 -14q28 0 36 40h82l-3 -15q-24 -120 -129 -120z" />
    <glyph glyph-name="hungarumlaut" unicode="&#x2dd;" horiz-adv-x="437" 
d="M150 583l2 10l76 143h145l-2 -10l-131 -143h-90zM333 583l2 10l76 143h145l-2 -10l-132 -143h-89z" />
    <glyph glyph-name="uni0326" unicode="&#x326;" horiz-adv-x="0" 
d="M-234 -215l2 10l52 154h134l-2 -10l-97 -154h-89z" />
    <glyph glyph-name="Wgrave" unicode="&#x1e80;" horiz-adv-x="937" 
d="M598 763l-87 143l2 10h147l40 -143l-2 -10h-100zM176 0l-20 690l2 10h151l-5 -506h4l223 506h157l20 -506h4l199 506h152l-2 -10l-300 -690h-176l-14 490h-4l-217 -490h-174z" />
    <glyph glyph-name="wgrave" unicode="&#x1e81;" horiz-adv-x="809" 
d="M502 579l-87 143l2 10h147l40 -143l-2 -10h-100zM139 0l-23 510l2 10h137l4 -370h4l158 370h172l10 -370h4l153 370h142l-2 -10l-229 -510h-177l-10 369h-4l-164 -369h-177z" />
    <glyph glyph-name="Wacute" unicode="&#x1e82;" horiz-adv-x="937" 
d="M559 763l2 10l98 143h147l-2 -10l-145 -143h-100zM176 0l-20 690l2 10h151l-5 -506h4l223 506h157l20 -506h4l199 506h152l-2 -10l-300 -690h-176l-14 490h-4l-217 -490h-174z" />
    <glyph glyph-name="wacute" unicode="&#x1e83;" horiz-adv-x="809" 
d="M463 579l2 10l98 143h147l-2 -10l-145 -143h-100zM139 0l-23 510l2 10h137l4 -370h4l158 370h172l10 -370h4l153 370h142l-2 -10l-229 -510h-177l-10 369h-4l-164 -369h-177z" />
    <glyph glyph-name="Wdieresis" unicode="&#x1e84;" horiz-adv-x="937" 
d="M474 785l24 122h122l-25 -122h-121zM667 785l24 122h122l-24 -122h-122zM176 0l-20 690l2 10h151l-5 -506h4l223 506h157l20 -506h4l199 506h152l-2 -10l-300 -690h-176l-14 490h-4l-217 -490h-174z" />
    <glyph glyph-name="wdieresis" unicode="&#x1e85;" horiz-adv-x="809" 
d="M378 601l24 122h122l-25 -122h-121zM571 601l24 122h122l-24 -122h-122zM139 0l-23 510l2 10h137l4 -370h4l158 370h172l10 -370h4l153 370h142l-2 -10l-229 -510h-177l-10 369h-4l-164 -369h-177z" />
    <glyph glyph-name="uni1EBC" unicode="&#x1ebc;" horiz-adv-x="610" 
d="M541 768q-34 0 -62 19l-14 9q-21 12 -35 12q-30 0 -38 -38h-83l3 15q12 57 47 88.5t83 31.5q31 0 65 -20l13 -8q21 -14 35 -14q28 0 36 40h82l-3 -15q-24 -120 -129 -120zM79 0l142 700h485l-24 -123h-349l-31 -155h318l-26 -122h-318l-36 -178h349l-25 -122h-485z" />
    <glyph glyph-name="uni1EBD" unicode="&#x1ebd;" horiz-adv-x="555" 
d="M452 588q-34 0 -62 19l-14 9q-21 12 -35 12q-30 0 -38 -38h-83l3 15q12 57 47 88.5t83 31.5q31 0 65 -20l13 -8q21 -14 35 -14q28 0 36 40h82l-3 -15q-24 -120 -129 -120zM283 -9q-99 0 -152 59t-53 153q0 63 19.5 121t56.5 104t95.5 73.5t130.5 27.5q118 0 169.5 -72
t28.5 -182l-10 -52h-354q-9 -56 13 -88.5t77 -32.5q82 0 114 60h131q-26 -75 -94.5 -123t-171.5 -48zM233 312h216q8 47 -12.5 76t-70.5 29q-53 0 -87 -29t-46 -76z" />
    <glyph glyph-name="Ygrave" unicode="&#x1ef2;" horiz-adv-x="684" 
d="M475 763l-87 143l2 10h147l40 -143l-2 -10h-100zM274 0l57 282l-175 408l2 10h153l108 -281h4l224 281h163l-2 -10l-339 -407l-57 -283h-138z" />
    <glyph glyph-name="ygrave" unicode="&#x1ef3;" horiz-adv-x="580" 
d="M402 583l-87 143l2 10h147l40 -143l-2 -10h-100zM107 -229l2 10l123 220l-19 2l-72 507l2 10h137l42 -380h4l201 380h145l-2 -10l-419 -739h-144z" />
    <glyph glyph-name="endash" unicode="&#x2013;" horiz-adv-x="622" 
d="M108 233l24 120h502l-24 -120h-502z" />
    <glyph glyph-name="emdash" unicode="&#x2014;" horiz-adv-x="1102" 
d="M108 233l24 120h982l-24 -120h-982z" />
    <glyph glyph-name="quoteleft" unicode="&#x2018;" horiz-adv-x="233" 
d="M348 700l-2 -10l-80 -241h-149l2 10l125 241h104z" />
    <glyph glyph-name="quoteright" unicode="&#x2019;" horiz-adv-x="233" 
d="M117 449l2 10l80 241h149l-2 -10l-125 -241h-104z" />
    <glyph glyph-name="quotesinglbase" unicode="&#x201a;" horiz-adv-x="233" 
d="M-2 -141l2 10l80 241h149l-2 -10l-125 -241h-104z" />
    <glyph glyph-name="quotedblleft" unicode="&#x201c;" horiz-adv-x="431" 
d="M348 700l-2 -10l-80 -241h-149l2 10l125 241h104zM547 700l-2 -10l-80 -241h-149l2 10l125 241h104z" />
    <glyph glyph-name="quotedblright" unicode="&#x201d;" horiz-adv-x="431" 
d="M117 449l2 10l80 241h149l-2 -10l-125 -241h-104zM316 449l2 10l80 241h149l-2 -10l-125 -241h-104z" />
    <glyph glyph-name="quotedblbase" unicode="&#x201e;" horiz-adv-x="431" 
d="M-2 -141l2 10l80 241h149l-2 -10l-125 -241h-104zM196 -141l2 10l80 241h149l-2 -10l-125 -241h-104z" />
    <glyph glyph-name="dagger" unicode="&#x2020;" horiz-adv-x="465" 
d="M518 578l-21 -107h-111l-27 -135l-50 -165h-83l16 165l27 135h-109l22 107h109l25 122h117l-25 -122h110z" />
    <glyph glyph-name="daggerdbl" unicode="&#x2021;" horiz-adv-x="465" 
d="M382 471l-37 -121l-11 -120h114l-22 -108h-110l-25 -122h-117l25 122h-110l22 108h114l37 120l13 121h-115l22 107h109l25 122h117l-25 -122h110l-21 -107h-115z" />
    <glyph glyph-name="bullet" unicode="&#x2022;" horiz-adv-x="386" 
d="M225 156q-54 0 -81.5 29t-27.5 78q0 71 44 118.5t120 47.5q52 0 80.5 -29.5t28.5 -77.5q0 -71 -45.5 -118.5t-118.5 -47.5z" />
    <glyph glyph-name="ellipsis" unicode="&#x2026;" horiz-adv-x="833" 
d="M51 0l29 143h148l-29 -143h-148zM342 0l30 143h148l-30 -143h-148zM634 0l29 143h148l-29 -143h-148z" />
    <glyph glyph-name="perthousand" unicode="&#x2030;" horiz-adv-x="1218" 
d="M281 348q-63 0 -96.5 37.5t-33.5 101.5q0 95 56 160t148 65q62 0 95.5 -38t33.5 -101q0 -95 -55.5 -160t-147.5 -65zM127 0l2 10l614 690h112l-2 -10l-612 -690h-114zM299 436q44 0 67 34.5t23 90.5q0 63 -52 63q-44 0 -67 -34.5t-23 -90.5q0 -63 52 -63zM635 -9
q-63 0 -96.5 38t-33.5 101q0 95 56 160t148 65q63 0 96.5 -38t33.5 -101q0 -95 -56 -160t-148 -65zM1006 -9q-62 0 -95.5 38t-33.5 101q0 94 56 159.5t147 65.5q63 0 96.5 -38t33.5 -101q0 -95 -56 -160t-148 -65zM653 79q44 0 67 34.5t23 90.5q0 63 -52 63q-44 0 -67 -34.5
t-23 -90.5q0 -63 52 -63zM1024 79q44 0 67.5 34.5t23.5 90.5q0 63 -53 63q-44 0 -67 -34.5t-23 -90.5q0 -63 52 -63z" />
    <glyph glyph-name="guilsinglleft" unicode="&#x2039;" horiz-adv-x="356" 
d="M205 66l-122 212l2 10l207 212h128l-2 -10l-182 -208l97 -206l-2 -10h-126z" />
    <glyph glyph-name="guilsinglright" unicode="&#x203a;" horiz-adv-x="356" 
d="M52 66l2 10l182 208l-97 206l2 10h126l122 -212l-2 -10l-208 -212h-127z" />
    <glyph glyph-name="fraction" unicode="&#x2044;" horiz-adv-x="552" 
d="M-31 -100l2 10l626 890h128l-2 -10l-624 -890h-130z" />
    <glyph glyph-name="Euro" unicode="&#x20ac;" horiz-adv-x="753" 
d="M805 445h-140q6 61 -26.5 100t-106.5 39q-137 0 -203 -116h234l-39 -90h-229q-7 -31 -9 -65h210l-38 -90h-166q25 -108 145 -108q71 0 119.5 37t69.5 96h139q-34 -114 -125 -185.5t-225 -71.5q-118 0 -187.5 63.5t-81.5 168.5h-62l18 90h43q2 34 9 65h-39l19 90h47
q46 111 141 176t230 65q129 0 198.5 -75t54.5 -189z" />
    <glyph glyph-name="uni2116" unicode="&#x2116;" horiz-adv-x="1158" 
d="M977 332q-73 0 -113 40t-40 106q0 99 56 165t159 66q71 0 111.5 -41t40.5 -106q0 -98 -55 -164t-159 -66zM79 0l142 700h159l188 -486h4l98 486h136l-142 -700h-160l-188 483h-4l-98 -483h-135zM988 424q46 0 72 34.5t26 90.5q0 67 -59 67q-46 0 -72 -34.5t-26 -88.5
q0 -33 15.5 -51t43.5 -18zM782 188l20 100h320l-19 -100h-321z" />
    <glyph glyph-name="trademark" unicode="&#x2122;" horiz-adv-x="731" 
d="M204 373l52 257h-96l13 70h270l-14 -70h-96l-52 -257h-77zM423 373l66 327h85l62 -150h3l120 150h85l-66 -327h-75l42 207h-3l-124 -153h-10l-65 155h-3l-42 -209h-75z" />
    <glyph glyph-name="minus" unicode="&#x2212;" horiz-adv-x="490" 
d="M57 256l23 114h481l-24 -114h-480z" />
    <glyph glyph-name="notequal" unicode="&#x2260;" horiz-adv-x="490" 
d="M557 354h-163l-78 -97h222l-24 -115h-291l-44 -55h-95l2 10l36 45h-88l23 115h158l78 97h-216l23 114h285l51 63h95l-2 -10l-43 -53h94z" />
    <glyph glyph-name="lessequal" unicode="&#x2264;" horiz-adv-x="520" 
d="M517 160l-415 163l27 135l482 163l-25 -124l-344 -103l-1 -4l302 -106zM36 1l23 115h449l-23 -115h-449z" />
    <glyph glyph-name="greaterequal" unicode="&#x2265;" horiz-adv-x="520" 
d="M68 160l26 124l342 107l1 4l-300 102l25 124l416 -163l-28 -135zM36 1l23 115h449l-23 -115h-449z" />
    <glyph glyph-name="caron.Slovak" horiz-adv-x="200" 
d="M141 530l34 170h134l-2 -10l-78 -160h-88z" />
    <glyph glyph-name="i.loclTRK" horiz-adv-x="247" 
d="M179 594l28 140h144l-28 -140h-144zM61 0l106 520h134l-106 -520h-134z" />
    </font>
</defs>
</svg>
