<svg xmlns="http://www.w3.org/2000/svg" width="236" height="160" viewBox="0 0 236 160">
  <g id="Group_2303" data-name="Group 2303" transform="translate(-842 -112)">
    <g id="Group_2208" data-name="Group 2208" transform="translate(917.029 112)">
      <g id="Group_688" data-name="Group 688">
        <g id="Group_687" data-name="Group 687" transform="translate(0 0)">
          <rect id="Rectangle_850" data-name="Rectangle 850" width="90" height="90" rx="10" transform="translate(-0.029 0)" fill="#ff7c40"/>
        </g>
        <g id="Group_12" data-name="Group 12" transform="translate(16.62 16.62)">
          <g id="Group_3" data-name="Group 3" transform="translate(16.73 0.053)">
            <path id="Path_1" data-name="Path 1" d="M64.365,17.04c-.526.631-1.052,1.21-1.578,1.841-.316.316-.579.684-.894,1-.526.579-1,1.21-1.526,1.789-.263.263-.473.579-.737.842Q49.213,34.9,38.692,47.185c-.263.263-.473.579-.737.842-.526.631-1.1,1.315-1.631,1.947-.263.316-.579.684-.894,1-1.157,1.368-2.367,2.788-3.525,4.156a.163.163,0,0,0-.105-.053c.789-1.473,1.578-2.946,2.42-4.419.21-.368.368-.737.579-1.052.368-.737.789-1.42,1.157-2.157.158-.263.316-.579.473-.842,3.893-7.207,7.786-14.362,11.732-21.57-4.893-.053-9.575-.053-14.467-.105,2.63-4.787,5.313-9.47,7.944-14.2.21-.316.368-.684.579-1,.737-1.315,1.473-2.683,2.21-4l.631-1.1C45.9,3.1,46.741,1.626,47.583.1L59.262,3.362C57.894,5.256,56.579,7.2,55.211,9.1c-.21.316-.473.631-.684.947-.579.842-1.21,1.736-1.841,2.578-.21.263-.368.526-.579.789-.789,1.1-1.578,2.21-2.367,3.367,2.157.053,4.314.105,6.471.105h1.315c1,0,2,.053,2.946.053a11.889,11.889,0,0,1,1.368.053C62.734,17.04,63.523,17.04,64.365,17.04Z" transform="translate(-31.8 -0.1)" fill="#fff"/>
            <path id="Path_2" data-name="Path 2" d="M64.365,17.04c-.526.631-1.052,1.21-1.578,1.841-.316.316-.579.684-.894,1-.526.579-1,1.21-1.526,1.789-.263.263-.473.579-.737.842Q49.213,34.9,38.692,47.185c-.263.263-.473.579-.737.842-.526.631-1.1,1.315-1.631,1.947-.263.316-.579.684-.894,1-1.157,1.368-2.367,2.788-3.525,4.156a.163.163,0,0,0-.105-.053c.789-1.473,1.578-2.946,2.42-4.419.21-.368.368-.737.579-1.052.368-.737.789-1.42,1.157-2.157.158-.263.316-.579.473-.842,3.893-7.207,7.786-14.362,11.732-21.57-4.893-.053-9.575-.053-14.467-.105,2.63-4.787,5.313-9.47,7.944-14.2.21-.316.368-.684.579-1,.737-1.315,1.473-2.683,2.21-4l.631-1.1C45.9,3.1,46.741,1.626,47.583.1L59.262,3.362C57.894,5.256,56.579,7.2,55.211,9.1c-.21.316-.473.631-.684.947-.579.842-1.21,1.736-1.841,2.578-.21.263-.368.526-.579.789-.789,1.1-1.578,2.21-2.367,3.367,2.157.053,4.314.105,6.471.105h1.315c1,0,2,.053,2.946.053a11.889,11.889,0,0,1,1.368.053C62.734,17.04,63.523,17.04,64.365,17.04Z" transform="translate(-31.8 -0.1)" fill="#fff"/>
            <path id="Path_3" data-name="Path 3" d="M64.365,17.04c-.526.631-1.052,1.21-1.578,1.841-.316.316-.579.684-.894,1-.526.579-1,1.21-1.526,1.789-.263.263-.473.579-.737.842Q49.213,34.9,38.692,47.185c-.263.263-.473.579-.737.842-.526.631-1.1,1.315-1.631,1.947-.263.316-.579.684-.894,1-1.157,1.368-2.367,2.788-3.525,4.156a.163.163,0,0,0-.105-.053c.789-1.473,1.578-2.946,2.42-4.419.21-.368.368-.737.579-1.052.368-.737.789-1.42,1.157-2.157.158-.263.316-.579.473-.842,3.893-7.207,7.786-14.362,11.732-21.57-4.893-.053-9.575-.053-14.467-.105,2.63-4.787,5.313-9.47,7.944-14.2.21-.316.368-.684.579-1,.737-1.315,1.473-2.683,2.21-4l.631-1.1C45.9,3.1,46.741,1.626,47.583.1L59.262,3.362C57.894,5.256,56.579,7.2,55.211,9.1c-.21.316-.473.631-.684.947-.579.842-1.21,1.736-1.841,2.578-.21.263-.368.526-.579.789-.789,1.1-1.578,2.21-2.367,3.367,2.157.053,4.314.105,6.471.105h1.315c1,0,2,.053,2.946.053a11.889,11.889,0,0,1,1.368.053C62.734,17.04,63.523,17.04,64.365,17.04Z" transform="translate(-31.8 -0.1)" fill="#fff"/>
          </g>
          <g id="Group_9" data-name="Group 9" transform="translate(0 28.882)">
            <g id="Group_8" data-name="Group 8">
              <g id="Group_5" data-name="Group 5">
                <g id="Group_4" data-name="Group 4">
                  <path id="Path_4" data-name="Path 4" d="M.316,63.58a34.651,34.651,0,0,0,4.682-3,6.439,6.439,0,0,0,2.21-2.736c.263-1,0-1.631-1.157-1.631-1.21,0-2,.737-2.473,2.1H1.947a4.791,4.791,0,0,1,4.63-3.42c2,0,2.946,1.052,2.42,2.841-.579,2.1-3.788,4.472-6.366,5.734H7.576l-.368,1.263L0,64.79Z" transform="translate(0 -54.9)" fill="#fff"/>
                </g>
              </g>
              <g id="Group_7" data-name="Group 7" transform="translate(8.838 0.105)">
                <g id="Group_6" data-name="Group 6">
                  <path id="Path_5" data-name="Path 5" d="M16.8,62.833l.368-1.315,7-6.418h1.789l-1.789,6.366h1.473l-.368,1.368H23.8l-.579,2.1H21.535l.579-2.1Zm7.05-5.84-4.893,4.472h3.63Z" transform="translate(-16.8 -55.1)" fill="#fff"/>
                </g>
              </g>
            </g>
          </g>
          <g id="Group_11" data-name="Group 11" transform="translate(6.052)">
            <path id="Path_6" data-name="Path 6" d="M61.945,16.94a11.891,11.891,0,0,1-1.368-.053c-1,0-2-.053-2.946-.053H56.368c-2.157-.053-4.314-.105-6.471-.105.789-1.1,1.578-2.21,2.367-3.367.158-.21.316-.473.473-.684.053-.053.053-.105.105-.105.631-.842,1.21-1.736,1.841-2.578.21-.316.473-.631.684-.947C56.736,7.155,60.577,1.894,61.945,0H47.583c-.842,1.526-1.683,3.051-2.525,4.524l-.631,1.1c-.737,1.315-1.473,2.683-2.21,4l-.158.316c-.105.21-.263.473-.368.684-2.63,4.735-5.261,9.47-7.944,14.2,4.84.053,9.575.053,14.467.105-4,7.26-7.891,14.415-11.784,21.57-.158.263-.316.579-.473.842-.368.737-.789,1.42-1.157,2.157-.21.368-.368.737-.579,1.052-.789,1.473-1.578,2.946-2.42,4.419a.163.163,0,0,0,.105.053c1.157-1.368,2.367-2.788,3.525-4.156.316-.316.579-.684.894-1,.526-.631,1.1-1.315,1.631-1.947.263-.263.473-.579.737-.842q10.5-12.232,20.991-24.621c.21-.263.473-.526.684-.789l.053-.053c.526-.579,1-1.21,1.526-1.789.263-.316.579-.684.894-1,.526-.631,1.052-1.21,1.578-1.841C63.523,16.993,62.734,16.993,61.945,16.94Z" transform="translate(-21.122)" fill="#fff"/>
            <g id="Group_10" data-name="Group 10" transform="translate(0 9.733)">
              <path id="Path_7" data-name="Path 7" d="M30.781,83.566a1.646,1.646,0,0,0,.263-.526,18.337,18.337,0,0,1-6.681-4.84H23.1a19.808,19.808,0,0,0,7.47,5.734A.848.848,0,0,0,30.781,83.566Z" transform="translate(-16.999 -46.793)" fill="#fff"/>
              <path id="Path_8" data-name="Path 8" d="M18.13,33.388a.5.5,0,0,0-.684-.21L15.132,34.44l-.526.263c.053-.263.105-.526.158-.737A18.4,18.4,0,0,1,30.336,19.552c.105-.21.263-.473.368-.684a3.018,3.018,0,0,1,.21-.368A19.3,19.3,0,0,0,13.869,33.809a.9.9,0,0,0-.053.368l-.158-.263-1.21-2.21a.6.6,0,0,0-.684-.21.5.5,0,0,0-.21.684l1.526,2.736c.105.158.158.316.263.473a1.266,1.266,0,0,0,.316.421,1.007,1.007,0,0,0,1.157-.053l3.157-1.736A.44.44,0,0,0,18.13,33.388Z" transform="translate(-11.503 -18.5)" fill="#fff"/>
              <path id="Path_9" data-name="Path 9" d="M67.365,44.742a18.443,18.443,0,0,1,.579,7.365h0a13.521,13.521,0,0,1-.368,2.1A18.472,18.472,0,0,1,47.426,68.205a2.756,2.756,0,0,1-.526.579,18.3,18.3,0,0,0,3,.21,19.152,19.152,0,0,0,19.15-19.15A18.285,18.285,0,0,0,68.1,43.9C67.838,44.216,67.575,44.479,67.365,44.742Z" transform="translate(-28.278 -30.537)" fill="#fff"/>
              <path id="Path_10" data-name="Path 10" d="M73.173,25.458l-.473.684a21.206,21.206,0,0,1,1.683,1.368H75.8a25.31,25.31,0,0,0-2.525-2.21Z" transform="translate(-40.505 -21.723)" fill="#fff"/>
            </g>
          </g>
        </g>
      </g>
    </g>
    <text id="ProntoIntervento" transform="translate(960 247)" fill="#39f" font-size="29" font-family="BasierCircle-Bold, Basier Circle" font-weight="700"><tspan x="-117.972" y="0">Pronto</tspan><tspan y="0" fill="#ff7c40">Intervento</tspan></text>
    <text id="SERVIZIO_24H" data-name="SERVIZIO 24H" transform="translate(961 268)" fill="#39f" font-size="14" font-family="BasierCircle-Regular, Basier Circle"><tspan x="-46.557" y="0">SERVIZIO 24H</tspan></text>
  </g>
</svg>
