<svg xmlns="http://www.w3.org/2000/svg" width="50" height="50" viewBox="0 0 50 50">
  <g id="Group_688" data-name="Group 688" transform="translate(-0.346 0.152)">
    <g id="Group_687" data-name="Group 687" transform="translate(0)">
      <rect id="Rectangle_850" data-name="Rectangle 850" width="50" height="50" rx="10" transform="translate(0.346 -0.152)" fill="#ff7c40"/>
    </g>
    <g id="Group_12" data-name="Group 12" transform="translate(9.559 9.241)">
      <g id="Group_3" data-name="Group 3" transform="translate(9.302 0.029)">
        <path id="Path_1" data-name="Path 1" d="M49.907,9.519c-.293.351-.585.673-.878,1.024-.176.176-.322.38-.5.556-.293.322-.556.673-.848.995-.146.146-.263.322-.41.468Q41.482,19.45,35.632,26.28c-.146.146-.263.322-.41.468-.293.351-.614.731-.907,1.082-.146.176-.322.38-.5.556-.644.761-1.316,1.55-1.96,2.311a.091.091,0,0,0-.059-.029c.439-.819.878-1.638,1.346-2.457.117-.2.2-.41.322-.585.2-.41.439-.79.644-1.2.088-.146.176-.322.263-.468,2.165-4.007,4.329-7.986,6.523-11.993-2.72-.029-5.324-.029-8.044-.059,1.463-2.662,2.954-5.265,4.417-7.9.117-.176.2-.38.322-.556.41-.731.819-1.492,1.229-2.223l.351-.614c.468-.848.936-1.667,1.4-2.516l6.494,1.814c-.761,1.053-1.492,2.135-2.252,3.188-.117.176-.263.351-.38.527-.322.468-.673.965-1.024,1.433-.117.146-.2.293-.322.439-.439.614-.878,1.229-1.316,1.872,1.2.029,2.4.059,3.6.059H46.1c.556,0,1.112.029,1.638.029a6.61,6.61,0,0,1,.761.029C49,9.519,49.439,9.519,49.907,9.519Z" transform="translate(-31.8 -0.1)" fill="#fff"/>
        <path id="Path_2" data-name="Path 2" d="M49.907,9.519c-.293.351-.585.673-.878,1.024-.176.176-.322.38-.5.556-.293.322-.556.673-.848.995-.146.146-.263.322-.41.468Q41.482,19.45,35.632,26.28c-.146.146-.263.322-.41.468-.293.351-.614.731-.907,1.082-.146.176-.322.38-.5.556-.644.761-1.316,1.55-1.96,2.311a.091.091,0,0,0-.059-.029c.439-.819.878-1.638,1.346-2.457.117-.2.2-.41.322-.585.2-.41.439-.79.644-1.2.088-.146.176-.322.263-.468,2.165-4.007,4.329-7.986,6.523-11.993-2.72-.029-5.324-.029-8.044-.059,1.463-2.662,2.954-5.265,4.417-7.9.117-.176.2-.38.322-.556.41-.731.819-1.492,1.229-2.223l.351-.614c.468-.848.936-1.667,1.4-2.516l6.494,1.814c-.761,1.053-1.492,2.135-2.252,3.188-.117.176-.263.351-.38.527-.322.468-.673.965-1.024,1.433-.117.146-.2.293-.322.439-.439.614-.878,1.229-1.316,1.872,1.2.029,2.4.059,3.6.059H46.1c.556,0,1.112.029,1.638.029a6.61,6.61,0,0,1,.761.029C49,9.519,49.439,9.519,49.907,9.519Z" transform="translate(-31.8 -0.1)" fill="#fff"/>
        <path id="Path_3" data-name="Path 3" d="M49.907,9.519c-.293.351-.585.673-.878,1.024-.176.176-.322.38-.5.556-.293.322-.556.673-.848.995-.146.146-.263.322-.41.468Q41.482,19.45,35.632,26.28c-.146.146-.263.322-.41.468-.293.351-.614.731-.907,1.082-.146.176-.322.38-.5.556-.644.761-1.316,1.55-1.96,2.311a.091.091,0,0,0-.059-.029c.439-.819.878-1.638,1.346-2.457.117-.2.2-.41.322-.585.2-.41.439-.79.644-1.2.088-.146.176-.322.263-.468,2.165-4.007,4.329-7.986,6.523-11.993-2.72-.029-5.324-.029-8.044-.059,1.463-2.662,2.954-5.265,4.417-7.9.117-.176.2-.38.322-.556.41-.731.819-1.492,1.229-2.223l.351-.614c.468-.848.936-1.667,1.4-2.516l6.494,1.814c-.761,1.053-1.492,2.135-2.252,3.188-.117.176-.263.351-.38.527-.322.468-.673.965-1.024,1.433-.117.146-.2.293-.322.439-.439.614-.878,1.229-1.316,1.872,1.2.029,2.4.059,3.6.059H46.1c.556,0,1.112.029,1.638.029a6.61,6.61,0,0,1,.761.029C49,9.519,49.439,9.519,49.907,9.519Z" transform="translate(-31.8 -0.1)" fill="#fff"/>
      </g>
      <g id="Group_9" data-name="Group 9" transform="translate(0 16.059)">
        <g id="Group_8" data-name="Group 8">
          <g id="Group_5" data-name="Group 5">
            <g id="Group_4" data-name="Group 4">
              <path id="Path_4" data-name="Path 4" d="M.176,59.726a19.267,19.267,0,0,0,2.6-1.667,3.58,3.58,0,0,0,1.229-1.521c.146-.556,0-.907-.644-.907-.673,0-1.112.41-1.375,1.17H1.082a2.664,2.664,0,0,1,2.574-1.9c1.112,0,1.638.585,1.346,1.58C4.68,57.65,2.9,58.966,1.463,59.668h2.75l-.2.7L0,60.4Z" transform="translate(0 -54.9)" fill="#fff"/>
            </g>
          </g>
          <g id="Group_7" data-name="Group 7" transform="translate(4.914 0.059)">
            <g id="Group_6" data-name="Group 6">
              <path id="Path_5" data-name="Path 5" d="M16.8,59.4l.2-.731L20.9,55.1h.995L20.9,58.639h.819l-.2.761H20.69l-.322,1.17h-.936l.322-1.17Zm3.92-3.247L18,58.639h2.018Z" transform="translate(-16.8 -55.1)" fill="#fff"/>
            </g>
          </g>
        </g>
      </g>
      <g id="Group_11" data-name="Group 11" transform="translate(3.365)">
        <path id="Path_6" data-name="Path 6" d="M48.561,9.419A6.612,6.612,0,0,1,47.8,9.39c-.556,0-1.112-.029-1.638-.029h-.7c-1.2-.029-2.4-.059-3.6-.059.439-.614.878-1.229,1.316-1.872.088-.117.176-.263.263-.38.029-.029.029-.059.058-.059.351-.468.673-.965,1.024-1.433.117-.176.263-.351.38-.527C45.665,3.978,47.8,1.053,48.561,0H40.575c-.468.848-.936,1.7-1.4,2.516l-.351.614c-.41.731-.819,1.492-1.229,2.223l-.088.176c-.059.117-.146.263-.2.38-1.463,2.633-2.925,5.265-4.417,7.9,2.691.029,5.324.029,8.044.058C38.7,17.9,36.539,21.88,34.374,25.858c-.088.146-.176.322-.263.468-.2.41-.439.79-.644,1.2-.117.2-.2.41-.322.585-.439.819-.878,1.638-1.346,2.457a.091.091,0,0,0,.059.029c.644-.761,1.316-1.55,1.96-2.311.176-.175.322-.38.5-.556.293-.351.614-.731.907-1.082.146-.146.263-.322.41-.468q5.836-6.8,11.671-13.69c.117-.146.263-.293.38-.439l.029-.029c.293-.322.556-.673.848-.995.146-.176.322-.38.5-.556.293-.351.585-.673.878-1.024C49.439,9.448,49,9.448,48.561,9.419Z" transform="translate(-25.863)" fill="#fff"/>
        <g id="Group_10" data-name="Group 10" transform="translate(0 5.411)">
          <path id="Path_7" data-name="Path 7" d="M27.371,81.184a.915.915,0,0,0,.146-.292A10.2,10.2,0,0,1,23.8,78.2h-.7a11.014,11.014,0,0,0,4.154,3.188A.472.472,0,0,0,27.371,81.184Z" transform="translate(-19.708 -60.737)" fill="#fff"/>
          <path id="Path_8" data-name="Path 8" d="M15.188,26.778a.279.279,0,0,0-.38-.117l-1.287.7-.293.146c.029-.146.059-.293.088-.41a10.231,10.231,0,0,1,8.658-8.015c.059-.117.146-.263.2-.38a1.678,1.678,0,0,1,.117-.2,10.734,10.734,0,0,0-9.477,8.512.5.5,0,0,0-.029.2l-.088-.146-.673-1.229a.332.332,0,0,0-.38-.117.279.279,0,0,0-.117.38l.848,1.521c.059.088.088.176.146.263a.7.7,0,0,0,.176.234.56.56,0,0,0,.644-.029l1.755-.965A.245.245,0,0,0,15.188,26.778Z" transform="translate(-11.503 -18.5)" fill="#fff"/>
          <path id="Path_9" data-name="Path 9" d="M58.279,44.368a10.255,10.255,0,0,1,.322,4.1h0a7.518,7.518,0,0,1-.2,1.17,10.271,10.271,0,0,1-11.2,7.781,1.533,1.533,0,0,1-.293.322,10.173,10.173,0,0,0,1.667.117A10.649,10.649,0,0,0,59.215,47.205a10.167,10.167,0,0,0-.527-3.305C58.542,44.076,58.4,44.222,58.279,44.368Z" transform="translate(-36.546 -36.47)" fill="#fff"/>
          <path id="Path_10" data-name="Path 10" d="M72.963,25.388l-.263.38a11.79,11.79,0,0,1,.936.761h.79a14.073,14.073,0,0,0-1.4-1.229Z" transform="translate(-54.799 -23.311)" fill="#fff"/>
        </g>
      </g>
    </g>
  </g>
</svg>
