<svg xmlns="http://www.w3.org/2000/svg" width="77" height="77" viewBox="0 0 77 77"><g transform="translate(-1775.285 -958.285)"><g transform="translate(1775 958)"><g transform="translate(0 0)"><rect width="77" height="77" rx="10" transform="translate(0.285 0.285)" fill="#ff7c40"/></g><g transform="translate(14.505 14.505)"><g transform="translate(14.314 0.045)"><path d="M59.663,14.594c-.45.54-.9,1.035-1.35,1.575-.27.27-.5.585-.765.855-.45.5-.855,1.035-1.305,1.53-.225.225-.405.5-.63.72Q46.7,29.877,37.7,40.387c-.225.225-.405.5-.63.72-.45.54-.945,1.125-1.4,1.666-.225.27-.5.585-.765.855-.99,1.17-2.026,2.386-3.016,3.556a.139.139,0,0,0-.09-.045c.675-1.26,1.35-2.521,2.071-3.781.18-.315.315-.63.5-.9.315-.63.675-1.215.99-1.846.135-.225.27-.5.405-.72C39.092,33.725,42.423,27.6,45.8,21.436c-4.186-.045-8.193-.045-12.379-.09,2.251-4.1,4.546-8.1,6.8-12.154.18-.27.315-.585.5-.855.63-1.125,1.26-2.3,1.891-3.421l.54-.945C43.864,2.666,44.584,1.405,45.3.1L55.3,2.891C54.127,4.511,53,6.177,51.831,7.8c-.18.27-.405.54-.585.81-.5.72-1.035,1.485-1.575,2.206-.18.225-.315.45-.5.675-.675.945-1.35,1.891-2.026,2.881,1.846.045,3.691.09,5.537.09h1.125c.855,0,1.711.045,2.521.045a10.173,10.173,0,0,1,1.17.045C58.268,14.594,58.943,14.594,59.663,14.594Z" transform="translate(-31.8 -0.1)" fill="#fff"/><path d="M59.663,14.594c-.45.54-.9,1.035-1.35,1.575-.27.27-.5.585-.765.855-.45.5-.855,1.035-1.305,1.53-.225.225-.405.5-.63.72Q46.7,29.877,37.7,40.387c-.225.225-.405.5-.63.72-.45.54-.945,1.125-1.4,1.666-.225.27-.5.585-.765.855-.99,1.17-2.026,2.386-3.016,3.556a.139.139,0,0,0-.09-.045c.675-1.26,1.35-2.521,2.071-3.781.18-.315.315-.63.5-.9.315-.63.675-1.215.99-1.846.135-.225.27-.5.405-.72C39.092,33.725,42.423,27.6,45.8,21.436c-4.186-.045-8.193-.045-12.379-.09,2.251-4.1,4.546-8.1,6.8-12.154.18-.27.315-.585.5-.855.63-1.125,1.26-2.3,1.891-3.421l.54-.945C43.864,2.666,44.584,1.405,45.3.1L55.3,2.891C54.127,4.511,53,6.177,51.831,7.8c-.18.27-.405.54-.585.81-.5.72-1.035,1.485-1.575,2.206-.18.225-.315.45-.5.675-.675.945-1.35,1.891-2.026,2.881,1.846.045,3.691.09,5.537.09h1.125c.855,0,1.711.045,2.521.045a10.173,10.173,0,0,1,1.17.045C58.268,14.594,58.943,14.594,59.663,14.594Z" transform="translate(-31.8 -0.1)" fill="#fff"/><path d="M59.663,14.594c-.45.54-.9,1.035-1.35,1.575-.27.27-.5.585-.765.855-.45.5-.855,1.035-1.305,1.53-.225.225-.405.5-.63.72Q46.7,29.877,37.7,40.387c-.225.225-.405.5-.63.72-.45.54-.945,1.125-1.4,1.666-.225.27-.5.585-.765.855-.99,1.17-2.026,2.386-3.016,3.556a.139.139,0,0,0-.09-.045c.675-1.26,1.35-2.521,2.071-3.781.18-.315.315-.63.5-.9.315-.63.675-1.215.99-1.846.135-.225.27-.5.405-.72C39.092,33.725,42.423,27.6,45.8,21.436c-4.186-.045-8.193-.045-12.379-.09,2.251-4.1,4.546-8.1,6.8-12.154.18-.27.315-.585.5-.855.63-1.125,1.26-2.3,1.891-3.421l.54-.945C43.864,2.666,44.584,1.405,45.3.1L55.3,2.891C54.127,4.511,53,6.177,51.831,7.8c-.18.27-.405.54-.585.81-.5.72-1.035,1.485-1.575,2.206-.18.225-.315.45-.5.675-.675.945-1.35,1.891-2.026,2.881,1.846.045,3.691.09,5.537.09h1.125c.855,0,1.711.045,2.521.045a10.173,10.173,0,0,1,1.17.045C58.268,14.594,58.943,14.594,59.663,14.594Z" transform="translate(-31.8 -0.1)" fill="#fff"/></g><g transform="translate(0 24.712)"><path d="M.27,62.327a29.649,29.649,0,0,0,4.006-2.566,5.51,5.51,0,0,0,1.891-2.341c.225-.855,0-1.4-.99-1.4-1.035,0-1.711.63-2.116,1.8h-1.4A4.1,4.1,0,0,1,5.627,54.9c1.711,0,2.521.9,2.071,2.431-.5,1.8-3.241,3.826-5.447,4.906H6.482l-.315,1.08L0,63.363Z" transform="translate(0 -54.9)" fill="#fff"/><g transform="translate(7.562 0.09)"><path d="M16.8,61.717l.315-1.125L23.1,55.1h1.53L23.1,60.547h1.26l-.315,1.17h-1.26l-.5,1.8h-1.44l.5-1.8Zm6.032-5-4.186,3.826h3.106Z" transform="translate(-16.8 -55.1)" fill="#fff"/></g></g><g transform="translate(5.178)"><path d="M57.593,14.494a10.175,10.175,0,0,1-1.17-.045c-.855,0-1.711-.045-2.521-.045h-1.08c-1.846-.045-3.691-.09-5.537-.09.675-.945,1.35-1.891,2.026-2.881.135-.18.27-.405.405-.585.045-.045.045-.09.09-.09.54-.72,1.035-1.485,1.575-2.206.18-.27.405-.54.585-.81C53.136,6.122,56.422,1.62,57.593,0H45.3c-.72,1.305-1.44,2.611-2.161,3.871l-.54.945c-.63,1.125-1.26,2.3-1.891,3.421l-.135.27c-.09.18-.225.405-.315.585-2.251,4.051-4.5,8.1-6.8,12.154,4.141.045,8.192.045,12.379.09-3.421,6.212-6.752,12.334-10.083,18.456-.135.225-.27.5-.405.72-.315.63-.675,1.215-.99,1.846-.18.315-.315.63-.5.9-.675,1.26-1.35,2.521-2.071,3.781a.139.139,0,0,0,.09.045c.99-1.17,2.026-2.386,3.016-3.556.27-.27.5-.585.765-.855.45-.54.945-1.125,1.4-1.666.225-.225.405-.5.63-.72q8.98-10.466,17.96-21.066c.18-.225.405-.45.585-.675l.045-.045c.45-.5.855-1.035,1.305-1.53.225-.27.5-.585.765-.855.45-.54.9-1.035,1.35-1.575C58.943,14.539,58.268,14.539,57.593,14.494Z" transform="translate(-22.664)" fill="#fff"/><g transform="translate(0 8.328)"><path d="M29.672,82.791a1.408,1.408,0,0,0,.225-.45A15.69,15.69,0,0,1,24.18,78.2H23.1a16.948,16.948,0,0,0,6.392,4.907A.726.726,0,0,0,29.672,82.791Z" transform="translate(-17.88 -51.327)" fill="#fff"/><path d="M17.174,31.239a.43.43,0,0,0-.585-.18l-1.981,1.08-.45.225c.045-.225.09-.45.135-.63A15.744,15.744,0,0,1,27.617,19.4c.09-.18.225-.405.315-.585a2.583,2.583,0,0,1,.18-.315A16.517,16.517,0,0,0,13.527,31.6a.766.766,0,0,0-.045.315l-.135-.225L12.312,29.8a.511.511,0,0,0-.585-.18.43.43,0,0,0-.18.585l1.305,2.341c.09.135.135.27.225.405a1.083,1.083,0,0,0,.27.36.861.861,0,0,0,.99-.045l2.7-1.485A.377.377,0,0,0,17.174,31.239Z" transform="translate(-11.503 -18.5)" fill="#fff"/><path d="M64.41,44.62a15.78,15.78,0,0,1,.5,6.3h0a11.57,11.57,0,0,1-.315,1.8A15.805,15.805,0,0,1,47.35,64.7a2.358,2.358,0,0,1-.45.5,15.655,15.655,0,0,0,2.566.18A16.387,16.387,0,0,0,65.851,48.987a15.646,15.646,0,0,0-.81-5.087C64.815,44.17,64.59,44.4,64.41,44.62Z" transform="translate(-30.967 -32.467)" fill="#fff"/><path d="M73.105,25.435l-.405.585a18.144,18.144,0,0,1,1.44,1.17h1.215A21.656,21.656,0,0,0,73.2,25.3Z" transform="translate(-45.153 -22.239)" fill="#fff"/></g></g></g></g></g></svg>